<svg xmlns="http://www.w3.org/2000/svg" xmlns:xlink="http://www.w3.org/1999/xlink" width="80" zoomAndPan="magnify" viewBox="0 0 60 60" height="80" preserveAspectRatio="xMidYMid meet" version="1.0"><defs><clipPath id="c2581a0e78"><path d="M 17.652344 14.375 L 42.402344 14.375 L 42.402344 39.125 L 17.652344 39.125 Z M 17.652344 14.375 " clip-rule="nonzero"/></clipPath><clipPath id="baca12da31"><path d="M 0.300781 0 L 59.550781 0 L 59.550781 60 L 0.300781 60 Z M 0.300781 0 " clip-rule="nonzero"/></clipPath><clipPath id="dbf08077b2"><path d="M 31.199219 19.324219 L 34.949219 19.324219 L 34.949219 21.574219 L 31.199219 21.574219 Z M 31.199219 19.324219 " clip-rule="nonzero"/></clipPath><clipPath id="b87d3c7cab"><path d="M 31.199219 30 L 34.949219 30 L 34.949219 32.25 L 31.199219 32.25 Z M 31.199219 30 " clip-rule="nonzero"/></clipPath><clipPath id="de7076998d"><path d="M 31.199219 41.824219 L 34.949219 41.824219 L 34.949219 44.074219 L 31.199219 44.074219 Z M 31.199219 41.824219 " clip-rule="nonzero"/></clipPath></defs><rect x="-6" width="72" fill="#ffffff" y="-6" height="72" fill-opacity="1"/><rect x="-6" width="72" fill="#ffffff" y="-6" height="72" fill-opacity="1"/><g clip-path="url(#c2581a0e78)"><path fill="#ffffff" d="M 41.191406 24.609375 C 40.636719 24.253906 40.445312 23.539062 40.75 22.953125 C 41.140625 22.191406 41.121094 21.289062 40.691406 20.546875 C 40.261719 19.804688 39.492188 19.335938 38.636719 19.292969 C 37.976562 19.261719 37.453125 18.742188 37.421875 18.082031 C 37.382812 17.226562 36.914062 16.457031 36.167969 16.027344 C 35.425781 15.597656 34.527344 15.578125 33.765625 15.96875 C 33.179688 16.273438 32.464844 16.082031 32.109375 15.523438 C 31.644531 14.804688 30.859375 14.375 30 14.375 C 29.140625 14.375 28.351562 14.804688 27.890625 15.527344 C 27.53125 16.082031 26.820312 16.273438 26.230469 15.972656 C 25.46875 15.578125 24.570312 15.601562 23.828125 16.03125 C 23.085938 16.457031 22.617188 17.226562 22.574219 18.082031 C 22.542969 18.742188 22.019531 19.265625 21.359375 19.296875 C 20.503906 19.339844 19.734375 19.804688 19.308594 20.550781 C 18.878906 21.292969 18.855469 22.191406 19.25 22.953125 C 19.550781 23.539062 19.359375 24.253906 18.804688 24.609375 C 18.085938 25.074219 17.652344 25.863281 17.652344 26.722656 C 17.652344 27.578125 18.085938 28.367188 18.808594 28.832031 C 19.363281 29.1875 19.554688 29.902344 19.25 30.488281 C 18.859375 31.25 18.878906 32.152344 19.308594 32.894531 C 19.738281 33.636719 20.507812 34.105469 21.363281 34.148438 C 22.023438 34.179688 22.542969 34.699219 22.578125 35.359375 C 22.617188 36.214844 23.085938 36.984375 23.828125 37.414062 C 24.574219 37.84375 25.472656 37.863281 26.234375 37.472656 C 26.824219 37.167969 27.535156 37.359375 27.890625 37.917969 C 28.351562 38.636719 29.140625 39.066406 30 39.066406 C 30.859375 39.066406 31.644531 38.636719 32.109375 37.914062 C 32.46875 37.359375 33.179688 37.167969 33.769531 37.46875 C 34.53125 37.863281 35.429688 37.839844 36.171875 37.410156 C 36.914062 36.980469 37.382812 36.214844 37.425781 35.355469 C 37.457031 34.695312 37.976562 34.175781 38.640625 34.144531 C 39.496094 34.101562 40.265625 33.632812 40.691406 32.890625 C 41.121094 32.148438 41.144531 31.25 40.75 30.484375 C 40.449219 29.898438 40.640625 29.1875 41.195312 28.828125 C 41.914062 28.367188 42.34375 27.578125 42.34375 26.722656 C 42.34375 25.863281 41.914062 25.074219 41.191406 24.609375 Z M 40.527344 27.792969 C 39.433594 28.496094 39.058594 29.898438 39.652344 31.054688 C 39.855469 31.449219 39.84375 31.894531 39.625 32.277344 C 39.402344 32.660156 39.019531 32.890625 38.578125 32.910156 C 37.28125 32.972656 36.257812 34 36.191406 35.300781 C 36.171875 35.742188 35.941406 36.121094 35.558594 36.34375 C 35.175781 36.5625 34.726562 36.574219 34.335938 36.371094 C 33.179688 35.777344 31.777344 36.152344 31.074219 37.246094 C 30.832031 37.617188 30.441406 37.832031 30 37.832031 C 29.558594 37.832031 29.167969 37.617188 28.925781 37.246094 C 28.449219 36.503906 27.648438 36.09375 26.820312 36.09375 C 26.433594 36.09375 26.035156 36.183594 25.667969 36.375 C 25.273438 36.574219 24.828125 36.566406 24.445312 36.34375 C 24.0625 36.125 23.828125 35.742188 23.808594 35.300781 C 23.746094 34.003906 22.71875 32.976562 21.421875 32.914062 C 20.980469 32.890625 20.597656 32.660156 20.378906 32.277344 C 20.15625 31.894531 20.144531 31.449219 20.347656 31.054688 C 20.945312 29.898438 20.566406 28.5 19.476562 27.792969 C 19.101562 27.554688 18.886719 27.164062 18.886719 26.722656 C 18.886719 26.277344 19.101562 25.886719 19.472656 25.648438 C 20.566406 24.945312 20.941406 23.542969 20.347656 22.386719 C 20.144531 21.992188 20.15625 21.546875 20.375 21.164062 C 20.597656 20.78125 20.976562 20.550781 21.417969 20.53125 C 22.71875 20.46875 23.742188 19.441406 23.808594 18.140625 C 23.828125 17.699219 24.058594 17.320312 24.441406 17.097656 C 24.828125 16.878906 25.269531 16.867188 25.664062 17.070312 C 26.820312 17.664062 28.222656 17.289062 28.925781 16.195312 C 29.167969 15.824219 29.558594 15.609375 30 15.609375 C 30.441406 15.609375 30.832031 15.824219 31.074219 16.195312 C 31.777344 17.285156 33.175781 17.660156 34.332031 17.066406 C 34.726562 16.867188 35.171875 16.875 35.554688 17.097656 C 35.9375 17.316406 36.171875 17.699219 36.191406 18.140625 C 36.253906 19.4375 37.277344 20.464844 38.578125 20.527344 C 39.019531 20.550781 39.402344 20.78125 39.621094 21.164062 C 39.84375 21.546875 39.851562 21.992188 39.652344 22.386719 C 39.054688 23.542969 39.433594 24.941406 40.523438 25.648438 C 40.898438 25.886719 41.109375 26.277344 41.109375 26.722656 C 41.109375 27.164062 40.898438 27.554688 40.527344 27.792969 Z M 35.554688 23.378906 L 34.578125 22.398438 C 34.09375 21.917969 33.3125 21.917969 32.832031 22.398438 L 28.765625 26.464844 L 27.167969 24.867188 C 26.6875 24.386719 25.902344 24.386719 25.425781 24.867188 L 24.445312 25.847656 C 23.960938 26.328125 23.960938 27.109375 24.445312 27.59375 L 27.457031 30.605469 C 27.816406 30.964844 28.292969 31.148438 28.765625 31.148438 C 29.238281 31.148438 29.710938 30.964844 30.074219 30.605469 L 35.554688 25.125 C 36.035156 24.644531 36.035156 23.859375 35.554688 23.378906 Z M 29.203125 29.734375 C 28.960938 29.972656 28.570312 29.972656 28.328125 29.734375 L 25.316406 26.722656 L 26.296875 25.742188 L 28.328125 27.773438 C 28.570312 28.015625 28.960938 28.015625 29.203125 27.773438 L 33.703125 23.273438 L 34.683594 24.25 Z M 27.980469 34.515625 C 27.894531 34.769531 27.652344 34.933594 27.398438 34.933594 C 27.332031 34.933594 27.265625 34.921875 27.199219 34.898438 C 23.703125 33.699219 21.359375 30.414062 21.359375 26.722656 C 21.359375 22.464844 24.402344 18.875 28.597656 18.191406 C 28.9375 18.136719 29.253906 18.363281 29.308594 18.699219 C 29.363281 19.035156 29.132812 19.355469 28.796875 19.410156 C 25.203125 19.996094 22.59375 23.070312 22.59375 26.722656 C 22.59375 29.886719 24.605469 32.703125 27.597656 33.730469 C 27.921875 33.839844 28.09375 34.191406 27.980469 34.515625 Z M 30 34.746094 C 30 35.085938 29.722656 35.363281 29.382812 35.363281 C 29.042969 35.363281 28.765625 35.085938 28.765625 34.746094 C 28.765625 34.40625 29.042969 34.128906 29.382812 34.128906 C 29.722656 34.128906 30 34.40625 30 34.746094 Z M 38.640625 26.722656 C 38.640625 30.976562 35.597656 34.566406 31.402344 35.25 C 31.367188 35.257812 31.332031 35.257812 31.300781 35.257812 C 31.003906 35.257812 30.742188 35.042969 30.691406 34.738281 C 30.636719 34.402344 30.867188 34.085938 31.203125 34.03125 C 34.796875 33.445312 37.40625 30.371094 37.40625 26.722656 C 37.40625 23.554688 35.394531 20.738281 32.402344 19.710938 C 32.078125 19.601562 31.90625 19.25 32.015625 18.925781 C 32.125 18.605469 32.476562 18.433594 32.800781 18.542969 C 36.292969 19.742188 38.640625 23.027344 38.640625 26.722656 Z M 30 18.695312 C 30 18.355469 30.277344 18.078125 30.617188 18.078125 C 30.957031 18.078125 31.234375 18.355469 31.234375 18.695312 C 31.234375 19.035156 30.957031 19.3125 30.617188 19.3125 C 30.277344 19.3125 30 19.035156 30 18.695312 Z M 30 18.695312 " fill-opacity="1" fill-rule="nonzero"/></g><g clip-path="url(#baca12da31)"><path fill="#000000" d="M 57.324219 7.816406 L 51.738281 7.816406 L 51.738281 5.625 C 51.738281 5.113281 51.324219 4.699219 50.8125 4.699219 L 46.398438 4.699219 L 46.398438 3.933594 C 46.398438 1.789062 44.660156 0.0429688 42.523438 0.0429688 L 42.15625 0.0429688 C 40.015625 0.0429688 38.273438 1.789062 38.273438 3.933594 L 38.273438 4.699219 L 33.859375 4.699219 C 33.347656 4.699219 32.933594 5.113281 32.933594 5.625 L 32.933594 7.816406 L 27.347656 7.816406 C 26.121094 7.816406 25.121094 8.816406 25.121094 10.046875 L 25.121094 29.058594 L 23.03125 25.425781 C 22.777344 24.984375 22.210938 24.832031 21.769531 25.085938 L 17.753906 27.410156 C 17.542969 27.535156 17.386719 27.738281 17.324219 27.972656 C 17.257812 28.210938 17.292969 28.464844 17.414062 28.675781 L 17.660156 29.101562 L 4.902344 36.480469 C 4.691406 36.605469 4.535156 36.804688 4.472656 37.042969 C 4.40625 37.28125 4.441406 37.535156 4.5625 37.746094 L 5.058594 38.605469 L 0.796875 41.074219 C 0.585938 41.199219 0.429688 41.402344 0.367188 41.636719 C 0.304688 41.875 0.335938 42.128906 0.460938 42.339844 L 2.171875 45.316406 C 2.34375 45.613281 2.65625 45.777344 2.976562 45.777344 C 3.132812 45.777344 3.289062 45.738281 3.4375 45.652344 L 7.699219 43.1875 L 8.191406 44.046875 C 8.316406 44.257812 8.515625 44.414062 8.753906 44.476562 C 8.832031 44.5 8.914062 44.511719 8.992188 44.511719 C 9.152344 44.511719 9.3125 44.46875 9.457031 44.386719 L 11.84375 43.003906 C 12.121094 43.40625 12.484375 43.746094 12.902344 43.996094 L 8.953125 58.789062 C 8.820312 59.28125 9.113281 59.792969 9.605469 59.921875 C 9.6875 59.945312 9.765625 59.957031 9.847656 59.957031 C 10.253906 59.957031 10.628906 59.683594 10.738281 59.269531 L 14.648438 44.640625 L 18.558594 59.269531 C 18.667969 59.683594 19.042969 59.957031 19.449219 59.957031 C 19.53125 59.957031 19.609375 59.945312 19.691406 59.921875 C 20.183594 59.789062 20.476562 59.28125 20.34375 58.789062 L 16.390625 44 C 17.386719 43.402344 18.058594 42.308594 18.058594 41.058594 C 18.058594 40.535156 17.941406 40.039062 17.730469 39.597656 L 22.210938 37.003906 L 22.453125 37.425781 C 22.625 37.722656 22.9375 37.886719 23.253906 37.886719 C 23.414062 37.886719 23.570312 37.847656 23.714844 37.765625 L 25.125 36.949219 L 25.125 48.9375 C 25.125 50.164062 26.121094 51.164062 27.347656 51.164062 L 57.324219 51.164062 C 58.550781 51.164062 59.550781 50.164062 59.550781 48.9375 L 59.550781 10.046875 C 59.550781 8.816406 58.550781 7.816406 57.324219 7.816406 Z M 34.785156 6.550781 L 39.199219 6.550781 C 39.707031 6.550781 40.121094 6.136719 40.121094 5.625 L 40.121094 3.933594 C 40.121094 2.8125 41.035156 1.898438 42.15625 1.898438 L 42.523438 1.898438 C 43.640625 1.898438 44.550781 2.8125 44.550781 3.933594 L 44.550781 5.625 C 44.550781 6.136719 44.964844 6.550781 45.476562 6.550781 L 49.886719 6.550781 L 49.886719 10.933594 L 34.785156 10.933594 Z M 3.3125 43.585938 L 2.523438 42.214844 L 5.984375 40.210938 L 6.773438 41.582031 Z M 16.210938 41.058594 C 16.210938 41.921875 15.507812 42.625 14.648438 42.625 C 13.785156 42.625 13.085938 41.921875 13.085938 41.058594 C 13.085938 40.195312 13.785156 39.496094 14.648438 39.496094 C 15.507812 39.496094 16.210938 40.195312 16.210938 41.058594 Z M 16.480469 38.179688 C 15.949219 37.839844 15.324219 37.640625 14.648438 37.640625 C 12.765625 37.640625 11.234375 39.175781 11.234375 41.058594 C 11.234375 41.109375 11.238281 41.160156 11.238281 41.210938 L 9.332031 42.316406 L 8.84375 41.46875 C 8.839844 41.464844 8.839844 41.460938 8.835938 41.457031 C 8.835938 41.453125 8.832031 41.449219 8.828125 41.445312 L 6.628906 37.621094 L 18.582031 30.707031 L 21.285156 35.398438 Z M 23.59375 35.695312 L 23.359375 35.289062 C 23.355469 35.285156 23.351562 35.277344 23.351562 35.273438 C 23.347656 35.265625 23.34375 35.261719 23.339844 35.253906 L 19.742188 29.007812 C 19.734375 28.996094 19.730469 28.988281 19.722656 28.976562 C 19.71875 28.964844 19.710938 28.957031 19.707031 28.945312 L 19.480469 28.554688 L 21.894531 27.15625 L 25.226562 32.941406 C 25.238281 32.96875 25.253906 32.992188 25.269531 33.015625 L 26.007812 34.300781 L 25.613281 34.527344 C 25.605469 34.53125 25.59375 34.539062 25.582031 34.542969 Z M 57.699219 48.9375 C 57.699219 49.140625 57.527344 49.3125 57.324219 49.3125 L 27.347656 49.3125 C 27.144531 49.3125 26.972656 49.140625 26.972656 48.9375 L 26.972656 35.882812 L 27.734375 35.441406 C 27.945312 35.316406 28.101562 35.117188 28.164062 34.878906 C 28.226562 34.640625 28.195312 34.386719 28.070312 34.175781 L 26.972656 32.265625 L 26.972656 10.046875 C 26.972656 9.84375 27.144531 9.671875 27.347656 9.671875 L 32.9375 9.671875 L 32.9375 11.863281 C 32.9375 12.375 33.351562 12.789062 33.859375 12.789062 L 50.8125 12.789062 C 51.324219 12.789062 51.738281 12.375 51.738281 11.863281 L 51.738281 9.671875 L 57.324219 9.671875 C 57.527344 9.671875 57.699219 9.84375 57.699219 10.046875 Z M 34.871094 17.261719 L 29.816406 17.261719 C 29.308594 17.261719 28.894531 17.675781 28.894531 18.1875 L 28.894531 23.25 C 28.894531 23.761719 29.308594 24.179688 29.816406 24.179688 L 34.871094 24.179688 C 35.378906 24.179688 35.792969 23.761719 35.792969 23.25 L 35.792969 18.1875 C 35.792969 17.675781 35.378906 17.261719 34.871094 17.261719 Z M 33.945312 22.324219 L 30.742188 22.324219 L 30.742188 19.113281 L 33.945312 19.113281 Z M 51.378906 18.410156 C 51.378906 18.921875 50.964844 19.335938 50.457031 19.335938 L 38.660156 19.335938 C 38.148438 19.335938 37.734375 18.921875 37.734375 18.410156 C 37.734375 17.898438 38.148438 17.484375 38.660156 17.484375 L 50.457031 17.484375 C 50.964844 17.484375 51.378906 17.898438 51.378906 18.410156 Z M 37.734375 21.46875 C 37.734375 20.957031 38.148438 20.539062 38.660156 20.539062 L 44.28125 20.539062 C 44.792969 20.539062 45.207031 20.957031 45.207031 21.46875 C 45.207031 21.980469 44.792969 22.394531 44.28125 22.394531 L 38.660156 22.394531 C 38.148438 22.394531 37.734375 21.980469 37.734375 21.46875 Z M 34.871094 28.222656 L 29.816406 28.222656 C 29.308594 28.222656 28.894531 28.636719 28.894531 29.148438 L 28.894531 34.214844 C 28.894531 34.726562 29.308594 35.140625 29.816406 35.140625 L 34.871094 35.140625 C 35.378906 35.140625 35.792969 34.726562 35.792969 34.214844 L 35.792969 29.148438 C 35.792969 28.636719 35.378906 28.222656 34.871094 28.222656 Z M 33.945312 33.289062 L 30.742188 33.289062 L 30.742188 30.078125 L 33.945312 30.078125 Z M 51.378906 29.375 C 51.378906 29.886719 50.964844 30.300781 50.457031 30.300781 L 38.660156 30.300781 C 38.148438 30.300781 37.734375 29.886719 37.734375 29.375 C 37.734375 28.863281 38.148438 28.445312 38.660156 28.445312 L 50.457031 28.445312 C 50.964844 28.445312 51.378906 28.863281 51.378906 29.375 Z M 37.734375 32.429688 C 37.734375 31.917969 38.148438 31.503906 38.660156 31.503906 L 44.28125 31.503906 C 44.792969 31.503906 45.207031 31.917969 45.207031 32.429688 C 45.207031 32.941406 44.792969 33.355469 44.28125 33.355469 L 38.660156 33.355469 C 38.148438 33.355469 37.734375 32.941406 37.734375 32.429688 Z M 34.871094 39.492188 L 29.816406 39.492188 C 29.308594 39.492188 28.894531 39.90625 28.894531 40.417969 L 28.894531 45.484375 C 28.894531 45.996094 29.308594 46.410156 29.816406 46.410156 L 34.871094 46.410156 C 35.378906 46.410156 35.792969 45.996094 35.792969 45.484375 L 35.792969 40.417969 C 35.792969 39.90625 35.378906 39.492188 34.871094 39.492188 Z M 33.945312 44.554688 L 30.742188 44.554688 L 30.742188 41.34375 L 33.945312 41.34375 Z M 51.378906 40.640625 C 51.378906 41.152344 50.964844 41.566406 50.457031 41.566406 L 38.660156 41.566406 C 38.148438 41.566406 37.734375 41.152344 37.734375 40.640625 C 37.734375 40.128906 38.148438 39.710938 38.660156 39.710938 L 50.457031 39.710938 C 50.964844 39.710938 51.378906 40.128906 51.378906 40.640625 Z M 45.207031 43.695312 C 45.207031 44.207031 44.792969 44.621094 44.28125 44.621094 L 38.660156 44.621094 C 38.148438 44.621094 37.734375 44.207031 37.734375 43.695312 C 37.734375 43.183594 38.148438 42.769531 38.660156 42.769531 L 44.28125 42.769531 C 44.792969 42.769531 45.207031 43.183594 45.207031 43.695312 Z M 45.207031 43.695312 " fill-opacity="1" fill-rule="nonzero"/></g><g clip-path="url(#dbf08077b2)"><path fill="#000000" d="M 34.632812 19.324219 C 34.625 19.324219 34.613281 19.324219 34.601562 19.324219 C 34.597656 19.324219 34.589844 19.328125 34.582031 19.328125 C 34.578125 19.328125 34.570312 19.328125 34.5625 19.328125 C 34.546875 19.332031 34.527344 19.335938 34.507812 19.335938 C 34.492188 19.339844 34.46875 19.34375 34.449219 19.347656 C 34.4375 19.351562 34.425781 19.351562 34.414062 19.355469 L 34.378906 19.363281 L 34.339844 19.371094 C 34.328125 19.375 34.3125 19.378906 34.300781 19.382812 C 34.191406 19.410156 34.0625 19.449219 33.921875 19.503906 C 33.765625 19.558594 33.613281 19.625 33.464844 19.695312 C 33.445312 19.707031 33.425781 19.71875 33.40625 19.726562 C 33.386719 19.738281 33.367188 19.746094 33.347656 19.757812 L 33.269531 19.796875 C 33.265625 19.800781 33.261719 19.804688 33.253906 19.804688 L 33.226562 19.824219 L 33.164062 19.859375 C 33.152344 19.863281 33.144531 19.871094 33.132812 19.875 L 33.101562 19.894531 L 33.042969 19.929688 C 33.03125 19.9375 33.023438 19.941406 33.011719 19.949219 L 32.980469 19.96875 C 32.820312 20.070312 32.660156 20.183594 32.511719 20.300781 C 32.359375 20.421875 32.21875 20.546875 32.089844 20.671875 L 32.0625 20.695312 C 32.054688 20.703125 32.046875 20.710938 32.039062 20.71875 L 31.992188 20.769531 C 31.984375 20.777344 31.976562 20.785156 31.96875 20.792969 L 31.949219 20.816406 L 31.941406 20.820312 L 31.941406 20.824219 L 31.9375 20.824219 L 31.933594 20.828125 C 31.925781 20.832031 31.921875 20.835938 31.917969 20.835938 L 31.914062 20.835938 L 31.914062 20.832031 C 31.914062 20.832031 31.914062 20.828125 31.914062 20.828125 C 31.910156 20.824219 31.910156 20.824219 31.910156 20.820312 C 31.910156 20.816406 31.910156 20.816406 31.90625 20.8125 L 31.90625 20.808594 L 31.902344 20.800781 L 31.761719 20.601562 C 31.683594 20.488281 31.636719 20.421875 31.628906 20.410156 C 31.582031 20.347656 31.457031 20.355469 31.355469 20.433594 C 31.25 20.511719 31.203125 20.625 31.25 20.691406 C 31.257812 20.699219 31.308594 20.765625 31.394531 20.875 L 31.542969 21.066406 L 31.710938 21.285156 L 31.800781 21.40625 L 31.847656 21.464844 L 31.882812 21.511719 L 31.890625 21.519531 C 31.890625 21.523438 31.890625 21.523438 31.894531 21.523438 L 31.894531 21.527344 L 32.035156 21.351562 L 32.074219 21.304688 C 32.085938 21.289062 32.097656 21.273438 32.109375 21.257812 L 32.183594 21.167969 C 32.195312 21.152344 32.207031 21.136719 32.21875 21.125 C 32.222656 21.121094 32.226562 21.117188 32.230469 21.113281 C 32.230469 21.109375 32.234375 21.105469 32.238281 21.101562 L 32.246094 21.09375 L 32.25 21.085938 L 32.269531 21.0625 C 32.277344 21.054688 32.285156 21.046875 32.289062 21.039062 L 32.332031 20.992188 C 32.335938 20.984375 32.34375 20.976562 32.351562 20.96875 L 32.371094 20.945312 C 32.484375 20.820312 32.609375 20.695312 32.742188 20.570312 C 32.875 20.449219 33.011719 20.332031 33.15625 20.222656 L 33.183594 20.199219 C 33.191406 20.195312 33.203125 20.1875 33.210938 20.179688 L 33.292969 20.121094 C 33.300781 20.113281 33.308594 20.109375 33.320312 20.101562 L 33.375 20.0625 L 33.402344 20.046875 C 33.40625 20.042969 33.410156 20.039062 33.414062 20.035156 L 33.429688 20.027344 L 33.484375 19.992188 C 33.5 19.976562 33.519531 19.96875 33.535156 19.957031 L 33.589844 19.921875 C 33.734375 19.832031 33.875 19.75 34 19.683594 C 34.128906 19.613281 34.246094 19.558594 34.347656 19.511719 C 34.359375 19.503906 34.371094 19.5 34.382812 19.492188 L 34.417969 19.476562 L 34.480469 19.445312 C 34.5 19.4375 34.519531 19.425781 34.535156 19.417969 C 34.554688 19.410156 34.570312 19.402344 34.582031 19.394531 C 34.589844 19.390625 34.59375 19.390625 34.601562 19.386719 C 34.609375 19.382812 34.613281 19.378906 34.617188 19.375 C 34.628906 19.371094 34.636719 19.363281 34.644531 19.359375 C 34.65625 19.347656 34.664062 19.339844 34.664062 19.335938 C 34.660156 19.328125 34.652344 19.328125 34.632812 19.324219 Z M 34.632812 19.324219 " fill-opacity="1" fill-rule="nonzero"/></g><g clip-path="url(#b87d3c7cab)"><path fill="#000000" d="M 34.632812 30 C 34.625 30 34.613281 30 34.601562 30 C 34.597656 30 34.589844 30 34.582031 30.003906 C 34.578125 30.003906 34.570312 30.003906 34.5625 30.003906 C 34.546875 30.007812 34.527344 30.007812 34.507812 30.011719 C 34.492188 30.015625 34.46875 30.019531 34.449219 30.023438 C 34.4375 30.027344 34.425781 30.027344 34.414062 30.03125 L 34.378906 30.039062 L 34.339844 30.046875 C 34.328125 30.050781 34.3125 30.054688 34.300781 30.058594 C 34.191406 30.085938 34.0625 30.125 33.921875 30.175781 C 33.765625 30.234375 33.613281 30.300781 33.464844 30.371094 C 33.445312 30.382812 33.425781 30.390625 33.40625 30.402344 C 33.386719 30.414062 33.367188 30.421875 33.347656 30.433594 L 33.269531 30.472656 C 33.265625 30.476562 33.261719 30.480469 33.253906 30.480469 L 33.226562 30.5 L 33.164062 30.53125 C 33.152344 30.539062 33.144531 30.542969 33.132812 30.550781 L 33.101562 30.570312 L 33.042969 30.605469 C 33.03125 30.609375 33.023438 30.617188 33.011719 30.625 L 32.980469 30.644531 C 32.820312 30.746094 32.660156 30.855469 32.511719 30.976562 C 32.359375 31.097656 32.21875 31.222656 32.089844 31.347656 L 32.0625 31.371094 C 32.054688 31.378906 32.046875 31.386719 32.039062 31.394531 L 31.992188 31.441406 C 31.984375 31.449219 31.976562 31.457031 31.96875 31.464844 L 31.949219 31.488281 L 31.941406 31.496094 C 31.941406 31.5 31.941406 31.5 31.941406 31.5 L 31.933594 31.5 C 31.925781 31.507812 31.921875 31.511719 31.917969 31.511719 L 31.914062 31.511719 L 31.914062 31.507812 C 31.914062 31.503906 31.914062 31.503906 31.914062 31.503906 C 31.910156 31.5 31.910156 31.496094 31.910156 31.496094 C 31.910156 31.492188 31.910156 31.492188 31.90625 31.488281 L 31.90625 31.484375 L 31.902344 31.476562 L 31.761719 31.277344 C 31.683594 31.164062 31.636719 31.09375 31.628906 31.085938 C 31.582031 31.023438 31.457031 31.03125 31.355469 31.109375 C 31.25 31.183594 31.203125 31.300781 31.25 31.363281 C 31.257812 31.375 31.308594 31.441406 31.394531 31.546875 L 31.542969 31.742188 L 31.710938 31.960938 L 31.800781 32.082031 L 31.847656 32.140625 L 31.882812 32.1875 L 31.890625 32.195312 C 31.890625 32.195312 31.890625 32.199219 31.894531 32.199219 L 31.894531 32.203125 L 32.035156 32.023438 L 32.074219 31.980469 C 32.085938 31.964844 32.097656 31.949219 32.109375 31.933594 L 32.183594 31.84375 C 32.195312 31.828125 32.207031 31.8125 32.21875 31.796875 C 32.222656 31.796875 32.226562 31.792969 32.230469 31.789062 C 32.230469 31.785156 32.234375 31.78125 32.238281 31.777344 L 32.246094 31.765625 L 32.25 31.761719 L 32.269531 31.738281 C 32.277344 31.730469 32.285156 31.722656 32.289062 31.714844 L 32.332031 31.667969 C 32.335938 31.660156 32.34375 31.652344 32.351562 31.644531 L 32.371094 31.621094 C 32.484375 31.496094 32.609375 31.367188 32.742188 31.246094 C 32.875 31.125 33.011719 31.007812 33.15625 30.898438 L 33.183594 30.875 C 33.191406 30.867188 33.203125 30.863281 33.210938 30.855469 L 33.292969 30.796875 C 33.300781 30.789062 33.308594 30.78125 33.320312 30.777344 L 33.402344 30.71875 C 33.40625 30.71875 33.410156 30.714844 33.414062 30.710938 L 33.429688 30.703125 L 33.484375 30.664062 C 33.5 30.652344 33.519531 30.640625 33.535156 30.628906 L 33.589844 30.597656 C 33.734375 30.503906 33.875 30.425781 34 30.359375 C 34.128906 30.289062 34.246094 30.234375 34.347656 30.183594 C 34.359375 30.179688 34.371094 30.171875 34.382812 30.167969 L 34.417969 30.152344 L 34.480469 30.121094 C 34.5 30.113281 34.519531 30.101562 34.535156 30.09375 C 34.554688 30.085938 34.570312 30.078125 34.582031 30.070312 C 34.589844 30.066406 34.59375 30.0625 34.601562 30.058594 C 34.609375 30.058594 34.613281 30.054688 34.617188 30.050781 C 34.628906 30.046875 34.636719 30.039062 34.644531 30.035156 C 34.65625 30.023438 34.664062 30.015625 34.664062 30.011719 C 34.660156 30.003906 34.652344 30 34.632812 30 Z M 34.632812 30 " fill-opacity="1" fill-rule="nonzero"/></g><g clip-path="url(#de7076998d)"><path fill="#000000" d="M 34.632812 41.824219 C 34.625 41.824219 34.613281 41.824219 34.601562 41.824219 C 34.597656 41.824219 34.589844 41.828125 34.582031 41.828125 C 34.578125 41.828125 34.570312 41.828125 34.5625 41.828125 C 34.546875 41.832031 34.527344 41.835938 34.507812 41.835938 C 34.492188 41.839844 34.46875 41.84375 34.449219 41.847656 C 34.4375 41.851562 34.425781 41.851562 34.414062 41.855469 L 34.378906 41.863281 L 34.339844 41.871094 C 34.328125 41.875 34.3125 41.878906 34.300781 41.882812 C 34.191406 41.910156 34.0625 41.949219 33.921875 42.003906 C 33.765625 42.058594 33.613281 42.125 33.464844 42.195312 C 33.445312 42.207031 33.425781 42.21875 33.40625 42.226562 C 33.386719 42.238281 33.367188 42.246094 33.347656 42.257812 L 33.269531 42.296875 C 33.265625 42.300781 33.261719 42.304688 33.253906 42.304688 L 33.226562 42.324219 L 33.164062 42.359375 C 33.152344 42.363281 33.144531 42.371094 33.132812 42.375 L 33.101562 42.394531 L 33.042969 42.429688 C 33.03125 42.4375 33.023438 42.441406 33.011719 42.449219 L 32.980469 42.46875 C 32.820312 42.570312 32.660156 42.683594 32.511719 42.800781 C 32.359375 42.921875 32.21875 43.046875 32.089844 43.171875 L 32.0625 43.195312 C 32.054688 43.203125 32.046875 43.210938 32.039062 43.21875 L 31.992188 43.269531 C 31.984375 43.277344 31.976562 43.285156 31.96875 43.292969 L 31.949219 43.316406 L 31.941406 43.320312 L 31.941406 43.324219 L 31.9375 43.324219 L 31.933594 43.328125 C 31.925781 43.332031 31.921875 43.335938 31.917969 43.335938 L 31.914062 43.335938 L 31.914062 43.332031 C 31.914062 43.332031 31.914062 43.328125 31.914062 43.328125 C 31.910156 43.324219 31.910156 43.324219 31.910156 43.320312 C 31.910156 43.316406 31.910156 43.316406 31.90625 43.3125 L 31.90625 43.308594 L 31.902344 43.300781 L 31.761719 43.101562 C 31.683594 42.988281 31.636719 42.921875 31.628906 42.910156 C 31.582031 42.847656 31.457031 42.855469 31.355469 42.933594 C 31.25 43.011719 31.203125 43.125 31.25 43.191406 C 31.257812 43.199219 31.308594 43.265625 31.394531 43.375 L 31.542969 43.566406 L 31.710938 43.785156 L 31.800781 43.90625 L 31.847656 43.964844 L 31.882812 44.011719 L 31.890625 44.019531 C 31.890625 44.023438 31.890625 44.023438 31.894531 44.023438 L 31.894531 44.027344 L 32.035156 43.851562 L 32.074219 43.804688 C 32.085938 43.789062 32.097656 43.773438 32.109375 43.757812 L 32.183594 43.667969 C 32.195312 43.652344 32.207031 43.636719 32.21875 43.625 C 32.222656 43.621094 32.226562 43.617188 32.230469 43.613281 C 32.230469 43.609375 32.234375 43.605469 32.238281 43.601562 L 32.246094 43.59375 L 32.25 43.585938 L 32.269531 43.5625 C 32.277344 43.554688 32.285156 43.546875 32.289062 43.539062 L 32.332031 43.492188 C 32.335938 43.484375 32.34375 43.476562 32.351562 43.46875 L 32.371094 43.445312 C 32.484375 43.320312 32.609375 43.195312 32.742188 43.070312 C 32.875 42.949219 33.011719 42.832031 33.15625 42.722656 L 33.183594 42.699219 C 33.191406 42.695312 33.203125 42.6875 33.210938 42.679688 L 33.292969 42.621094 C 33.300781 42.613281 33.308594 42.609375 33.320312 42.601562 L 33.375 42.5625 L 33.402344 42.546875 C 33.40625 42.542969 33.410156 42.539062 33.414062 42.535156 L 33.429688 42.527344 L 33.484375 42.492188 C 33.5 42.476562 33.519531 42.46875 33.535156 42.457031 L 33.589844 42.421875 C 33.734375 42.332031 33.875 42.25 34 42.183594 C 34.128906 42.113281 34.246094 42.058594 34.347656 42.011719 C 34.359375 42.003906 34.371094 42 34.382812 41.992188 L 34.417969 41.976562 L 34.480469 41.945312 C 34.5 41.9375 34.519531 41.925781 34.535156 41.917969 C 34.554688 41.910156 34.570312 41.902344 34.582031 41.894531 C 34.589844 41.890625 34.59375 41.890625 34.601562 41.886719 C 34.609375 41.882812 34.613281 41.878906 34.617188 41.875 C 34.628906 41.871094 34.636719 41.863281 34.644531 41.859375 C 34.65625 41.847656 34.664062 41.839844 34.664062 41.835938 C 34.660156 41.828125 34.652344 41.828125 34.632812 41.824219 Z M 34.632812 41.824219 " fill-opacity="1" fill-rule="nonzero"/></g></svg>