<svg xmlns="http://www.w3.org/2000/svg" xmlns:xlink="http://www.w3.org/1999/xlink" width="80" zoomAndPan="magnify" viewBox="0 0 60 60" height="80" preserveAspectRatio="xMidYMid meet" version="1.0"><defs><clipPath id="a37ca0becf"><path d="M 0.34375 2 L 38 2 L 38 47 L 0.34375 47 Z M 0.34375 2 " clip-rule="nonzero"/></clipPath><clipPath id="06e133f518"><path d="M 0.34375 1 L 39.667969 1 L 39.667969 47.566406 L 0.34375 47.566406 Z M 0.34375 1 " clip-rule="nonzero"/></clipPath><clipPath id="3f8b0c4217"><path d="M 7.652344 9.375 L 32.492188 9.375 L 32.492188 34.210938 L 7.652344 34.210938 Z M 7.652344 9.375 " clip-rule="nonzero"/></clipPath><clipPath id="13a788cb6e"><rect x="0" width="40" y="0" height="48"/></clipPath></defs><rect x="-6" width="72" fill="#ffffff" y="-6" height="72" fill-opacity="1"/><rect x="-6" width="72" fill="#ffffff" y="-6" height="72" fill-opacity="1"/><g transform="matrix(1, 0, 0, 1, 10, 5)"><g clip-path="url(#13a788cb6e)"><path stroke-linecap="butt" transform="matrix(0.0285025, 0, 0, 0.0285025, -2.479618, -0.68799)" fill-opacity="1" fill="#ffff00" fill-rule="evenodd" stroke-linejoin="miter" d="M 790.881698 118.838932 L 796.500719 118.838932 L 820.484348 130.89927 C 836.519116 138.985179 847.208962 144.193053 852.279786 146.65994 C 857.48766 149.263877 874.892921 157.349786 904.906719 171.054716 C 934.783467 184.896696 950.132989 191.749161 951.229383 191.886211 C 952.188729 192.02326 960.137588 195.312443 974.938913 201.75376 C 989.877287 208.058028 1001.252379 212.854754 1009.338288 215.869839 C 1017.287148 218.884923 1028.936339 223.133452 1044.011762 228.341325 C 1059.224235 233.686248 1068.817686 236.975432 1072.792116 238.345925 C 1076.766546 239.716418 1081.83737 241.361009 1087.867539 243.416749 C 1093.760659 245.335439 1101.57247 247.665277 1111.028872 250.406263 C 1120.485274 253.147249 1132.408563 256.573482 1147.072839 260.410862 C 1161.600065 264.248243 1175.716143 267.811525 1189.558123 270.82661 C 1203.263053 273.841694 1212.034209 275.897434 1216.145688 276.71973 C 1220.120118 277.542025 1232.865703 279.871864 1254.245394 283.709244 C 1275.762135 287.683674 1289.192967 290.013512 1294.53789 290.835808 C 1300.019862 291.658104 1313.313644 293.713843 1334.556286 297.140076 C 1355.661879 300.429259 1366.351725 302.073851 1366.625823 302.073851 C 1366.899922 302.073851 1377.315669 303.992541 1397.598966 307.966971 C 1417.882263 311.804351 1428.160961 313.860091 1428.29801 313.99714 L 1428.43506 314.13419 L 1427.201616 376.217524 C 1426.242271 417.606414 1424.186531 471.055643 1420.760299 536.56521 C 1417.334066 602.074777 1414.59308 647.986294 1412.53734 674.025662 C 1410.61865 700.065029 1408.288812 722.541115 1405.684875 741.042771 C 1403.080938 759.681476 1400.202903 777.360837 1396.639621 793.943802 C 1393.213388 810.663818 1389.513057 827.383833 1385.538627 844.377946 C 1381.564198 861.37206 1378.000916 876.173385 1374.848782 888.91897 C 1371.696648 901.664555 1367.996317 915.506535 1363.610739 930.170811 C 1359.36221 944.972135 1356.758274 953.743291 1355.935978 956.895425 C 1355.113682 959.910509 1353.743189 963.74789 1352.098597 968.544616 C 1350.316956 973.204292 1348.398266 979.097412 1346.068428 985.949877 C 1343.73859 992.939392 1340.175308 1002.943991 1335.378582 1015.963675 C 1330.444807 1028.983359 1326.470377 1039.399106 1323.318243 1047.210916 C 1320.166109 1055.022726 1316.328729 1064.342079 1311.806102 1075.168974 C 1307.146426 1085.995869 1301.390355 1099.015553 1294.126742 1114.228026 C 1287.000178 1129.577548 1282.75165 1138.485752 1281.244107 1140.95264 C 1279.873614 1143.419527 1274.665741 1152.601831 1265.620487 1168.225451 C 1256.575232 1183.849072 1251.23031 1193.168425 1249.311619 1196.183509 C 1247.529978 1199.061545 1243.007351 1206.462207 1236.017837 1218.248447 C 1229.028322 1230.034687 1224.505695 1237.572399 1222.312907 1240.724533 C 1220.120118 1243.876667 1216.830934 1248.947491 1212.445357 1255.662907 C 1208.059779 1262.515372 1204.496497 1267.723246 1201.755511 1271.560626 C 1199.014525 1275.260958 1195.862391 1279.783585 1192.299109 1284.854409 C 1188.735827 1289.925233 1185.309594 1294.721959 1182.020411 1298.970487 C 1178.731228 1303.356065 1176.127291 1306.919347 1174.208601 1309.797382 C 1172.42696 1312.812467 1169.685974 1316.512798 1166.122692 1321.035425 C 1162.55941 1325.695101 1159.133177 1330.217729 1155.843994 1334.877405 C 1152.554811 1339.400032 1148.991529 1344.196758 1145.154148 1348.993483 C 1141.179719 1353.927258 1137.890535 1358.038737 1135.286599 1361.46497 C 1132.545612 1365.028252 1126.652492 1371.606618 1117.881337 1381.337119 C 1108.973132 1391.067619 1098.557385 1402.168613 1086.497046 1414.6401 C 1074.573757 1427.111586 1063.883911 1437.801432 1054.838657 1446.709637 C 1045.656354 1455.617842 1039.489135 1461.236863 1036.6111 1463.566701 C 1033.596015 1465.896539 1026.606501 1471.926709 1015.505507 1481.52016 C 1004.541563 1490.976562 997.826147 1496.869682 995.359259 1498.925422 C 992.892372 1500.981161 986.862202 1506.189035 977.4058 1514.411993 C 967.812349 1522.497902 961.508081 1527.842825 958.492997 1530.172663 C 955.477912 1532.502501 952.051679 1535.380536 948.214299 1538.53267 C 944.376918 1541.684804 938.894946 1546.070382 932.042481 1551.689404 C 925.190016 1557.171376 919.982142 1561.282855 916.41886 1563.886792 C 912.855578 1566.627778 909.429346 1568.957616 906.140162 1571.013355 C 902.850979 1573.069095 896.82081 1576.632377 888.049654 1581.84025 C 879.415548 1586.911075 873.659477 1590.474357 870.918491 1592.255998 C 868.177505 1594.037638 865.162421 1595.956329 861.736188 1597.875019 C 858.309955 1599.793709 854.746674 1601.986498 851.046342 1604.590435 C 847.346011 1607.057322 844.605025 1608.838963 842.823384 1609.935358 C 841.178792 1611.031752 837.478461 1612.950442 831.72239 1615.828478 C 825.96632 1618.569464 819.113855 1621.721598 811.164995 1625.421929 C 803.079086 1628.985211 797.460065 1631.315049 794.307931 1632.411444 L 789.648254 1634.056035 L 784.440381 1632.822591 C 781.014148 1632.000296 777.313817 1630.629803 773.339387 1628.711112 C 769.364957 1626.792422 762.649541 1623.366189 753.193139 1618.706513 C 743.736737 1613.909788 738.254765 1611.031752 736.884272 1609.935358 C 735.513779 1608.838963 731.813448 1606.372076 725.920328 1602.671745 C 720.027208 1598.971413 715.64163 1596.093378 712.626545 1594.311737 C 709.611461 1592.530096 703.718341 1589.103864 695.084235 1583.89599 C 686.313079 1578.825166 680.28291 1575.124835 676.993726 1573.069095 C 673.704543 1571.013355 670.278311 1568.683517 666.715029 1565.942531 C 663.151747 1563.338594 659.040268 1560.18646 654.517641 1556.623179 C 649.995014 1553.059897 643.827795 1548.126122 636.290083 1541.821854 C 628.752371 1535.654635 622.174005 1530.172663 616.554983 1525.650036 C 610.935962 1520.990359 602.850053 1514.137894 592.160207 1504.818542 C 581.333312 1495.499189 574.480847 1489.606069 571.465762 1487.276231 C 568.450678 1484.946393 561.872311 1479.327371 551.730663 1470.693265 C 541.589014 1461.92211 535.969993 1456.988335 534.873598 1455.89194 C 533.640155 1454.795546 528.56933 1449.861771 519.524076 1441.090615 C 510.615872 1432.31946 504.311604 1426.015192 500.748322 1422.314861 C 497.18504 1418.61453 489.23618 1410.254522 477.175841 1397.371887 C 464.978453 1384.352204 457.71484 1376.540393 455.247953 1373.525309 C 452.781065 1370.647273 449.217783 1366.398745 444.558107 1360.642674 C 439.761381 1355.023653 436.06105 1350.363976 433.320064 1346.937744 C 430.579078 1343.511511 427.975141 1339.81118 425.234155 1336.110849 C 422.493169 1332.273468 419.615134 1328.436088 416.600049 1324.461658 C 413.584964 1320.350179 410.843978 1316.786897 408.51414 1313.634763 C 406.047253 1310.345579 403.991513 1307.604593 402.209872 1305.000657 C 400.56528 1302.533769 398.235442 1299.244586 395.220358 1295.270156 C 392.205273 1291.295726 389.601336 1287.595395 387.408547 1284.443261 C 385.352808 1281.291127 382.474772 1277.042599 378.91149 1271.971774 C 375.348209 1266.763901 372.607223 1262.789471 370.688532 1259.911436 C 368.906891 1256.896351 365.891807 1252.373724 361.780327 1246.069456 C 357.531799 1239.902237 354.790813 1235.51666 353.557369 1233.186821 C 352.323926 1230.856983 348.760644 1224.826814 342.867524 1215.233363 C 336.974403 1205.776961 333.137023 1199.472693 331.218333 1196.594657 C 329.436692 1193.579573 324.777015 1185.630713 317.376353 1172.611029 C 309.838641 1159.591345 304.356669 1149.723795 300.519289 1143.008379 C 296.818957 1136.430013 293.529774 1130.125745 290.651739 1124.232625 C 287.910753 1118.476554 283.799274 1109.705399 278.728449 1098.056208 C 273.520576 1086.407017 270.916639 1080.376848 270.916639 1080.102749 C 270.916639 1079.82865 268.449752 1073.524382 263.241878 1060.915846 C 258.171054 1048.44436 254.059575 1038.57681 251.181539 1031.450246 C 248.440553 1024.186633 244.329074 1013.222689 239.25825 998.558413 C 234.050376 983.757088 228.979552 968.133468 223.771678 951.413453 C 218.700854 934.830487 212.944783 914.54719 206.640516 890.563562 C 200.336248 866.716983 195.95067 848.900573 193.346733 837.251382 C 190.742796 825.602192 187.179514 808.745127 182.656887 786.54314 C 177.997211 764.341153 175.256225 749.676877 174.433929 742.687363 C 173.611633 735.834898 171.692943 714.592256 168.814908 679.096486 C 166.073922 643.463667 164.155231 616.739053 163.332935 598.648544 C 162.37359 580.558036 161.414245 561.371134 160.317851 541.224886 C 159.084407 520.941589 157.576865 487.775658 155.521125 441.590042 C 153.602435 395.541476 152.50604 362.923742 152.50604 343.736839 L 152.50604 314.956485 L 155.384076 313.585992 C 157.165717 312.626647 162.236541 311.393204 170.596549 310.02271 C 178.819507 308.652217 190.331648 306.733527 204.858875 304.540738 C 219.52315 302.347949 241.725137 298.784668 271.464836 293.713843 C 301.204535 288.780068 322.447177 285.079737 335.329812 282.886948 C 348.212446 280.694159 365.20656 277.267927 386.449202 272.471201 C 407.554795 267.811525 425.919402 263.288898 441.268924 259.177419 C 456.755495 255.06594 470.049278 251.09151 481.150271 247.528228 C 492.388314 243.964946 501.02242 241.086911 507.326688 239.16822 C 513.630956 237.24953 519.661126 235.33084 525.417196 233.41215 C 531.036218 231.35641 542.548359 227.244931 559.679522 220.803614 C 576.810685 214.499346 592.982503 208.058028 607.920877 201.479662 C 622.996301 194.901295 630.94516 191.612112 632.041555 191.475063 C 633.0009 191.338013 640.264513 188.185879 653.695345 182.15571 C 667.126177 175.988491 679.323565 170.506519 690.15046 165.435695 C 700.977355 160.50192 711.6672 155.431096 722.357046 150.497321 C 732.909842 145.426497 746.066576 138.985179 761.827245 130.89927 L 785.399726 118.838932 Z M 790.881698 118.838932 " stroke="#000000" stroke-width="2" stroke-opacity="1" stroke-miterlimit="4"/><path fill="#ffff00" d="M 19.449219 3.101562 L 19.609375 3.101562 L 20.292969 3.445312 C 20.75 3.675781 21.050781 3.824219 21.195312 3.898438 C 21.34375 3.96875 21.84375 4.199219 22.695312 4.589844 C 23.546875 4.984375 23.988281 5.179688 24.015625 5.183594 C 24.042969 5.1875 24.269531 5.28125 24.695312 5.464844 C 25.117188 5.644531 25.445312 5.78125 25.671875 5.867188 C 25.902344 5.953125 26.230469 6.074219 26.664062 6.222656 C 27.09375 6.375 27.367188 6.46875 27.480469 6.507812 C 27.597656 6.546875 27.738281 6.597656 27.910156 6.652344 C 28.082031 6.707031 28.300781 6.773438 28.570312 6.851562 C 28.839844 6.933594 29.183594 7.027344 29.597656 7.136719 C 30.011719 7.25 30.417969 7.347656 30.808594 7.433594 C 31.199219 7.523438 31.453125 7.578125 31.566406 7.601562 C 31.679688 7.625 32.042969 7.691406 32.65625 7.804688 C 33.265625 7.914062 33.648438 7.980469 33.804688 8.003906 C 33.960938 8.027344 34.339844 8.089844 34.941406 8.183594 C 35.542969 8.277344 35.851562 8.324219 35.859375 8.324219 C 35.867188 8.324219 36.160156 8.378906 36.738281 8.492188 C 37.316406 8.601562 37.609375 8.660156 37.613281 8.664062 L 37.621094 8.667969 L 37.582031 10.4375 C 37.558594 11.617188 37.496094 13.140625 37.398438 15.007812 C 37.300781 16.878906 37.222656 18.183594 37.167969 18.925781 C 37.109375 19.671875 37.042969 20.308594 36.972656 20.839844 C 36.898438 21.367188 36.8125 21.871094 36.714844 22.347656 C 36.617188 22.820312 36.511719 23.300781 36.398438 23.78125 C 36.28125 24.265625 36.179688 24.6875 36.089844 25.050781 C 36 25.417969 35.894531 25.808594 35.773438 26.226562 C 35.652344 26.648438 35.578125 26.902344 35.554688 26.988281 C 35.527344 27.074219 35.492188 27.1875 35.441406 27.320312 C 35.394531 27.453125 35.335938 27.621094 35.273438 27.820312 C 35.207031 28.015625 35.105469 28.300781 34.964844 28.671875 C 34.828125 29.046875 34.714844 29.34375 34.625 29.5625 C 34.535156 29.785156 34.421875 30.050781 34.292969 30.359375 C 34.164062 30.667969 33.996094 31.039062 33.792969 31.476562 C 33.589844 31.910156 33.464844 32.164062 33.425781 32.234375 C 33.382812 32.304688 33.234375 32.566406 32.980469 33.011719 C 32.722656 33.460938 32.566406 33.726562 32.515625 33.808594 C 32.460938 33.890625 32.335938 34.101562 32.136719 34.4375 C 31.933594 34.773438 31.804688 34.988281 31.742188 35.078125 C 31.683594 35.167969 31.589844 35.3125 31.460938 35.507812 C 31.335938 35.699219 31.234375 35.851562 31.15625 35.957031 C 31.078125 36.0625 30.988281 36.191406 30.886719 36.335938 C 30.785156 36.484375 30.6875 36.617188 30.59375 36.742188 C 30.5 36.863281 30.425781 36.964844 30.375 37.050781 C 30.320312 37.132812 30.242188 37.238281 30.140625 37.371094 C 30.039062 37.5 29.941406 37.632812 29.847656 37.761719 C 29.753906 37.890625 29.652344 38.027344 29.542969 38.164062 C 29.433594 38.304688 29.339844 38.421875 29.261719 38.519531 C 29.183594 38.621094 29.019531 38.808594 28.765625 39.085938 C 28.511719 39.363281 28.214844 39.679688 27.875 40.035156 C 27.53125 40.390625 27.230469 40.695312 26.96875 40.949219 C 26.707031 41.203125 26.535156 41.363281 26.449219 41.429688 C 26.363281 41.496094 26.164062 41.667969 25.851562 41.941406 C 25.535156 42.214844 25.34375 42.378906 25.273438 42.4375 C 25.207031 42.5 25.035156 42.644531 24.761719 42.878906 C 24.488281 43.113281 24.308594 43.261719 24.222656 43.328125 C 24.136719 43.398438 24.039062 43.476562 23.929688 43.566406 C 23.820312 43.65625 23.667969 43.78125 23.472656 43.941406 C 23.277344 44.097656 23.128906 44.214844 23.023438 44.292969 C 22.921875 44.367188 22.824219 44.433594 22.730469 44.492188 C 22.636719 44.550781 22.46875 44.65625 22.21875 44.800781 C 21.96875 44.949219 21.804688 45.046875 21.730469 45.097656 C 21.652344 45.148438 21.5625 45.203125 21.464844 45.257812 C 21.367188 45.3125 21.265625 45.378906 21.160156 45.449219 C 21.054688 45.519531 20.976562 45.570312 20.929688 45.601562 C 20.878906 45.632812 20.773438 45.691406 20.609375 45.769531 C 20.445312 45.847656 20.25 45.9375 20.023438 46.042969 C 19.796875 46.144531 19.636719 46.210938 19.546875 46.242188 L 19.410156 46.292969 L 19.265625 46.257812 C 19.167969 46.230469 19.0625 46.191406 18.945312 46.136719 C 18.832031 46.082031 18.640625 45.988281 18.371094 45.851562 C 18.101562 45.71875 17.949219 45.632812 17.90625 45.601562 C 17.867188 45.570312 17.761719 45.503906 17.597656 45.394531 C 17.429688 45.289062 17.300781 45.210938 17.21875 45.15625 C 17.132812 45.105469 16.964844 45.007812 16.714844 44.859375 C 16.46875 44.714844 16.296875 44.613281 16.203125 44.550781 C 16.109375 44.492188 16.011719 44.425781 15.910156 44.351562 C 15.804688 44.273438 15.691406 44.1875 15.558594 44.082031 C 15.429688 43.980469 15.257812 43.839844 15.039062 43.660156 C 14.824219 43.484375 14.636719 43.328125 14.476562 43.199219 C 14.320312 43.066406 14.085938 42.871094 13.78125 42.605469 C 13.476562 42.339844 13.28125 42.175781 13.195312 42.105469 C 13.109375 42.039062 12.921875 41.882812 12.632812 41.632812 C 12.34375 41.382812 12.179688 41.242188 12.148438 41.210938 C 12.117188 41.179688 11.972656 41.039062 11.714844 40.789062 C 11.457031 40.539062 11.277344 40.363281 11.175781 40.253906 C 11.074219 40.148438 10.851562 39.910156 10.503906 39.542969 C 10.15625 39.175781 9.949219 38.949219 9.878906 38.867188 C 9.8125 38.78125 9.707031 38.660156 9.574219 38.496094 C 9.441406 38.335938 9.332031 38.203125 9.257812 38.105469 C 9.179688 38.007812 9.101562 37.902344 9.023438 37.796875 C 8.945312 37.691406 8.863281 37.578125 8.78125 37.464844 C 8.695312 37.351562 8.617188 37.246094 8.546875 37.15625 C 8.476562 37.066406 8.417969 36.984375 8.371094 36.914062 C 8.320312 36.839844 8.253906 36.75 8.167969 36.632812 C 8.082031 36.519531 8.007812 36.417969 7.949219 36.324219 C 7.886719 36.234375 7.804688 36.117188 7.703125 35.96875 C 7.601562 35.824219 7.523438 35.707031 7.472656 35.625 C 7.417969 35.542969 7.332031 35.410156 7.214844 35.234375 C 7.097656 35.054688 7.019531 34.933594 6.980469 34.863281 C 6.945312 34.796875 6.84375 34.628906 6.675781 34.355469 C 6.507812 34.082031 6.398438 33.902344 6.347656 33.820312 C 6.292969 33.738281 6.160156 33.507812 5.949219 33.136719 C 5.738281 32.765625 5.578125 32.484375 5.472656 32.292969 C 5.367188 32.105469 5.273438 31.925781 5.191406 31.761719 C 5.109375 31.59375 4.996094 31.34375 4.847656 31.011719 C 4.703125 30.679688 4.628906 30.511719 4.628906 30.5 C 4.628906 30.492188 4.554688 30.3125 4.40625 29.957031 C 4.261719 29.601562 4.148438 29.320312 4.066406 29.113281 C 3.984375 28.90625 3.871094 28.59375 3.722656 28.175781 C 3.578125 27.753906 3.429688 27.308594 3.285156 26.832031 C 3.136719 26.359375 2.972656 25.78125 2.792969 25.101562 C 2.613281 24.417969 2.488281 23.914062 2.414062 23.582031 C 2.339844 23.25 2.238281 22.765625 2.109375 22.132812 C 1.980469 21.5 1.902344 21.082031 1.878906 20.886719 C 1.851562 20.6875 1.800781 20.082031 1.71875 19.070312 C 1.636719 18.054688 1.582031 17.292969 1.558594 16.777344 C 1.535156 16.261719 1.507812 15.71875 1.472656 15.140625 C 1.441406 14.5625 1.394531 13.617188 1.339844 12.300781 C 1.28125 10.988281 1.253906 10.058594 1.253906 9.511719 L 1.253906 8.691406 L 1.332031 8.652344 C 1.386719 8.625 1.53125 8.589844 1.765625 8.550781 C 2.003906 8.511719 2.328125 8.460938 2.746094 8.398438 C 3.160156 8.332031 3.792969 8.230469 4.640625 8.085938 C 5.488281 7.945312 6.09375 7.84375 6.460938 7.777344 C 6.828125 7.714844 7.3125 7.617188 7.917969 7.480469 C 8.519531 7.347656 9.042969 7.222656 9.484375 7.101562 C 9.921875 6.984375 10.300781 6.871094 10.621094 6.769531 C 10.9375 6.667969 11.1875 6.589844 11.367188 6.53125 C 11.546875 6.476562 11.714844 6.421875 11.878906 6.367188 C 12.042969 6.3125 12.367188 6.191406 12.859375 6.011719 C 13.347656 5.828125 13.804688 5.644531 14.234375 5.457031 C 14.660156 5.273438 14.890625 5.175781 14.917969 5.171875 C 14.945312 5.167969 15.152344 5.082031 15.535156 4.90625 C 15.917969 4.730469 16.265625 4.574219 16.574219 4.429688 C 16.886719 4.289062 17.191406 4.144531 17.492188 4.003906 C 17.792969 3.863281 18.167969 3.675781 18.617188 3.445312 L 19.289062 3.101562 Z M 19.449219 3.101562 " fill-opacity="1" fill-rule="evenodd"/><g clip-path="url(#a37ca0becf)"><path stroke-linecap="butt" transform="matrix(0.0285025, 0, 0, 0.0285025, -2.479618, -0.68799)" fill="none" stroke-linejoin="miter" d="M 769.364957 132.95501 L 774.983979 132.95501 L 798.967607 145.015349 C 815.002375 153.101258 825.555172 158.309131 830.625996 160.913068 C 835.83387 163.379955 853.37618 171.465864 883.252929 185.170795 C 913.129677 199.012774 928.616248 205.86524 929.575593 206.002289 C 930.534939 206.139338 938.483798 209.428521 953.422172 215.869839 C 968.223497 222.174107 979.735639 226.970832 987.684498 229.985917 C 995.770407 233.001002 1007.282549 237.24953 1022.495021 242.457404 C 1037.570445 247.802327 1047.163896 251.09151 1051.138326 252.462003 C 1055.249805 253.832496 1060.18358 255.614137 1066.213749 257.532827 C 1072.243919 259.451517 1079.91868 261.781356 1089.375082 264.522342 C 1098.831484 267.400377 1110.891822 270.68956 1125.419049 274.526941 C 1139.946275 278.501371 1154.199402 281.927603 1167.904333 284.942688 C 1181.609263 288.094822 1190.517468 290.013512 1194.491898 290.835808 C 1198.466328 291.658104 1211.211913 293.987942 1232.728654 297.962372 C 1254.108345 301.799752 1267.539177 304.12959 1273.021149 304.951886 C 1278.503121 305.774182 1291.796904 307.966971 1312.902496 311.256154 C 1334.008089 314.545338 1344.834984 316.189929 1345.109083 316.189929 C 1345.383181 316.189929 1355.661879 318.108619 1375.945176 322.083049 C 1396.228473 325.92043 1406.507171 327.976169 1406.64422 328.113219 L 1406.918319 328.250268 L 1405.547826 390.333603 C 1404.72553 431.722492 1402.532741 485.171721 1399.106508 550.681288 C 1395.680276 616.327905 1392.93929 662.102372 1391.0206 688.14174 C 1388.96486 714.318157 1386.635022 736.657193 1384.168134 755.295899 C 1381.564198 773.797555 1378.549113 791.476915 1375.12288 808.19693 C 1371.696648 824.779896 1367.996317 841.63696 1364.021887 858.494025 C 1359.910408 875.488138 1356.347126 890.289463 1353.194992 903.035048 C 1350.042858 915.917683 1346.342527 929.622613 1342.093998 944.286889 C 1337.84547 959.088214 1335.241533 967.996418 1334.419237 971.011503 C 1333.459892 974.026588 1332.226448 978.001018 1330.444807 982.660694 C 1328.800216 987.32037 1326.744476 993.21349 1324.551687 1000.203005 C 1322.221849 1007.05547 1318.658567 1017.060069 1313.724792 1030.079753 C 1308.928067 1043.236486 1304.953637 1053.652233 1301.801503 1061.326994 C 1298.649369 1069.138805 1294.674939 1078.458157 1290.152312 1089.285052 C 1285.629685 1100.111947 1279.736565 1113.131631 1272.610001 1128.481153 C 1265.483437 1143.693626 1261.097859 1152.601831 1259.727366 1155.068718 C 1258.219824 1157.535606 1253.011951 1166.717909 1244.103746 1182.34153 C 1235.058492 1198.1022 1229.57652 1207.421552 1227.794879 1210.299588 C 1225.876188 1213.177623 1221.490611 1220.578285 1214.501096 1232.364526 C 1207.374532 1244.150766 1202.851905 1251.688477 1200.659116 1254.840611 C 1198.603377 1257.992745 1195.314194 1263.06357 1190.791567 1269.916035 C 1186.405989 1276.631451 1182.842707 1281.976374 1180.101721 1285.676705 C 1177.360735 1289.377036 1174.208601 1293.899663 1170.645319 1298.970487 C 1167.082037 1304.178361 1163.655804 1308.838037 1160.366621 1313.223615 C 1157.077438 1317.472143 1154.473501 1321.035425 1152.69186 1324.05051 C 1150.77317 1326.928545 1148.032184 1330.628876 1144.468902 1335.288553 C 1140.90562 1339.81118 1137.479387 1344.470856 1134.190204 1348.993483 C 1130.901021 1353.51611 1127.337739 1358.312836 1123.500358 1363.109561 C 1119.662978 1368.043336 1116.373795 1372.154815 1113.632809 1375.581048 C 1110.891822 1379.14433 1105.135752 1385.722697 1096.227547 1395.453197 C 1087.319342 1405.183698 1076.903595 1416.284691 1064.980306 1428.756178 C 1052.919967 1441.227665 1042.367171 1451.91751 1033.184867 1460.825715 C 1024.002564 1469.73392 1017.972394 1475.352941 1014.95731 1477.682779 C 1011.942225 1480.012618 1004.952711 1486.042787 993.988766 1495.636238 C 982.887773 1505.22969 976.172357 1510.98576 973.705469 1513.0415 C 971.375631 1515.234289 965.345462 1520.305113 955.75201 1528.528071 C 946.158559 1536.751029 939.854291 1541.958903 936.839207 1544.288741 C 933.824122 1546.755629 930.397889 1549.496615 926.560509 1552.648749 C 922.723128 1555.800883 917.378205 1560.18646 910.52574 1565.805482 C 903.673275 1571.287454 898.465401 1575.398933 894.76507 1578.139919 C 891.201788 1580.743856 887.775556 1583.073694 884.486372 1585.129434 C 881.197189 1587.185173 875.304069 1590.885504 866.532914 1595.956329 C 857.761758 1601.164202 852.005687 1604.590435 849.401751 1606.372076 C 846.660765 1608.153717 843.508631 1610.072407 840.082398 1611.991097 C 836.656165 1613.909788 833.092884 1616.239626 829.392552 1618.706513 C 825.692221 1621.173401 822.951235 1622.955042 821.306643 1624.051436 C 819.525002 1625.14783 815.824671 1627.20357 810.0686 1629.944556 C 804.31253 1632.685542 797.460065 1635.837676 789.511205 1639.538007 C 781.562345 1643.101289 775.943324 1645.431127 772.79119 1646.527522 L 767.994464 1648.309163 L 762.92364 1647.075719 C 759.497407 1646.116374 755.797076 1644.745881 751.685597 1642.827191 C 747.711167 1640.9085 740.995751 1637.619317 731.539349 1632.822591 C 722.082947 1628.162915 716.738025 1625.14783 715.230482 1624.051436 C 713.859989 1622.955042 710.159658 1620.625203 704.403587 1616.787823 C 698.510467 1613.087492 693.98784 1610.346506 691.109805 1608.427815 C 688.09472 1606.646174 682.2016 1603.219942 673.430445 1598.012068 C 664.796338 1592.941244 658.766169 1589.377962 655.476986 1587.185173 C 652.187802 1585.129434 648.76157 1582.799596 645.198288 1580.195659 C 641.497957 1577.454673 637.523527 1574.439588 632.863851 1570.739257 C 628.341224 1567.175975 622.311054 1562.2422 614.636293 1555.937932 C 607.098581 1549.770713 600.520215 1544.288741 594.901193 1539.766114 C 589.419221 1535.106438 581.196263 1528.253973 570.506417 1518.93462 C 559.816572 1509.615267 552.964106 1503.859197 549.949022 1501.392309 C 546.933937 1499.062471 540.35557 1493.580499 530.213922 1484.809343 C 520.072273 1476.038188 514.316203 1471.104413 513.219808 1470.008018 C 512.123414 1468.911624 507.05259 1463.977849 498.007336 1455.206694 C 488.962081 1446.435538 482.657814 1440.26832 479.094532 1436.430939 C 475.53125 1432.730608 467.719439 1424.3706 455.522051 1411.487966 C 443.324663 1398.605331 436.06105 1390.656472 433.594163 1387.778436 C 431.264325 1384.763351 427.563993 1380.514823 422.904317 1374.758752 C 418.244641 1369.139731 414.40726 1364.480054 411.803323 1361.053822 C 409.062337 1357.627589 406.321351 1353.927258 403.580365 1350.226927 C 400.839379 1346.526596 397.961344 1342.552166 395.083308 1338.577736 C 392.068224 1334.603306 389.327238 1330.902975 386.86035 1327.750841 C 384.393463 1324.598707 382.337723 1321.720672 380.693131 1319.253784 C 378.91149 1316.649847 376.581652 1313.497713 373.566568 1309.386234 C 370.551483 1305.411805 367.947546 1301.848523 365.891807 1298.559339 C 363.699018 1295.407205 360.820982 1291.295726 357.2577 1286.087853 C 353.694419 1281.017028 350.953432 1276.905549 349.171792 1274.027514 C 347.253101 1271.149479 344.238017 1266.489802 340.126537 1260.322584 C 336.015058 1254.018316 333.274072 1249.769787 331.903579 1247.3029 C 330.670136 1244.973062 327.106854 1239.079941 321.213734 1229.48649 C 315.320613 1219.893039 311.483233 1213.588771 309.701592 1210.710736 C 307.782902 1207.8327 303.123225 1199.746791 295.722563 1186.727107 C 288.321901 1173.707423 282.702879 1163.839874 279.002548 1157.124458 C 275.302217 1150.546091 272.013033 1144.241823 269.134998 1138.485752 C 266.256963 1132.592632 262.282533 1123.821477 257.074659 1112.172286 C 252.003835 1100.523095 249.399898 1094.629975 249.399898 1094.218827 C 249.399898 1093.944729 246.795962 1087.640461 241.588088 1075.168974 C 236.517264 1062.697487 232.542834 1052.829937 229.664799 1045.566324 C 226.786763 1038.302711 222.812333 1027.338767 217.60446 1012.674491 C 212.533636 997.873167 207.325762 982.249546 202.254938 965.529531 C 197.047064 948.946565 191.290993 928.663268 184.986726 904.816689 C 178.682458 880.833061 174.29688 863.153701 171.692943 851.50451 C 169.089006 839.855319 165.525724 822.861206 161.003097 800.659218 C 156.48047 778.457231 153.739484 763.792956 152.917188 756.94049 C 151.957843 749.950976 150.176202 728.708334 147.298167 693.212564 C 144.420132 657.579745 142.501441 630.855131 141.679145 612.764623 C 140.85685 594.674115 139.897505 575.624261 138.664061 555.340964 C 137.567666 535.057667 135.923075 501.891736 134.004384 455.706121 C 131.948645 409.657554 130.9893 377.03982 130.9893 357.852918 L 130.9893 329.072564 L 133.730286 327.702071 C 135.648976 326.742726 140.7198 325.509282 148.942759 324.138789 C 157.302766 322.768296 168.677858 320.986655 183.342134 318.793866 C 197.86936 316.464028 220.071347 312.900746 249.811046 307.829922 C 279.550745 302.896147 300.793387 299.332865 313.676022 297.003027 C 326.558656 294.810238 343.55277 291.384005 364.795412 286.58728 C 385.901005 281.927603 404.265612 277.542025 419.752183 273.293497 C 435.101705 269.182018 448.395488 265.207588 459.63353 261.644306 C 470.734524 258.081024 479.50568 255.340038 485.809948 253.284299 C 492.114215 251.365608 498.007336 249.446918 503.763406 247.528228 C 509.519477 245.609538 520.894569 241.361009 538.162782 235.056741 C 555.293945 228.615424 571.328713 222.174107 586.404137 215.59574 C 601.342511 209.154423 609.42842 205.72819 610.387765 205.591141 C 611.34711 205.454092 618.610723 202.439007 632.041555 196.271788 C 645.472387 190.10457 657.669775 184.622597 668.49667 179.551773 C 679.460614 174.617998 690.15046 169.547174 700.703256 164.613399 C 711.256052 159.679624 724.412786 153.101258 740.173455 145.015349 L 763.745936 132.95501 Z M 769.364957 132.95501 " stroke="#000000" stroke-width="2" stroke-opacity="1" stroke-miterlimit="4"/></g><g clip-path="url(#06e133f518)"><path stroke-linecap="butt" transform="matrix(0.0285025, 0, 0, 0.0285025, -2.479618, -0.68799)" fill-opacity="1" fill="#000000" fill-rule="evenodd" stroke-linejoin="miter" d="M 788.963008 60.592977 L 794.993177 60.592977 L 821.032545 73.612661 C 838.300757 82.383817 849.675849 88.002838 855.294871 90.743824 C 860.776843 93.48481 879.689647 102.255966 911.896233 117.057291 C 944.239869 131.858615 960.822835 139.396327 961.919229 139.533376 C 963.015624 139.670426 971.64973 143.233708 987.684498 150.086173 C 1003.719267 156.938638 1016.053704 162.009462 1024.68781 165.298646 C 1033.321916 168.724878 1045.793403 173.110456 1062.23932 178.866527 C 1078.548187 184.485548 1088.963934 188.185879 1093.212462 189.693422 C 1097.59804 191.200964 1102.942963 192.982605 1109.38428 195.038345 C 1115.962647 197.094084 1124.322654 199.698021 1134.464303 202.713106 C 1144.605951 205.72819 1157.625635 209.291472 1173.386305 213.402951 C 1189.146975 217.65148 1204.359448 221.351811 1219.160773 224.778043 C 1233.962097 228.067227 1243.555549 230.122966 1247.941126 230.945262 C 1252.189655 231.904607 1265.894585 234.508544 1289.055917 238.620023 C 1312.21725 242.868552 1326.744476 245.335439 1332.637596 246.294784 C 1338.530716 247.254129 1352.783844 249.446918 1375.671078 253.0102 C 1398.558311 256.573482 1410.070453 258.492172 1410.481601 258.492172 C 1410.755699 258.492172 1421.856693 260.547912 1443.784582 264.659391 C 1465.71247 268.907919 1476.676414 271.100708 1476.813464 271.237757 L 1477.087562 271.511856 L 1475.717069 338.391916 C 1474.757724 383.069989 1472.427886 440.767746 1468.727555 511.485187 C 1465.027224 582.339677 1462.149188 631.677427 1459.956399 659.909583 C 1457.763611 688.14174 1455.296723 712.262417 1452.555737 732.271616 C 1449.814751 752.417863 1446.525568 771.467717 1442.825236 789.421175 C 1439.124905 807.374634 1435.150475 825.465142 1430.764898 843.829749 C 1426.516369 862.057306 1422.541939 878.092075 1419.252756 891.934055 C 1415.826524 905.638985 1411.852094 920.577359 1407.192417 936.338029 C 1402.532741 952.235748 1399.791755 961.8292 1398.83241 965.118383 C 1397.873065 968.407566 1396.502572 972.656095 1394.720931 977.726919 C 1392.802241 982.797743 1390.609452 989.102011 1388.142564 996.639723 C 1385.675677 1004.177435 1381.838296 1014.86728 1376.630423 1028.983359 C 1371.422549 1043.099437 1367.036971 1054.33748 1363.610739 1062.697487 C 1360.321556 1071.057495 1356.073027 1081.199143 1351.139252 1092.848334 C 1346.205477 1104.497525 1339.901209 1118.613603 1332.226448 1135.05952 C 1324.414638 1151.642486 1319.754962 1161.235937 1318.247419 1163.839874 C 1316.739877 1166.58086 1311.120855 1176.44841 1301.390355 1193.305474 C 1291.659854 1210.299588 1285.766734 1220.304187 1283.710995 1223.456321 C 1281.792304 1226.608455 1276.995579 1234.557314 1269.457867 1247.3029 C 1261.920155 1260.048485 1256.98638 1268.134394 1254.656542 1271.560626 C 1252.326704 1274.986859 1248.763422 1280.468831 1243.966697 1287.732444 C 1239.169971 1295.133107 1235.33259 1300.752128 1232.317506 1304.863607 C 1229.43947 1308.838037 1226.013238 1313.634763 1222.175857 1319.253784 C 1218.338477 1324.735756 1214.638145 1329.806581 1211.074864 1334.466257 C 1207.511582 1339.125933 1204.770596 1343.100363 1202.714856 1346.252497 C 1200.796166 1349.404631 1197.781081 1353.379061 1193.943701 1358.312836 C 1190.10632 1363.246611 1186.405989 1368.180386 1182.842707 1373.114161 C 1179.279425 1378.047936 1175.442045 1383.255809 1171.193516 1388.463683 C 1167.082037 1393.671556 1163.518755 1398.194183 1160.64072 1401.894514 C 1157.625635 1405.731895 1151.458416 1412.858459 1141.864965 1423.274206 C 1132.271514 1433.827002 1121.033471 1445.750292 1108.013787 1459.318173 C 1095.131153 1472.749005 1083.619011 1484.261146 1073.751461 1493.854597 C 1063.883911 1503.448049 1057.305545 1509.478218 1054.153411 1512.082155 C 1050.864227 1514.686092 1043.326516 1521.127409 1031.403226 1531.406107 C 1019.479937 1541.821854 1012.216324 1548.126122 1009.612387 1550.318911 C 1007.00845 1552.511699 1000.567133 1558.130721 990.151386 1566.901876 C 979.872688 1575.810081 973.020223 1581.429103 969.868089 1584.033039 C 966.578905 1586.636976 962.878574 1589.515011 958.767095 1593.078293 C 954.518567 1596.504526 948.762496 1601.164202 941.361834 1607.194372 C 933.961171 1613.224541 928.34215 1617.610119 924.504769 1620.488154 C 920.530339 1623.22914 916.830008 1625.833077 913.403776 1628.025866 C 909.840494 1630.355704 903.262127 1634.193084 893.942774 1639.812106 C 884.486372 1645.294078 878.319154 1649.131459 875.441118 1651.050149 C 872.426034 1652.968839 869.13685 1655.024579 865.436519 1657.080318 C 861.736188 1659.136058 857.898808 1661.602945 853.787328 1664.343931 C 849.812899 1666.947868 846.934863 1668.866558 845.016173 1670.100002 C 843.234532 1671.333446 839.123053 1673.389185 832.955834 1676.40427 C 826.788616 1679.419355 819.387953 1682.845587 810.753847 1686.820017 C 802.119741 1690.657398 796.089571 1693.261334 792.663339 1694.357729 L 787.592515 1696.13937 L 782.110542 1694.905926 C 778.410211 1693.946581 774.298732 1692.439039 770.050204 1690.383299 C 765.664626 1688.19051 758.401013 1684.627228 748.259364 1679.556404 C 738.117716 1674.48558 732.224596 1671.333446 730.717054 1670.100002 C 729.072462 1668.866558 725.235081 1666.262622 718.930813 1662.288192 C 712.489496 1658.176713 707.69277 1655.161628 704.540636 1653.242938 C 701.251453 1651.324247 694.947185 1647.623916 685.490783 1642.004895 C 676.171431 1636.522923 669.593064 1632.548493 666.029782 1630.355704 C 662.4665 1628.025866 658.766169 1625.558978 654.928788 1622.680943 C 651.091408 1619.802908 646.70583 1616.513724 641.772055 1612.539294 C 636.83828 1608.701914 630.259914 1603.356991 622.036956 1596.641575 C 613.951047 1589.926159 606.824483 1584.033039 600.794313 1579.099264 C 594.764144 1574.165489 585.992989 1566.627778 574.343798 1556.623179 C 562.831656 1546.618579 555.430994 1540.314311 552.141811 1537.710375 C 548.989677 1535.106438 541.863113 1529.213318 530.899168 1519.756916 C 519.935224 1510.300514 513.768005 1504.955591 512.534562 1503.722147 C 511.301118 1502.625753 505.819146 1497.28083 496.088645 1487.824428 C 486.358145 1478.368026 479.642729 1471.65261 475.805348 1467.541131 C 471.967968 1463.566701 463.470911 1454.521447 450.314178 1440.542418 C 437.157445 1426.700438 429.345634 1418.066332 426.741698 1414.914198 C 424.000711 1411.899114 420.163331 1407.239437 415.092507 1401.072219 C 410.021682 1394.905 406.047253 1389.971225 403.032168 1386.270894 C 400.154133 1382.433513 397.276097 1378.596133 394.261013 1374.484654 C 391.382977 1370.510224 388.230843 1366.261695 385.078709 1361.876118 C 381.789526 1357.627589 378.774441 1353.653159 376.170504 1350.226927 C 373.566568 1346.800694 371.373779 1343.78561 369.455089 1341.044624 C 367.673448 1338.303637 365.069511 1334.740356 361.917377 1330.491827 C 358.628194 1326.106249 355.887207 1322.268869 353.557369 1318.705587 C 351.227531 1315.279354 348.075397 1310.893777 344.238017 1305.274755 C 340.400636 1299.792783 337.522601 1295.407205 335.466861 1292.255071 C 333.411122 1289.102937 330.258988 1284.169162 325.736361 1277.453747 C 321.213734 1270.601281 318.335698 1266.078654 316.965205 1263.474718 C 315.594712 1260.870781 311.757332 1254.429463 305.316014 1244.150766 C 299.011746 1233.735019 294.900267 1227.019603 292.844528 1223.867469 C 290.925837 1220.715335 285.855013 1212.081229 277.769104 1198.1022 C 269.820245 1183.986121 263.790075 1173.296276 259.815645 1166.169712 C 255.704166 1158.906099 252.140884 1152.190683 249.1258 1145.886415 C 245.973666 1139.582147 241.725137 1130.125745 236.106116 1117.517209 C 230.624144 1105.045722 227.883158 1098.604405 227.883158 1098.193257 C 227.883158 1097.919158 225.005122 1091.066693 219.52315 1077.635861 C 213.904129 1064.06798 209.6556 1053.378135 206.503466 1045.703374 C 203.488382 1037.891563 199.102804 1025.968274 193.483782 1010.070555 C 188.00181 994.309885 182.382789 977.315771 176.900817 959.362312 C 171.281795 941.408853 165.114576 919.480965 158.399161 893.715696 C 151.546695 867.950427 146.74997 848.763524 144.008984 836.154988 C 141.267998 823.546452 137.430617 805.318895 132.496842 781.335267 C 127.426018 757.351638 124.547982 741.590968 123.588637 734.053257 C 122.766342 726.652594 120.710602 703.628311 117.558468 665.254506 C 114.543383 626.880701 112.487644 597.963298 111.528299 578.502297 C 110.706003 559.041296 109.609608 538.346851 108.376165 516.418962 C 107.142721 494.628123 105.36108 458.858254 103.30534 408.972308 C 101.112552 359.223411 100.016157 324.001739 100.016157 303.444344 L 100.016157 272.334152 L 103.031242 270.82661 C 105.086981 269.730215 110.568954 268.496771 119.477158 266.989229 C 128.385363 265.481687 140.7198 263.562996 156.48047 261.096109 C 172.24114 258.766271 196.224768 254.791841 228.294306 249.446918 C 260.363843 244.101995 283.388126 240.127566 297.230105 237.797727 C 311.209134 235.33084 329.573741 231.630509 352.323926 226.559684 C 375.211159 221.351811 394.946259 216.555085 411.666274 212.169508 C 428.24924 207.646881 442.639417 203.398352 454.699756 199.560972 C 466.760094 195.586542 476.216496 192.571457 482.931912 190.515718 C 489.784377 188.459978 496.225695 186.404238 502.392913 184.21145 C 508.560132 182.15571 520.894569 177.633083 539.396225 170.780618 C 557.897881 163.928153 575.303143 156.938638 591.474961 149.812074 C 607.783828 142.82256 616.417934 139.259278 617.514329 139.122229 C 618.610723 138.84813 626.285484 135.558947 640.81271 128.98058 C 655.339936 122.402213 668.49667 116.372044 680.14586 111.027121 C 691.932101 105.545149 703.444242 100.200226 714.956384 94.718254 C 726.331476 89.373331 740.584603 82.383817 757.578717 73.612661 L 782.932838 60.592977 Z M 788.963008 60.592977 " stroke="#000000" stroke-width="2" stroke-opacity="1" stroke-miterlimit="4"/></g><path stroke-linecap="butt" transform="matrix(0.0285025, 0, 0, 0.0285025, -2.479618, -0.68799)" fill-opacity="1" fill="#ffffff" fill-rule="evenodd" stroke-linejoin="miter" d="M 791.566944 125.554347 L 797.185966 125.554347 L 821.169594 137.614686 C 837.204363 145.700595 847.757159 150.908469 852.965033 153.512405 C 858.035857 155.979293 875.578168 164.065202 905.454916 177.770132 C 935.331664 191.612112 950.818236 198.464577 951.777581 198.601626 C 952.736926 198.738676 960.685785 202.027859 975.62416 208.469176 C 990.425484 214.773444 1001.937626 219.57017 1009.886486 222.585255 C 1017.972394 225.600339 1029.484536 229.848868 1044.697009 235.056741 C 1059.772432 240.401664 1069.365883 243.690847 1073.477362 245.06134 C 1077.451792 246.431833 1082.385567 248.213474 1088.415737 250.132165 C 1094.445906 252.050855 1102.120667 254.380693 1111.577069 257.121679 C 1121.033471 259.999715 1133.09381 263.288898 1147.621036 267.126278 C 1162.285311 271.100708 1176.40139 274.526941 1190.10632 277.542025 C 1203.81125 280.694159 1212.719455 282.61285 1216.693885 283.435146 C 1220.668315 284.257441 1233.4139 286.58728 1254.930641 290.561709 C 1276.310332 294.39909 1289.741164 296.728928 1295.223136 297.551224 C 1300.705108 298.37352 1313.998891 300.566309 1335.104484 303.855492 C 1356.347126 307.144675 1367.036971 308.789267 1367.31107 308.789267 C 1367.585169 308.789267 1377.863866 310.707957 1398.147163 314.682387 C 1418.43046 318.519767 1428.709158 320.575507 1428.846207 320.712556 L 1429.120306 320.849605 L 1427.749813 382.93294 C 1426.927517 424.32183 1424.734728 477.771058 1421.308496 543.280626 C 1417.882263 608.927242 1415.141277 654.70171 1413.222587 680.741077 C 1411.166847 706.917495 1408.974058 729.256531 1406.370122 747.895236 C 1403.766185 766.396892 1400.7511 784.076253 1397.324868 800.796268 C 1393.898635 817.379233 1390.198304 834.236298 1386.223874 851.093362 C 1382.112395 868.087476 1378.549113 882.888801 1375.396979 895.771435 C 1372.244845 908.51702 1368.544514 922.221951 1364.295985 936.886226 C 1360.047457 951.687551 1357.44352 960.595756 1356.621224 963.610841 C 1355.661879 966.625925 1354.428435 970.600355 1352.646794 975.260031 C 1351.002203 979.919708 1348.946463 985.812828 1346.753674 992.802342 C 1344.423836 999.654808 1340.860554 1009.659407 1335.926779 1022.679091 C 1331.130054 1035.835824 1327.155624 1046.251571 1324.00349 1053.926332 C 1320.851356 1061.738142 1317.013975 1071.057495 1312.354299 1081.88439 C 1307.831672 1092.711285 1301.938552 1105.730969 1294.811988 1121.080491 C 1287.685424 1136.292964 1283.299847 1145.201168 1281.929354 1147.668056 C 1280.558861 1150.134943 1275.213938 1159.317247 1266.305733 1174.940867 C 1257.260479 1190.701537 1251.778507 1200.02089 1249.996866 1202.898925 C 1248.078176 1205.776961 1243.692598 1213.177623 1236.703083 1224.963863 C 1229.713569 1236.750103 1225.053893 1244.287815 1222.998153 1247.439949 C 1220.805364 1250.592083 1217.516181 1255.662907 1213.130603 1262.515372 C 1208.607976 1269.230788 1205.044694 1274.575711 1202.303708 1278.276042 C 1199.562722 1281.976374 1196.547637 1286.499001 1192.847306 1291.569825 C 1189.284024 1296.777698 1185.857792 1301.437375 1182.568608 1305.822952 C 1179.279425 1310.071481 1176.812538 1313.634763 1174.893847 1316.649847 C 1172.975157 1319.527883 1170.37122 1323.228214 1166.670889 1327.88789 C 1163.107607 1332.410517 1159.681375 1337.070194 1156.392191 1341.592821 C 1153.103008 1346.115448 1149.539726 1350.912173 1145.702346 1355.708899 C 1141.864965 1360.642674 1138.575782 1364.754153 1135.834796 1368.180386 C 1133.09381 1371.743668 1127.337739 1378.322034 1118.429534 1388.052535 C 1109.658379 1397.783035 1099.105582 1408.884029 1087.182293 1421.355516 C 1075.121954 1433.827002 1064.569158 1444.516848 1055.386854 1453.425053 C 1046.204551 1462.333257 1040.174382 1467.952279 1037.159297 1470.282117 C 1034.144212 1472.611955 1027.154698 1478.642125 1016.190753 1488.235576 C 1005.08976 1497.829027 998.374344 1503.585098 996.044506 1505.640837 C 993.577618 1507.833626 987.547449 1512.904451 977.953998 1521.127409 C 968.360546 1529.350367 962.056278 1534.558241 959.041194 1536.888079 C 956.026109 1539.354966 952.599876 1542.095952 948.762496 1545.248086 C 944.925115 1548.40022 939.580193 1552.785798 932.727727 1558.404819 C 925.875262 1563.886792 920.667389 1567.998271 917.104107 1570.739257 C 913.540825 1573.343194 909.977543 1575.673032 906.68836 1577.728771 C 903.399176 1579.784511 897.506056 1583.484842 888.734901 1588.555666 C 879.963745 1593.76354 874.344724 1597.189772 871.603738 1598.971413 C 868.862752 1600.753054 865.847667 1602.671745 862.284385 1604.590435 C 858.858153 1606.509125 855.294871 1608.838963 851.59454 1611.305851 C 847.894208 1613.772738 845.153222 1615.554379 843.508631 1616.650774 C 841.72699 1617.747168 838.026658 1619.802908 832.270588 1622.543894 C 826.651566 1625.28488 819.799101 1628.437014 811.713192 1632.137345 C 803.764332 1635.700627 798.145311 1638.030465 794.993177 1639.126859 L 790.333501 1640.9085 L 785.125627 1639.675057 C 781.699395 1638.715712 777.999063 1637.345218 774.024634 1635.426528 C 769.913154 1633.507838 763.197739 1630.218655 753.741337 1625.421929 C 744.421984 1620.762253 738.940012 1617.747168 737.569519 1616.650774 C 736.061976 1615.554379 732.361645 1613.224541 726.605574 1609.38716 C 720.712454 1605.686829 716.326877 1602.945843 713.311792 1601.027153 C 710.296707 1599.245512 704.403587 1595.819279 695.632432 1590.611406 C 686.998326 1585.540582 680.968156 1581.9773 677.678973 1579.784511 C 674.38979 1577.728771 670.963557 1575.398933 667.400275 1572.794996 C 663.836993 1570.05401 659.725514 1567.038926 655.065838 1563.338594 C 650.543211 1559.775312 644.513041 1554.841538 636.83828 1548.53727 C 629.300569 1542.370051 622.722202 1536.888079 617.103181 1532.365452 C 611.621208 1527.705775 603.39825 1520.85331 592.708405 1511.533958 C 582.018559 1502.214605 575.166094 1496.458534 572.151009 1493.991647 C 569.135924 1491.661808 562.557558 1486.179836 552.415909 1477.408681 C 542.274261 1468.637525 536.51819 1463.70375 535.421796 1462.607356 C 534.325401 1461.510962 529.254577 1456.577187 520.209323 1447.806031 C 511.164069 1439.034876 504.859801 1432.867657 501.296519 1429.030277 C 497.733237 1425.329945 489.921427 1416.969938 477.724039 1404.087303 C 465.526651 1391.204669 458.263037 1383.255809 455.79615 1380.377774 C 453.466312 1377.362689 449.90303 1373.114161 445.106304 1367.35809 C 440.446628 1361.739068 436.746297 1357.079392 434.005311 1353.653159 C 431.264325 1350.226927 428.523338 1346.526596 425.782352 1342.826264 C 423.041366 1339.125933 420.30038 1335.151503 417.285296 1331.177074 C 414.270211 1327.202644 411.529225 1323.502313 409.062337 1320.350179 C 406.732499 1317.198045 404.53971 1314.320009 402.895119 1311.853122 C 401.113478 1309.249185 398.78364 1306.097051 395.768555 1301.985572 C 392.75347 1298.011142 390.286583 1294.44786 388.093794 1291.158677 C 385.901005 1288.006543 383.02297 1283.895064 379.459688 1278.68719 C 375.896406 1273.616366 373.15542 1269.504887 371.373779 1266.626852 C 369.455089 1263.748816 366.440004 1259.08914 362.328525 1252.921921 C 358.217046 1246.617653 355.47606 1242.369125 354.242616 1239.902237 C 352.872123 1237.572399 349.308841 1231.679279 343.415721 1222.085828 C 337.65965 1212.492376 333.68522 1206.188109 331.903579 1203.310073 C 329.984889 1200.432038 325.325213 1192.346129 317.92455 1179.326445 C 310.523888 1166.306761 304.904866 1156.439211 301.204535 1149.723795 C 297.504204 1143.145429 294.215021 1136.841161 291.336985 1131.08509 C 288.45895 1125.19197 284.48452 1116.420814 279.276647 1104.771624 C 274.205822 1093.122433 271.601886 1087.229313 271.601886 1086.818165 C 271.601886 1086.544066 268.997949 1080.239798 263.927125 1067.768312 C 258.719251 1055.296825 254.744821 1045.429275 251.866786 1038.165662 C 248.98875 1030.902049 245.014321 1019.938105 239.806447 1005.273829 C 234.735623 990.472504 229.527749 974.848884 224.456925 958.128869 C 219.249051 941.545903 213.492981 921.262606 207.188713 897.416027 C 201.021494 873.432399 196.498867 855.753039 193.89493 844.103848 C 191.428043 832.454657 187.864761 815.460543 183.205085 793.258556 C 178.682458 771.056569 175.941471 756.392293 175.119176 749.539828 C 174.15983 742.550314 172.37819 721.307671 169.500154 685.811902 C 166.622119 650.179083 164.840478 623.454468 163.881133 605.36396 C 163.058837 587.273452 162.099492 568.223599 160.866048 547.940302 C 159.769654 527.657005 158.262111 494.491074 156.206372 448.305458 C 154.150632 402.256892 153.191287 369.639158 153.191287 350.452255 L 153.191287 321.808951 L 155.932273 320.301408 C 157.850963 319.342063 162.921788 318.108619 171.144746 316.738126 C 179.504753 315.367633 190.879846 313.585992 205.544121 311.393204 C 220.071347 309.063365 242.273335 305.500083 272.013033 300.429259 C 301.752732 295.495484 323.132424 291.932202 336.015058 289.602364 C 348.760644 287.409575 365.891807 283.983343 386.997399 279.186617 C 408.102992 274.526941 426.467599 270.141363 441.95417 265.892835 C 457.303692 261.781356 470.597475 257.806926 481.835518 254.243644 C 492.936511 250.680362 501.707667 247.939376 508.011935 245.883636 C 514.316203 243.964946 520.346372 242.046256 525.965394 240.127566 C 531.721464 238.208875 543.096557 233.960347 560.364769 227.656079 C 577.495932 221.214762 593.5307 214.773444 608.606124 208.195078 C 623.544498 201.75376 631.630407 198.327528 632.589752 198.190479 C 633.549097 198.053429 640.81271 195.038345 654.243542 188.871126 C 667.674374 182.703907 679.871762 177.221935 690.698657 172.151111 C 701.662601 167.217336 712.352447 162.146512 722.905243 157.212737 C 733.45804 152.278962 746.614773 145.700595 762.375443 137.614686 L 785.947923 125.554347 Z M 791.566944 125.554347 " stroke="#000000" stroke-width="2" stroke-opacity="1" stroke-miterlimit="4"/><path stroke-linecap="butt" transform="matrix(0.0285025, 0, 0, 0.0285025, -2.479618, -0.68799)" fill-opacity="1" fill="#000000" fill-rule="evenodd" stroke-linejoin="miter" d="M 789.648254 169.958322 L 794.856128 169.958322 L 817.058115 181.333414 C 831.996489 189.008175 841.72699 193.94195 846.523715 196.271788 C 851.320441 198.601626 867.629308 206.276387 895.313267 219.159022 C 922.997227 232.178706 937.387404 238.620023 938.2097 238.757072 C 939.169045 238.894122 946.569707 242.046256 960.411687 248.076425 C 974.116617 253.969545 984.806463 258.492172 992.207125 261.370208 C 999.607788 264.248243 1010.297633 268.085624 1024.413712 273.156448 C 1038.52979 278.090223 1047.300945 281.242357 1051.138326 282.4758 C 1054.838657 283.846293 1059.498334 285.353836 1064.980306 287.272526 C 1070.599327 289.054167 1077.725891 291.246956 1086.497046 293.850893 C 1095.268202 296.454829 1106.369195 299.606963 1119.937077 303.307295 C 1133.504958 307.007626 1146.524641 310.296809 1159.270227 313.174844 C 1172.015812 316.05288 1180.23877 317.834521 1183.939101 318.656817 C 1187.639433 319.342063 1199.425673 321.671901 1219.434871 325.235183 C 1239.30702 328.935514 1251.778507 331.128303 1256.712282 331.950599 C 1261.783106 332.772895 1274.117543 334.691585 1293.715594 337.843719 C 1313.450694 340.995853 1323.318243 342.503396 1323.592342 342.503396 C 1323.866441 342.503396 1333.459892 344.285036 1352.235647 347.985368 C 1371.148451 351.685699 1380.604852 353.604389 1380.741902 353.741438 L 1380.878951 353.878488 L 1379.782557 412.261491 C 1378.960261 451.320543 1376.904521 501.617637 1373.752387 563.289824 C 1370.600253 624.962011 1367.996317 668.132542 1366.214676 692.664367 C 1364.295985 717.196192 1362.240246 738.301785 1359.773358 755.707047 C 1357.44352 773.249358 1354.702534 789.832323 1351.413351 805.592993 C 1348.261217 821.216614 1344.834984 837.114333 1341.134653 853.012052 C 1337.434322 868.909772 1334.145138 882.888801 1331.130054 894.949139 C 1328.252018 907.009478 1324.825786 919.892113 1320.851356 933.734092 C 1316.876926 947.576072 1314.410039 955.93608 1313.724792 958.814115 C 1312.902496 961.69215 1311.669053 965.392482 1310.16151 969.915109 C 1308.516919 974.300686 1306.598228 979.782659 1304.542489 986.361025 C 1302.3497 992.802342 1299.060517 1002.258744 1294.53789 1014.593182 C 1290.015263 1026.79057 1286.314931 1036.65812 1283.436896 1043.921733 C 1280.558861 1051.322395 1276.995579 1060.093551 1272.74705 1070.235199 C 1268.498522 1080.376848 1263.01655 1092.711285 1256.438183 1107.101462 C 1249.722767 1121.491639 1245.748337 1129.851646 1244.377844 1132.181484 C 1243.144401 1134.511323 1238.210626 1143.145429 1229.987668 1157.809704 C 1221.62766 1172.611029 1216.556836 1181.382185 1214.775195 1184.123171 C 1213.130603 1186.864157 1209.019124 1193.853671 1202.440757 1204.954665 C 1195.99944 1216.055658 1191.750912 1223.045173 1189.695172 1226.060258 C 1187.776482 1229.075342 1184.761397 1233.735019 1180.649918 1240.176336 C 1176.538439 1246.617653 1173.112206 1251.551428 1170.645319 1255.11471 C 1168.178431 1258.677992 1165.163347 1262.789471 1161.874163 1267.586197 C 1158.58498 1272.519972 1155.432846 1276.905549 1152.280712 1281.017028 C 1149.265628 1284.991458 1146.935789 1288.417691 1145.154148 1291.158677 C 1143.509557 1293.899663 1140.90562 1297.462945 1137.616437 1301.711473 C 1134.327253 1306.097051 1131.175119 1310.345579 1128.022985 1314.731157 C 1125.007901 1318.979686 1121.718717 1323.502313 1118.155436 1328.02494 C 1114.592154 1332.547567 1111.44002 1336.521996 1108.973132 1339.81118 C 1106.506245 1343.100363 1101.024273 1349.267582 1092.801314 1358.449885 C 1084.578356 1367.495139 1074.984905 1378.047936 1063.746862 1389.834176 C 1052.645868 1401.483367 1042.915368 1411.625015 1034.418311 1419.985023 C 1025.921254 1428.34503 1020.302233 1433.689953 1017.424197 1435.882742 C 1014.683211 1438.075531 1008.104845 1443.694552 997.963196 1452.739806 C 987.684498 1461.78506 981.51728 1467.267032 979.324491 1469.185723 C 976.994653 1471.104413 971.375631 1476.038188 962.604476 1483.712949 C 953.696271 1491.38771 947.803151 1496.321485 945.062165 1498.514274 C 942.321179 1500.844112 939.031995 1503.448049 935.468714 1506.463133 C 931.905432 1509.478218 926.971657 1513.589697 920.530339 1518.797571 C 914.226071 1524.005444 909.429346 1527.842825 906.003113 1530.309712 C 902.71393 1532.7766 899.561796 1535.106438 896.546711 1537.025128 C 893.394577 1538.943818 887.912605 1542.370051 879.826696 1547.166777 C 871.740787 1552.100551 866.395864 1555.252685 863.928977 1557.034326 C 861.32504 1558.678918 858.447005 1560.460559 855.294871 1562.2422 C 852.142737 1564.16089 848.853553 1566.21663 845.427321 1568.546468 C 841.864039 1570.876306 839.397151 1572.657947 837.75256 1573.617292 C 836.245017 1574.713687 832.818785 1576.495328 827.473862 1579.099264 C 822.128939 1581.703201 815.824671 1584.718286 808.424009 1588.144518 C 800.886297 1591.570751 795.815473 1593.76354 792.800388 1594.859934 L 788.41481 1596.367477 L 783.755134 1595.271082 C 780.465951 1594.448786 777.039718 1593.078293 773.339387 1591.296652 C 769.639056 1589.515011 763.471837 1586.362877 754.700682 1581.84025 C 745.929526 1577.454673 740.858702 1574.713687 739.488209 1573.617292 C 738.254765 1572.657947 734.828533 1570.328109 729.34656 1566.764827 C 724.001638 1563.338594 719.890159 1560.597608 717.012123 1558.953017 C 714.271137 1557.308425 708.789165 1554.019242 700.703256 1549.222516 C 692.617347 1544.288741 687.135375 1540.862509 683.983241 1538.943818 C 680.968156 1537.025128 677.816022 1534.832339 674.526839 1532.365452 C 671.100606 1529.761515 667.400275 1526.88348 663.151747 1523.457247 C 658.903218 1520.031014 653.284197 1515.371338 646.294682 1509.615267 C 639.168119 1503.722147 633.137949 1498.514274 627.930076 1494.265745 C 622.722202 1490.017217 615.18449 1483.43885 605.31694 1474.667695 C 595.312341 1465.896539 588.871024 1460.414567 586.130038 1458.221778 C 583.389052 1456.028989 577.221833 1450.684067 567.902481 1442.461108 C 558.446079 1434.23815 553.238205 1429.578474 552.141811 1428.619129 C 551.045416 1427.522734 546.38574 1422.863058 538.025732 1414.6401 C 529.665725 1406.417141 523.772605 1400.524021 520.483421 1397.097789 C 517.194238 1393.534507 509.930625 1385.722697 498.555533 1373.525309 C 487.31749 1361.32792 480.602074 1353.927258 478.272236 1351.186272 C 476.079447 1348.445286 472.790264 1344.333807 468.404686 1338.988884 C 464.019108 1333.643961 460.592876 1329.395433 457.988939 1326.106249 C 455.522051 1322.817066 453.055164 1319.390834 450.451227 1315.827552 C 447.98434 1312.401319 445.243354 1308.700988 442.502367 1304.863607 C 439.761381 1301.163276 437.157445 1297.737043 434.964656 1294.721959 C 432.771867 1291.706874 430.716127 1288.965888 429.208585 1286.63605 C 427.563993 1284.306212 425.371204 1281.291127 422.630218 1277.453747 C 419.889232 1273.616366 417.422345 1270.190133 415.503655 1267.312098 C 413.447915 1264.297013 410.843978 1260.322584 407.554795 1255.525858 C 404.128562 1250.592083 401.661675 1246.891752 399.880034 1244.150766 C 398.235442 1241.40978 395.494456 1237.024202 391.657076 1231.131082 C 387.682646 1225.237962 385.215758 1221.263532 383.982315 1219.070743 C 382.88592 1216.740905 379.459688 1211.121883 374.114765 1202.213679 C 368.632793 1193.168425 365.069511 1187.275305 363.28787 1184.534318 C 361.643278 1181.793332 357.2577 1174.255621 350.405235 1161.921183 C 343.55277 1149.723795 338.344897 1140.404443 334.918664 1134.100175 C 331.492431 1127.932956 328.340297 1122.039836 325.736361 1116.557864 C 323.132424 1110.938842 319.432093 1102.715884 314.635367 1091.75194 C 309.838641 1080.787995 307.371754 1075.168974 307.371754 1074.894875 C 307.371754 1074.620777 305.041916 1068.727657 300.24519 1056.941417 C 295.448464 1045.155176 291.748133 1035.835824 289.144196 1029.120408 C 286.54026 1022.267943 282.702879 1011.989245 278.043203 998.147265 C 273.246477 984.168236 268.449752 969.503961 263.653026 953.743291 C 258.8563 938.11967 253.648427 919.069817 247.755307 896.593731 C 241.862187 874.117645 237.750707 857.260581 235.420869 846.296637 C 233.091031 835.332692 229.664799 819.434973 225.41627 798.466429 C 221.167742 777.634935 218.700854 763.930005 217.878558 757.351638 C 217.056263 750.773272 215.411671 730.764073 212.807734 697.324043 C 210.066748 663.884013 208.422156 638.666941 207.599861 621.672827 C 206.777565 604.678714 205.81822 586.725255 204.721825 567.538352 C 203.76248 548.488499 202.254938 517.241258 200.473297 473.933678 C 198.554607 430.489049 197.595261 399.790005 197.595261 381.699496 L 197.595261 354.700784 L 200.199198 353.330291 C 201.980839 352.370945 206.640516 351.274551 214.315277 349.904058 C 221.990038 348.670614 232.679883 347.026023 246.110715 344.833234 C 259.678596 342.777494 280.235992 339.351262 307.782902 334.691585 C 335.466861 330.031909 355.201961 326.605676 367.12525 324.549937 C 379.04854 322.357148 394.80921 319.067965 414.40726 314.682387 C 434.14236 310.296809 451.136474 306.048281 465.389601 302.073851 C 479.779778 298.23647 492.114215 294.536139 502.392913 291.109907 C 512.80866 287.820723 520.894569 285.079737 526.65064 283.298096 C 532.54376 281.516455 538.025732 279.597765 543.370655 277.816124 C 548.715578 276.034483 559.268374 272.060053 575.166094 266.029884 C 591.063813 259.999715 606.002187 253.969545 619.981216 247.802327 C 633.960245 241.635108 641.360907 238.620023 642.320253 238.482974 C 643.142548 238.345925 649.857964 235.33084 662.329451 229.574769 C 674.800938 223.818698 686.03898 218.610825 696.180629 213.951148 C 706.185228 209.154423 716.189827 204.494747 726.057377 199.83507 C 735.787878 195.038345 747.985266 189.008175 762.649541 181.333414 L 784.440381 169.958322 Z M 789.648254 169.958322 " stroke="#000000" stroke-width="2" stroke-opacity="1" stroke-miterlimit="4"/><g clip-path="url(#3f8b0c4217)"><path fill="#ffffff" d="M 31.191406 19.609375 C 30.636719 19.253906 30.445312 18.539062 30.746094 17.953125 C 31.140625 17.191406 31.121094 16.289062 30.6875 15.546875 C 30.261719 14.804688 29.492188 14.335938 28.636719 14.292969 C 27.972656 14.261719 27.453125 13.742188 27.421875 13.082031 C 27.378906 12.226562 26.914062 11.457031 26.167969 11.027344 C 25.425781 10.597656 24.527344 10.578125 23.765625 10.96875 C 23.179688 11.273438 22.464844 11.082031 22.105469 10.523438 C 21.644531 9.804688 20.859375 9.375 20 9.375 C 19.140625 9.375 18.351562 9.804688 17.886719 10.527344 C 17.53125 11.082031 16.820312 11.273438 16.230469 10.972656 C 15.46875 10.578125 14.570312 10.601562 13.828125 11.027344 C 13.085938 11.457031 12.617188 12.226562 12.574219 13.082031 C 12.542969 13.742188 12.019531 14.265625 11.359375 14.296875 C 10.503906 14.335938 9.734375 14.804688 9.308594 15.550781 C 8.878906 16.292969 8.855469 17.191406 9.25 17.953125 C 9.550781 18.539062 9.359375 19.253906 8.804688 19.609375 C 8.085938 20.074219 7.652344 20.863281 7.652344 21.71875 C 7.652344 22.578125 8.085938 23.367188 8.808594 23.832031 C 9.363281 24.1875 9.554688 24.902344 9.25 25.488281 C 8.859375 26.25 8.878906 27.152344 9.308594 27.894531 C 9.738281 28.636719 10.507812 29.105469 11.363281 29.144531 C 12.023438 29.179688 12.542969 29.699219 12.578125 30.359375 C 12.617188 31.214844 13.085938 31.984375 13.828125 32.414062 C 14.574219 32.84375 15.472656 32.863281 16.234375 32.472656 C 16.820312 32.167969 17.535156 32.359375 17.890625 32.917969 C 18.351562 33.636719 19.140625 34.066406 20 34.066406 C 20.859375 34.066406 21.644531 33.636719 22.109375 32.914062 C 22.46875 32.355469 23.179688 32.167969 23.769531 32.46875 C 24.53125 32.863281 25.429688 32.839844 26.171875 32.410156 C 26.914062 31.980469 27.382812 31.214844 27.425781 30.355469 C 27.457031 29.695312 27.976562 29.175781 28.636719 29.144531 C 29.496094 29.101562 30.261719 28.632812 30.691406 27.890625 C 31.121094 27.148438 31.144531 26.246094 30.75 25.484375 C 30.449219 24.898438 30.640625 24.1875 31.195312 23.828125 C 31.914062 23.367188 32.34375 22.578125 32.34375 21.71875 C 32.34375 20.863281 31.914062 20.074219 31.191406 19.609375 Z M 30.523438 22.792969 C 29.433594 23.496094 29.054688 24.898438 29.652344 26.054688 C 29.855469 26.445312 29.84375 26.894531 29.621094 27.277344 C 29.402344 27.660156 29.019531 27.890625 28.578125 27.910156 C 27.28125 27.972656 26.253906 29 26.191406 30.296875 C 26.171875 30.738281 25.9375 31.121094 25.554688 31.34375 C 25.171875 31.5625 24.726562 31.574219 24.335938 31.371094 C 23.179688 30.777344 21.777344 31.152344 21.074219 32.246094 C 20.832031 32.617188 20.441406 32.832031 20 32.832031 C 19.554688 32.832031 19.167969 32.617188 18.925781 32.246094 C 18.449219 31.503906 17.648438 31.09375 16.820312 31.09375 C 16.429688 31.09375 16.035156 31.183594 15.667969 31.371094 C 15.273438 31.574219 14.828125 31.566406 14.445312 31.34375 C 14.0625 31.121094 13.828125 30.742188 13.808594 30.300781 C 13.746094 29.003906 12.71875 27.976562 11.421875 27.914062 C 10.980469 27.890625 10.597656 27.660156 10.378906 27.277344 C 10.15625 26.894531 10.144531 26.449219 10.347656 26.054688 C 10.945312 24.898438 10.566406 23.5 9.476562 22.792969 C 9.101562 22.554688 8.886719 22.164062 8.886719 21.71875 C 8.886719 21.277344 9.101562 20.886719 9.472656 20.648438 C 10.566406 19.945312 10.941406 18.542969 10.347656 17.386719 C 10.144531 16.992188 10.15625 16.546875 10.375 16.164062 C 10.597656 15.78125 10.976562 15.550781 11.417969 15.527344 C 12.71875 15.46875 13.742188 14.441406 13.808594 13.140625 C 13.828125 12.699219 14.058594 12.320312 14.441406 12.097656 C 14.828125 11.878906 15.269531 11.867188 15.664062 12.070312 C 16.820312 12.664062 18.222656 12.289062 18.925781 11.195312 C 19.167969 10.824219 19.554688 10.609375 20 10.609375 C 20.441406 10.609375 20.832031 10.824219 21.070312 11.195312 C 21.777344 12.285156 23.175781 12.660156 24.332031 12.066406 C 24.726562 11.867188 25.171875 11.875 25.554688 12.097656 C 25.9375 12.316406 26.171875 12.699219 26.191406 13.140625 C 26.253906 14.4375 27.277344 15.464844 28.578125 15.527344 C 29.019531 15.550781 29.402344 15.78125 29.621094 16.164062 C 29.839844 16.546875 29.851562 16.992188 29.652344 17.386719 C 29.054688 18.542969 29.429688 19.941406 30.523438 20.644531 C 30.898438 20.886719 31.109375 21.277344 31.109375 21.71875 C 31.109375 22.164062 30.898438 22.554688 30.523438 22.792969 Z M 25.554688 18.378906 L 24.578125 17.398438 C 24.09375 16.917969 23.3125 16.917969 22.832031 17.398438 L 18.765625 21.464844 L 17.167969 19.867188 C 16.6875 19.386719 15.902344 19.386719 15.425781 19.867188 L 14.445312 20.847656 C 13.960938 21.328125 13.960938 22.109375 14.445312 22.59375 L 17.457031 25.605469 C 17.816406 25.964844 18.292969 26.144531 18.765625 26.144531 C 19.238281 26.144531 19.710938 25.964844 20.074219 25.605469 L 25.554688 20.125 C 26.035156 19.644531 26.035156 18.859375 25.554688 18.378906 Z M 19.203125 24.734375 C 18.960938 24.972656 18.570312 24.972656 18.328125 24.734375 L 15.316406 21.71875 L 16.296875 20.742188 L 18.328125 22.773438 C 18.570312 23.015625 18.960938 23.015625 19.203125 22.773438 L 23.703125 18.273438 L 24.679688 19.25 Z M 17.980469 29.511719 C 17.894531 29.769531 17.652344 29.929688 17.398438 29.929688 C 17.332031 29.929688 17.261719 29.921875 17.195312 29.898438 C 13.703125 28.699219 11.359375 25.414062 11.359375 21.71875 C 11.359375 17.460938 14.402344 13.875 18.597656 13.191406 C 18.9375 13.136719 19.253906 13.363281 19.304688 13.699219 C 19.363281 14.035156 19.132812 14.355469 18.796875 14.410156 C 15.203125 14.996094 12.59375 18.070312 12.59375 21.71875 C 12.59375 24.886719 14.605469 27.703125 17.597656 28.730469 C 17.921875 28.839844 18.09375 29.191406 17.980469 29.511719 Z M 20 29.746094 C 20 30.085938 19.722656 30.363281 19.382812 30.363281 C 19.042969 30.363281 18.765625 30.085938 18.765625 29.746094 C 18.765625 29.402344 19.042969 29.128906 19.382812 29.128906 C 19.722656 29.128906 20 29.402344 20 29.746094 Z M 28.640625 21.71875 C 28.640625 25.976562 25.597656 29.5625 21.402344 30.25 C 21.367188 30.253906 21.332031 30.257812 21.300781 30.257812 C 21.003906 30.257812 20.742188 30.042969 20.691406 29.738281 C 20.636719 29.402344 20.863281 29.085938 21.203125 29.03125 C 24.796875 28.445312 27.40625 25.371094 27.40625 21.71875 C 27.40625 18.554688 25.394531 15.738281 22.402344 14.710938 C 22.078125 14.601562 21.90625 14.25 22.015625 13.925781 C 22.125 13.605469 22.476562 13.433594 22.800781 13.542969 C 26.292969 14.742188 28.640625 18.027344 28.640625 21.71875 Z M 20 13.695312 C 20 13.355469 20.277344 13.078125 20.617188 13.078125 C 20.957031 13.078125 21.234375 13.355469 21.234375 13.695312 C 21.234375 14.035156 20.957031 14.3125 20.617188 14.3125 C 20.277344 14.3125 20 14.035156 20 13.695312 Z M 20 13.695312 " fill-opacity="1" fill-rule="nonzero"/></g></g></g></svg>