<svg xmlns="http://www.w3.org/2000/svg" viewBox="0 0 24 24" id="Tiktok--Streamline-Font-Awesome" height="24" width="24">
  <desc>
    Tiktok Streamline Icon: https://streamlinehq.com
  </desc>
<!--! Font Awesome Free 6.5.2 by @fontawesome - https://fontawesome.com License - https://fontawesome.com/license/free (Icons: CC BY 4.0, Fonts: SIL OFL 1.1, Code: MIT License) Copyright 2024 Fonticons, Inc.-->
  <path d="M22.289517857142858 9.885042857142857c-2.0228946428571426 0.0048375 -3.9961821428571427 -0.6260249999999999 -5.641092857142857 -1.8034767857142857v8.211910714285713c-0.0021160714285714285 5.749580357142857 -6.227533928571428 9.340783928571428 -11.205760714285715 6.464164285714285 -4.978226785714286 -2.8766196428571424 -4.975591071428571 -10.063596428571428 0.004746428571428571 -12.936557142857144 1.4385535714285713 -0.8298428571428571 3.1126446428571426 -1.1565642857142857 4.757657142857143 -0.9285267857142856v4.130308928571429c-2.5177767857142856 -0.7919625 -4.9487089285714285 1.4386392857142858 -4.375676785714285 4.015076785714285 0.5730321428571429 2.5764428571428573 3.7202517857142854 3.566389285714285 5.6649964285714285 1.7819089285714287 0.7077214285714286 -0.6493928571428571 1.1105892857142858 -1.5658660714285715 1.110567857142857 -2.526375V0.24000000000000002h4.043469642857143c-0.0028125 0.34145892857142857 0.025799999999999997 0.6824571428571429 0.0854625 1.0186767857142855 0.2839660714285714 1.5169071428571428 1.179857142857143 2.8500214285714285 2.4770839285714286 3.6859874999999995 0.9131785714285714 0.6038089285714285 1.983792857142857 0.9256339285714286 3.0785464285714284 0.9254035714285714Z" fill="#ffffff" stroke-width="0.0536"></path>
</svg>