<svg xmlns="http://www.w3.org/2000/svg" xmlns:xlink="http://www.w3.org/1999/xlink" width="80" zoomAndPan="magnify" viewBox="0 0 60 60" height="80" preserveAspectRatio="xMidYMid meet" version="1.0"><defs><clipPath id="7dfbbd678d"><path d="M 18.300781 5.246094 L 41.6875 5.246094 L 41.6875 53.304688 L 18.300781 53.304688 Z M 18.300781 5.246094 " clip-rule="nonzero"/></clipPath><clipPath id="b6ca141313"><path d="M 41.6875 5.246094 L 41.6875 42.335938 L 29.996094 53.246094 L 18.300781 42.335938 L 18.300781 5.246094 L 29.996094 16.15625 Z M 41.6875 5.246094 " clip-rule="nonzero"/></clipPath><clipPath id="c40e742d2a"><path d="M 0.300781 0.246094 L 23.6875 0.246094 L 23.6875 48.28125 L 0.300781 48.28125 Z M 0.300781 0.246094 " clip-rule="nonzero"/></clipPath><clipPath id="b58d0c8a82"><path d="M 23.6875 0.246094 L 23.6875 37.335938 L 11.996094 48.246094 L 0.300781 37.335938 L 0.300781 0.246094 L 11.996094 11.15625 Z M 23.6875 0.246094 " clip-rule="nonzero"/></clipPath><clipPath id="ba757badd2"><rect x="0" width="24" y="0" height="49"/></clipPath><clipPath id="84f092db2b"><path d="M 19.464844 8.949219 L 40.519531 8.949219 L 40.519531 51.054688 L 19.464844 51.054688 Z M 19.464844 8.949219 " clip-rule="nonzero"/></clipPath><clipPath id="591009be92"><path d="M 40.519531 8.949219 L 40.519531 40.527344 L 29.992188 51.054688 L 19.464844 40.527344 L 19.464844 8.949219 L 29.992188 19.476562 Z M 40.519531 8.949219 " clip-rule="nonzero"/></clipPath><clipPath id="fa57509551"><path d="M 0.464844 0.949219 L 21.519531 0.949219 L 21.519531 43.054688 L 0.464844 43.054688 Z M 0.464844 0.949219 " clip-rule="nonzero"/></clipPath><clipPath id="ac5a493c17"><path d="M 21.519531 0.949219 L 21.519531 32.527344 L 10.992188 43.054688 L 0.464844 32.527344 L 0.464844 0.949219 L 10.992188 11.476562 Z M 21.519531 0.949219 " clip-rule="nonzero"/></clipPath><clipPath id="8fa4b26528"><rect x="0" width="22" y="0" height="44"/></clipPath></defs><rect x="-6" width="72" fill="#ffffff" y="-6" height="72" fill-opacity="1"/><rect x="-6" width="72" fill="#ffffff" y="-6" height="72" fill-opacity="1"/><g clip-path="url(#7dfbbd678d)"><g clip-path="url(#b6ca141313)"><g transform="matrix(1, 0, 0, 1, 18, 5)"><g clip-path="url(#ba757badd2)"><g clip-path="url(#c40e742d2a)"><g clip-path="url(#b58d0c8a82)"><path fill="#004aad" d="M 23.6875 0.246094 L 23.6875 48.210938 L 0.300781 48.210938 L 0.300781 0.246094 Z M 23.6875 0.246094 " fill-opacity="1" fill-rule="nonzero"/></g></g></g></g></g></g><g clip-path="url(#84f092db2b)"><g clip-path="url(#591009be92)"><g transform="matrix(1, 0, 0, 1, 19, 8)"><g clip-path="url(#8fa4b26528)"><g clip-path="url(#fa57509551)"><g clip-path="url(#ac5a493c17)"><path fill="#5ce1e6" d="M 21.519531 0.949219 L 21.519531 43.054688 L 0.464844 43.054688 L 0.464844 0.949219 Z M 21.519531 0.949219 " fill-opacity="1" fill-rule="nonzero"/></g></g></g></g></g></g></svg>