<svg xmlns="http://www.w3.org/2000/svg" xmlns:xlink="http://www.w3.org/1999/xlink" width="80" zoomAndPan="magnify" viewBox="0 0 60 60" height="80" preserveAspectRatio="xMidYMid meet" version="1.0"><defs><clipPath id="b12c0723ee"><path d="M 17.652344 14.375 L 42.402344 14.375 L 42.402344 39.125 L 17.652344 39.125 Z M 17.652344 14.375 " clip-rule="nonzero"/></clipPath><clipPath id="f359c1bd71"><path d="M 7.726562 7.726562 L 51.976562 7.726562 L 51.976562 51.976562 L 7.726562 51.976562 Z M 7.726562 7.726562 " clip-rule="nonzero"/></clipPath></defs><rect x="-6" width="72" fill="#ffffff" y="-6" height="72" fill-opacity="1"/><rect x="-6" width="72" fill="#ffffff" y="-6" height="72" fill-opacity="1"/><g clip-path="url(#b12c0723ee)"><path fill="#ffffff" d="M 41.191406 24.609375 C 40.636719 24.253906 40.445312 23.539062 40.75 22.953125 C 41.140625 22.191406 41.121094 21.289062 40.691406 20.546875 C 40.261719 19.804688 39.492188 19.335938 38.636719 19.292969 C 37.976562 19.261719 37.453125 18.742188 37.421875 18.082031 C 37.382812 17.226562 36.914062 16.457031 36.167969 16.027344 C 35.425781 15.597656 34.527344 15.578125 33.765625 15.96875 C 33.179688 16.273438 32.464844 16.082031 32.109375 15.523438 C 31.644531 14.804688 30.859375 14.375 30 14.375 C 29.140625 14.375 28.351562 14.804688 27.890625 15.527344 C 27.53125 16.082031 26.820312 16.273438 26.230469 15.972656 C 25.46875 15.578125 24.570312 15.601562 23.828125 16.03125 C 23.085938 16.457031 22.617188 17.226562 22.574219 18.082031 C 22.542969 18.742188 22.019531 19.265625 21.359375 19.296875 C 20.503906 19.339844 19.734375 19.804688 19.308594 20.550781 C 18.878906 21.292969 18.855469 22.191406 19.25 22.953125 C 19.550781 23.539062 19.359375 24.253906 18.804688 24.609375 C 18.085938 25.074219 17.652344 25.863281 17.652344 26.722656 C 17.652344 27.578125 18.085938 28.367188 18.808594 28.832031 C 19.363281 29.1875 19.554688 29.902344 19.25 30.488281 C 18.859375 31.25 18.878906 32.152344 19.308594 32.894531 C 19.738281 33.636719 20.507812 34.105469 21.363281 34.148438 C 22.023438 34.179688 22.542969 34.699219 22.578125 35.359375 C 22.617188 36.214844 23.085938 36.984375 23.828125 37.414062 C 24.574219 37.84375 25.472656 37.863281 26.234375 37.472656 C 26.824219 37.167969 27.535156 37.359375 27.890625 37.917969 C 28.351562 38.636719 29.140625 39.066406 30 39.066406 C 30.859375 39.066406 31.644531 38.636719 32.109375 37.914062 C 32.46875 37.359375 33.179688 37.167969 33.769531 37.46875 C 34.53125 37.863281 35.429688 37.839844 36.171875 37.410156 C 36.914062 36.980469 37.382812 36.214844 37.425781 35.355469 C 37.457031 34.695312 37.976562 34.175781 38.640625 34.144531 C 39.496094 34.101562 40.265625 33.632812 40.691406 32.890625 C 41.121094 32.148438 41.144531 31.25 40.75 30.484375 C 40.449219 29.898438 40.640625 29.1875 41.195312 28.828125 C 41.914062 28.367188 42.34375 27.578125 42.34375 26.722656 C 42.34375 25.863281 41.914062 25.074219 41.191406 24.609375 Z M 40.527344 27.792969 C 39.433594 28.496094 39.058594 29.898438 39.652344 31.054688 C 39.855469 31.449219 39.84375 31.894531 39.625 32.277344 C 39.402344 32.660156 39.019531 32.890625 38.578125 32.910156 C 37.28125 32.972656 36.257812 34 36.191406 35.300781 C 36.171875 35.742188 35.941406 36.121094 35.558594 36.34375 C 35.175781 36.5625 34.726562 36.574219 34.335938 36.371094 C 33.179688 35.777344 31.777344 36.152344 31.074219 37.246094 C 30.832031 37.617188 30.441406 37.832031 30 37.832031 C 29.558594 37.832031 29.167969 37.617188 28.925781 37.246094 C 28.449219 36.503906 27.648438 36.09375 26.820312 36.09375 C 26.433594 36.09375 26.035156 36.183594 25.667969 36.375 C 25.273438 36.574219 24.828125 36.566406 24.445312 36.34375 C 24.0625 36.125 23.828125 35.742188 23.808594 35.300781 C 23.746094 34.003906 22.71875 32.976562 21.421875 32.914062 C 20.980469 32.890625 20.597656 32.660156 20.378906 32.277344 C 20.15625 31.894531 20.144531 31.449219 20.347656 31.054688 C 20.945312 29.898438 20.566406 28.5 19.476562 27.792969 C 19.101562 27.554688 18.886719 27.164062 18.886719 26.722656 C 18.886719 26.277344 19.101562 25.886719 19.472656 25.648438 C 20.566406 24.945312 20.941406 23.542969 20.347656 22.386719 C 20.144531 21.992188 20.15625 21.546875 20.375 21.164062 C 20.597656 20.78125 20.976562 20.550781 21.417969 20.53125 C 22.71875 20.46875 23.742188 19.441406 23.808594 18.140625 C 23.828125 17.699219 24.058594 17.320312 24.441406 17.097656 C 24.828125 16.878906 25.269531 16.867188 25.664062 17.070312 C 26.820312 17.664062 28.222656 17.289062 28.925781 16.195312 C 29.167969 15.824219 29.558594 15.609375 30 15.609375 C 30.441406 15.609375 30.832031 15.824219 31.074219 16.195312 C 31.777344 17.285156 33.175781 17.660156 34.332031 17.066406 C 34.726562 16.867188 35.171875 16.875 35.554688 17.097656 C 35.9375 17.316406 36.171875 17.699219 36.191406 18.140625 C 36.253906 19.4375 37.277344 20.464844 38.578125 20.527344 C 39.019531 20.550781 39.402344 20.78125 39.621094 21.164062 C 39.84375 21.546875 39.851562 21.992188 39.652344 22.386719 C 39.054688 23.542969 39.433594 24.941406 40.523438 25.648438 C 40.898438 25.886719 41.109375 26.277344 41.109375 26.722656 C 41.109375 27.164062 40.898438 27.554688 40.527344 27.792969 Z M 35.554688 23.378906 L 34.578125 22.398438 C 34.09375 21.917969 33.3125 21.917969 32.832031 22.398438 L 28.765625 26.464844 L 27.167969 24.867188 C 26.6875 24.386719 25.902344 24.386719 25.425781 24.867188 L 24.445312 25.847656 C 23.960938 26.328125 23.960938 27.109375 24.445312 27.59375 L 27.457031 30.605469 C 27.816406 30.964844 28.292969 31.148438 28.765625 31.148438 C 29.238281 31.148438 29.710938 30.964844 30.074219 30.605469 L 35.554688 25.125 C 36.035156 24.644531 36.035156 23.859375 35.554688 23.378906 Z M 29.203125 29.734375 C 28.960938 29.972656 28.570312 29.972656 28.328125 29.734375 L 25.316406 26.722656 L 26.296875 25.742188 L 28.328125 27.773438 C 28.570312 28.015625 28.960938 28.015625 29.203125 27.773438 L 33.703125 23.273438 L 34.683594 24.25 Z M 27.980469 34.515625 C 27.894531 34.769531 27.652344 34.933594 27.398438 34.933594 C 27.332031 34.933594 27.265625 34.921875 27.199219 34.898438 C 23.703125 33.699219 21.359375 30.414062 21.359375 26.722656 C 21.359375 22.464844 24.402344 18.875 28.597656 18.191406 C 28.9375 18.136719 29.253906 18.363281 29.308594 18.699219 C 29.363281 19.035156 29.132812 19.355469 28.796875 19.410156 C 25.203125 19.996094 22.59375 23.070312 22.59375 26.722656 C 22.59375 29.886719 24.605469 32.703125 27.597656 33.730469 C 27.921875 33.839844 28.09375 34.191406 27.980469 34.515625 Z M 30 34.746094 C 30 35.085938 29.722656 35.363281 29.382812 35.363281 C 29.042969 35.363281 28.765625 35.085938 28.765625 34.746094 C 28.765625 34.40625 29.042969 34.128906 29.382812 34.128906 C 29.722656 34.128906 30 34.40625 30 34.746094 Z M 38.640625 26.722656 C 38.640625 30.976562 35.597656 34.566406 31.402344 35.25 C 31.367188 35.257812 31.332031 35.257812 31.300781 35.257812 C 31.003906 35.257812 30.742188 35.042969 30.691406 34.738281 C 30.636719 34.402344 30.867188 34.085938 31.203125 34.03125 C 34.796875 33.445312 37.40625 30.371094 37.40625 26.722656 C 37.40625 23.554688 35.394531 20.738281 32.402344 19.710938 C 32.078125 19.601562 31.90625 19.25 32.015625 18.925781 C 32.125 18.605469 32.476562 18.433594 32.800781 18.542969 C 36.292969 19.742188 38.640625 23.027344 38.640625 26.722656 Z M 30 18.695312 C 30 18.355469 30.277344 18.078125 30.617188 18.078125 C 30.957031 18.078125 31.234375 18.355469 31.234375 18.695312 C 31.234375 19.035156 30.957031 19.3125 30.617188 19.3125 C 30.277344 19.3125 30 19.035156 30 18.695312 Z M 30 18.695312 " fill-opacity="1" fill-rule="nonzero"/></g><g clip-path="url(#f359c1bd71)"><path fill="#100f0d" d="M 29.851562 50.539062 C 18.441406 50.539062 9.160156 41.257812 9.160156 29.851562 C 9.160156 18.441406 18.441406 9.160156 29.851562 9.160156 C 41.257812 9.160156 50.539062 18.441406 50.539062 29.851562 C 50.539062 41.257812 41.257812 50.539062 29.851562 50.539062 Z M 29.851562 7.726562 C 17.648438 7.726562 7.726562 17.648438 7.726562 29.851562 C 7.726562 42.050781 17.648438 51.976562 29.851562 51.976562 C 42.050781 51.976562 51.976562 42.050781 51.976562 29.851562 C 51.976562 17.648438 42.050781 7.726562 29.851562 7.726562 " fill-opacity="1" fill-rule="nonzero"/></g><path fill="#100f0d" d="M 35.007812 22.675781 C 35.007812 19.828125 32.699219 17.519531 29.851562 17.519531 C 27.007812 17.519531 24.699219 19.828125 24.699219 22.675781 C 24.699219 25.523438 27.007812 27.828125 29.851562 27.828125 C 32.699219 27.828125 35.007812 25.523438 35.007812 22.675781 " fill-opacity="1" fill-rule="nonzero"/><path fill="#100f0d" d="M 36.734375 32.101562 C 36.675781 32.160156 36.621094 32.21875 36.5625 32.277344 C 36.175781 32.632812 35.738281 32.953125 35.265625 33.222656 C 34.894531 33.4375 34.492188 33.546875 34.082031 33.546875 C 34.046875 33.546875 34.015625 33.546875 33.980469 33.542969 C 33.851562 33.539062 33.71875 33.539062 33.589844 33.539062 C 33.484375 33.582031 33.351562 33.644531 33.25 33.691406 C 32.800781 34.242188 32.183594 34.617188 31.421875 34.785156 C 31.125 34.851562 30.828125 34.886719 30.542969 34.886719 C 29.695312 34.886719 28.933594 34.601562 28.277344 34.039062 C 27.652344 33.503906 27.289062 32.746094 27.289062 31.957031 C 27.289062 31.171875 27.648438 30.410156 28.273438 29.863281 C 23.257812 30.585938 19.085938 34.75 17.429688 40.328125 C 17.070312 41.527344 17.988281 42.730469 19.242188 42.730469 L 40.464844 42.730469 C 41.734375 42.730469 42.632812 41.507812 42.269531 40.292969 C 41.242188 36.867188 39.269531 33.984375 36.734375 32.101562 " fill-opacity="1" fill-rule="nonzero"/><path fill="#100f0d" d="M 23.097656 27.144531 C 23.613281 27.167969 23.929688 26.863281 23.929688 26.347656 C 23.929688 24.691406 23.921875 23.039062 23.9375 21.382812 C 23.941406 20.980469 23.800781 20.710938 23.4375 20.554688 L 23.410156 20.542969 L 23.390625 20.535156 L 23.402344 20.511719 C 24.445312 17.898438 27.117188 15.832031 30.332031 16.058594 C 33.40625 16.277344 35.5625 18.511719 36.3125 20.542969 C 35.921875 20.683594 35.769531 20.964844 35.773438 21.371094 C 35.78125 23.042969 35.773438 24.71875 35.777344 26.390625 C 35.777344 26.835938 36.097656 27.148438 36.546875 27.144531 C 36.691406 27.144531 36.835938 27.128906 36.996094 27.117188 C 36.832031 28.054688 36.503906 28.90625 35.988281 29.683594 C 35.671875 30.160156 35.300781 30.585938 34.863281 30.945312 C 34.71875 31.0625 34.570312 31.171875 34.414062 31.28125 C 34.25 31.386719 34.078125 31.449219 33.875 31.441406 C 33.53125 31.425781 33.1875 31.4375 32.84375 31.441406 C 32.757812 31.441406 32.710938 31.417969 32.679688 31.332031 C 32.578125 31.089844 32.425781 30.878906 32.226562 30.703125 C 31.34375 29.914062 29.886719 29.898438 28.992188 30.671875 C 28.171875 31.375 28.164062 32.515625 28.980469 33.214844 C 29.621094 33.761719 30.371094 33.910156 31.183594 33.730469 C 31.863281 33.578125 32.386719 33.210938 32.683594 32.5625 C 32.726562 32.472656 32.769531 32.453125 32.859375 32.457031 C 33.25 32.457031 33.640625 32.445312 34.027344 32.460938 C 34.285156 32.472656 34.511719 32.40625 34.730469 32.277344 C 35.136719 32.046875 35.5 31.78125 35.828125 31.476562 C 36.363281 30.984375 36.800781 30.398438 37.164062 29.742188 C 37.675781 28.816406 37.960938 27.816406 38.082031 26.769531 C 38.089844 26.6875 38.125 26.636719 38.1875 26.59375 C 38.613281 26.285156 38.925781 25.886719 39.144531 25.410156 C 39.46875 24.707031 39.546875 23.964844 39.433594 23.207031 C 39.292969 22.273438 38.878906 21.488281 38.066406 20.953125 C 38.015625 20.921875 37.988281 20.882812 37.972656 20.824219 C 37.648438 19.734375 37.140625 18.734375 36.425781 17.847656 C 34.925781 15.984375 33.003906 14.878906 30.609375 14.648438 C 28.742188 14.46875 27.007812 14.894531 25.433594 15.898438 C 23.601562 17.070312 22.394531 18.71875 21.753906 20.789062 C 21.726562 20.875 21.683594 20.933594 21.609375 20.980469 C 21.238281 21.222656 20.941406 21.535156 20.726562 21.925781 C 20.144531 22.957031 20.085938 24.039062 20.453125 25.148438 C 20.847656 26.359375 21.832031 27.09375 23.097656 27.144531 " fill-opacity="1" fill-rule="nonzero"/></svg>