<svg xmlns="http://www.w3.org/2000/svg" xmlns:xlink="http://www.w3.org/1999/xlink" width="80" zoomAndPan="magnify" viewBox="0 0 60 60" height="80" preserveAspectRatio="xMidYMid meet" version="1.0"><defs><clipPath id="2597a79021"><path d="M 17.652344 14.375 L 42.402344 14.375 L 42.402344 39.125 L 17.652344 39.125 Z M 17.652344 14.375 " clip-rule="nonzero"/></clipPath><clipPath id="f127dc24d5"><path d="M 12.871094 9.214844 L 47.371094 9.214844 L 47.371094 50.464844 L 12.871094 50.464844 Z M 12.871094 9.214844 " clip-rule="nonzero"/></clipPath></defs><rect x="-6" width="72" fill="#ffffff" y="-6" height="72" fill-opacity="1"/><rect x="-6" width="72" fill="#ffffff" y="-6" height="72" fill-opacity="1"/><g clip-path="url(#2597a79021)"><path fill="#ffffff" d="M 41.191406 24.609375 C 40.636719 24.253906 40.445312 23.539062 40.75 22.953125 C 41.140625 22.191406 41.121094 21.289062 40.691406 20.546875 C 40.261719 19.804688 39.492188 19.335938 38.636719 19.292969 C 37.976562 19.261719 37.453125 18.742188 37.421875 18.082031 C 37.382812 17.226562 36.914062 16.457031 36.167969 16.027344 C 35.425781 15.597656 34.527344 15.578125 33.765625 15.96875 C 33.179688 16.273438 32.464844 16.082031 32.109375 15.523438 C 31.644531 14.804688 30.859375 14.375 30 14.375 C 29.140625 14.375 28.351562 14.804688 27.890625 15.527344 C 27.53125 16.082031 26.820312 16.273438 26.230469 15.972656 C 25.46875 15.578125 24.570312 15.601562 23.828125 16.03125 C 23.085938 16.457031 22.617188 17.226562 22.574219 18.082031 C 22.542969 18.742188 22.019531 19.265625 21.359375 19.296875 C 20.503906 19.339844 19.734375 19.804688 19.308594 20.550781 C 18.878906 21.292969 18.855469 22.191406 19.25 22.953125 C 19.550781 23.539062 19.359375 24.253906 18.804688 24.609375 C 18.085938 25.074219 17.652344 25.863281 17.652344 26.722656 C 17.652344 27.578125 18.085938 28.367188 18.808594 28.832031 C 19.363281 29.1875 19.554688 29.902344 19.25 30.488281 C 18.859375 31.25 18.878906 32.152344 19.308594 32.894531 C 19.738281 33.636719 20.507812 34.105469 21.363281 34.148438 C 22.023438 34.179688 22.542969 34.699219 22.578125 35.359375 C 22.617188 36.214844 23.085938 36.984375 23.828125 37.414062 C 24.574219 37.84375 25.472656 37.863281 26.234375 37.472656 C 26.824219 37.167969 27.535156 37.359375 27.890625 37.917969 C 28.351562 38.636719 29.140625 39.066406 30 39.066406 C 30.859375 39.066406 31.644531 38.636719 32.109375 37.914062 C 32.46875 37.359375 33.179688 37.167969 33.769531 37.46875 C 34.53125 37.863281 35.429688 37.839844 36.171875 37.410156 C 36.914062 36.980469 37.382812 36.214844 37.425781 35.355469 C 37.457031 34.695312 37.976562 34.175781 38.640625 34.144531 C 39.496094 34.101562 40.265625 33.632812 40.691406 32.890625 C 41.121094 32.148438 41.144531 31.25 40.75 30.484375 C 40.449219 29.898438 40.640625 29.1875 41.195312 28.828125 C 41.914062 28.367188 42.34375 27.578125 42.34375 26.722656 C 42.34375 25.863281 41.914062 25.074219 41.191406 24.609375 Z M 40.527344 27.792969 C 39.433594 28.496094 39.058594 29.898438 39.652344 31.054688 C 39.855469 31.449219 39.84375 31.894531 39.625 32.277344 C 39.402344 32.660156 39.019531 32.890625 38.578125 32.910156 C 37.28125 32.972656 36.257812 34 36.191406 35.300781 C 36.171875 35.742188 35.941406 36.121094 35.558594 36.34375 C 35.175781 36.5625 34.726562 36.574219 34.335938 36.371094 C 33.179688 35.777344 31.777344 36.152344 31.074219 37.246094 C 30.832031 37.617188 30.441406 37.832031 30 37.832031 C 29.558594 37.832031 29.167969 37.617188 28.925781 37.246094 C 28.449219 36.503906 27.648438 36.09375 26.820312 36.09375 C 26.433594 36.09375 26.035156 36.183594 25.667969 36.375 C 25.273438 36.574219 24.828125 36.566406 24.445312 36.34375 C 24.0625 36.125 23.828125 35.742188 23.808594 35.300781 C 23.746094 34.003906 22.71875 32.976562 21.421875 32.914062 C 20.980469 32.890625 20.597656 32.660156 20.378906 32.277344 C 20.15625 31.894531 20.144531 31.449219 20.347656 31.054688 C 20.945312 29.898438 20.566406 28.5 19.476562 27.792969 C 19.101562 27.554688 18.886719 27.164062 18.886719 26.722656 C 18.886719 26.277344 19.101562 25.886719 19.472656 25.648438 C 20.566406 24.945312 20.941406 23.542969 20.347656 22.386719 C 20.144531 21.992188 20.15625 21.546875 20.375 21.164062 C 20.597656 20.78125 20.976562 20.550781 21.417969 20.53125 C 22.71875 20.46875 23.742188 19.441406 23.808594 18.140625 C 23.828125 17.699219 24.058594 17.320312 24.441406 17.097656 C 24.828125 16.878906 25.269531 16.867188 25.664062 17.070312 C 26.820312 17.664062 28.222656 17.289062 28.925781 16.195312 C 29.167969 15.824219 29.558594 15.609375 30 15.609375 C 30.441406 15.609375 30.832031 15.824219 31.074219 16.195312 C 31.777344 17.285156 33.175781 17.660156 34.332031 17.066406 C 34.726562 16.867188 35.171875 16.875 35.554688 17.097656 C 35.9375 17.316406 36.171875 17.699219 36.191406 18.140625 C 36.253906 19.4375 37.277344 20.464844 38.578125 20.527344 C 39.019531 20.550781 39.402344 20.78125 39.621094 21.164062 C 39.84375 21.546875 39.851562 21.992188 39.652344 22.386719 C 39.054688 23.542969 39.433594 24.941406 40.523438 25.648438 C 40.898438 25.886719 41.109375 26.277344 41.109375 26.722656 C 41.109375 27.164062 40.898438 27.554688 40.527344 27.792969 Z M 35.554688 23.378906 L 34.578125 22.398438 C 34.09375 21.917969 33.3125 21.917969 32.832031 22.398438 L 28.765625 26.464844 L 27.167969 24.867188 C 26.6875 24.386719 25.902344 24.386719 25.425781 24.867188 L 24.445312 25.847656 C 23.960938 26.328125 23.960938 27.109375 24.445312 27.59375 L 27.457031 30.605469 C 27.816406 30.964844 28.292969 31.148438 28.765625 31.148438 C 29.238281 31.148438 29.710938 30.964844 30.074219 30.605469 L 35.554688 25.125 C 36.035156 24.644531 36.035156 23.859375 35.554688 23.378906 Z M 29.203125 29.734375 C 28.960938 29.972656 28.570312 29.972656 28.328125 29.734375 L 25.316406 26.722656 L 26.296875 25.742188 L 28.328125 27.773438 C 28.570312 28.015625 28.960938 28.015625 29.203125 27.773438 L 33.703125 23.273438 L 34.683594 24.25 Z M 27.980469 34.515625 C 27.894531 34.769531 27.652344 34.933594 27.398438 34.933594 C 27.332031 34.933594 27.265625 34.921875 27.199219 34.898438 C 23.703125 33.699219 21.359375 30.414062 21.359375 26.722656 C 21.359375 22.464844 24.402344 18.875 28.597656 18.191406 C 28.9375 18.136719 29.253906 18.363281 29.308594 18.699219 C 29.363281 19.035156 29.132812 19.355469 28.796875 19.410156 C 25.203125 19.996094 22.59375 23.070312 22.59375 26.722656 C 22.59375 29.886719 24.605469 32.703125 27.597656 33.730469 C 27.921875 33.839844 28.09375 34.191406 27.980469 34.515625 Z M 30 34.746094 C 30 35.085938 29.722656 35.363281 29.382812 35.363281 C 29.042969 35.363281 28.765625 35.085938 28.765625 34.746094 C 28.765625 34.40625 29.042969 34.128906 29.382812 34.128906 C 29.722656 34.128906 30 34.40625 30 34.746094 Z M 38.640625 26.722656 C 38.640625 30.976562 35.597656 34.566406 31.402344 35.25 C 31.367188 35.257812 31.332031 35.257812 31.300781 35.257812 C 31.003906 35.257812 30.742188 35.042969 30.691406 34.738281 C 30.636719 34.402344 30.867188 34.085938 31.203125 34.03125 C 34.796875 33.445312 37.40625 30.371094 37.40625 26.722656 C 37.40625 23.554688 35.394531 20.738281 32.402344 19.710938 C 32.078125 19.601562 31.90625 19.25 32.015625 18.925781 C 32.125 18.605469 32.476562 18.433594 32.800781 18.542969 C 36.292969 19.742188 38.640625 23.027344 38.640625 26.722656 Z M 30 18.695312 C 30 18.355469 30.277344 18.078125 30.617188 18.078125 C 30.957031 18.078125 31.234375 18.355469 31.234375 18.695312 C 31.234375 19.035156 30.957031 19.3125 30.617188 19.3125 C 30.277344 19.3125 30 19.035156 30 18.695312 Z M 30 18.695312 " fill-opacity="1" fill-rule="nonzero"/></g><path fill="#3f4143" d="M 21.113281 29.253906 C 21.113281 29.390625 21.003906 29.5 20.867188 29.5 L 18.710938 29.5 C 18.574219 29.5 18.464844 29.390625 18.464844 29.253906 L 18.464844 27.132812 C 18.464844 27 18.574219 26.890625 18.710938 26.890625 L 20.867188 26.890625 C 21.003906 26.890625 21.113281 27 21.113281 27.132812 Z M 20.867188 25.996094 L 18.710938 25.996094 C 18.074219 25.996094 17.558594 26.507812 17.558594 27.132812 L 17.558594 29.253906 C 17.558594 29.882812 18.074219 30.390625 18.710938 30.390625 L 20.867188 30.390625 C 21.5 30.390625 22.019531 29.882812 22.019531 29.253906 L 22.019531 27.132812 C 22.019531 26.507812 21.5 25.996094 20.867188 25.996094 " fill-opacity="1" fill-rule="nonzero"/><path fill="#3f4143" d="M 24.164062 27.75 C 23.914062 27.75 23.710938 27.949219 23.710938 28.195312 C 23.710938 28.441406 23.914062 28.640625 24.164062 28.640625 L 39.132812 28.640625 C 39.382812 28.640625 39.582031 28.441406 39.582031 28.195312 C 39.582031 27.949219 39.382812 27.75 39.132812 27.75 L 24.164062 27.75 " fill-opacity="1" fill-rule="nonzero"/><path fill="#3f4143" d="M 21.113281 35.988281 C 21.113281 36.125 21.003906 36.234375 20.867188 36.234375 L 18.710938 36.234375 C 18.574219 36.234375 18.464844 36.125 18.464844 35.988281 L 18.464844 33.867188 C 18.464844 33.734375 18.574219 33.625 18.710938 33.625 L 20.867188 33.625 C 21.003906 33.625 21.113281 33.734375 21.113281 33.867188 Z M 20.867188 32.730469 L 18.710938 32.730469 C 18.074219 32.730469 17.558594 33.242188 17.558594 33.867188 L 17.558594 35.988281 C 17.558594 36.617188 18.074219 37.125 18.710938 37.125 L 20.867188 37.125 C 21.5 37.125 22.019531 36.617188 22.019531 35.988281 L 22.019531 33.867188 C 22.019531 33.242188 21.5 32.730469 20.867188 32.730469 " fill-opacity="1" fill-rule="nonzero"/><path fill="#3f4143" d="M 39.132812 34.484375 L 24.164062 34.484375 C 23.914062 34.484375 23.710938 34.683594 23.710938 34.929688 C 23.710938 35.175781 23.914062 35.375 24.164062 35.375 L 39.132812 35.375 C 39.382812 35.375 39.582031 35.175781 39.582031 34.929688 C 39.582031 34.683594 39.382812 34.484375 39.132812 34.484375 " fill-opacity="1" fill-rule="nonzero"/><path fill="#3f4143" d="M 21.113281 42.726562 C 21.113281 42.859375 21.003906 42.96875 20.867188 42.96875 L 18.710938 42.96875 C 18.574219 42.96875 18.464844 42.859375 18.464844 42.726562 L 18.464844 40.601562 C 18.464844 40.46875 18.574219 40.359375 18.710938 40.359375 L 20.867188 40.359375 C 21.003906 40.359375 21.113281 40.46875 21.113281 40.601562 Z M 20.867188 39.464844 L 18.710938 39.464844 C 18.074219 39.464844 17.558594 39.976562 17.558594 40.601562 L 17.558594 42.726562 C 17.558594 43.351562 18.074219 43.859375 18.710938 43.859375 L 20.867188 43.859375 C 21.5 43.859375 22.019531 43.351562 22.019531 42.726562 L 22.019531 40.601562 C 22.019531 39.976562 21.5 39.464844 20.867188 39.464844 " fill-opacity="1" fill-rule="nonzero"/><path fill="#3f4143" d="M 39.132812 41.21875 L 24.164062 41.21875 C 23.914062 41.21875 23.710938 41.417969 23.710938 41.664062 C 23.710938 41.910156 23.914062 42.109375 24.164062 42.109375 L 39.132812 42.109375 C 39.382812 42.109375 39.582031 41.910156 39.582031 41.664062 C 39.582031 41.417969 39.382812 41.21875 39.132812 41.21875 " fill-opacity="1" fill-rule="nonzero"/><g clip-path="url(#f127dc24d5)"><path fill="#3f4143" d="M 40.105469 22.1875 C 39.84375 22.566406 39.4375 22.820312 38.976562 22.882812 C 38.902344 22.894531 38.828125 22.898438 38.753906 22.898438 C 38.371094 22.898438 38 22.765625 37.703125 22.515625 L 33.476562 18.980469 C 32.792969 18.40625 32.707031 17.398438 33.289062 16.722656 C 33.871094 16.050781 34.894531 15.96875 35.578125 16.539062 L 38.417969 18.917969 L 42.222656 13.332031 C 42.722656 12.597656 43.730469 12.402344 44.476562 12.894531 C 45.21875 13.386719 45.417969 14.378906 44.917969 15.113281 Z M 42.460938 45.769531 C 42.460938 47.367188 41.140625 48.671875 39.515625 48.671875 L 17.628906 48.671875 C 16.003906 48.671875 14.683594 47.367188 14.683594 45.769531 L 14.683594 24.359375 L 15.058594 23.988281 L 19.335938 23.988281 C 21.460938 23.988281 23.1875 22.292969 23.1875 20.195312 L 23.1875 15.980469 L 23.5625 15.613281 L 31.082031 15.613281 C 30.960938 16.171875 30.890625 16.753906 30.890625 17.347656 C 30.890625 21.835938 34.578125 25.46875 39.132812 25.46875 C 40.316406 25.46875 41.441406 25.21875 42.460938 24.773438 Z M 47.375 17.347656 C 47.375 12.863281 43.683594 9.230469 39.132812 9.230469 C 35.863281 9.230469 33.046875 11.109375 31.714844 13.828125 L 23.1875 13.828125 C 22.945312 13.828125 22.714844 13.921875 22.546875 14.089844 L 13.136719 23.359375 C 12.96875 23.527344 12.871094 23.753906 12.871094 23.988281 L 12.871094 45.769531 C 12.871094 48.351562 15.007812 50.453125 17.628906 50.453125 L 39.515625 50.453125 C 42.136719 50.453125 44.269531 48.351562 44.269531 45.769531 L 44.269531 23.691406 C 46.160156 22.203125 47.375 19.917969 47.375 17.347656 " fill-opacity="1" fill-rule="nonzero"/></g></svg>