<svg xmlns="http://www.w3.org/2000/svg" xmlns:xlink="http://www.w3.org/1999/xlink" width="80" zoomAndPan="magnify" viewBox="0 0 60 60" height="80" preserveAspectRatio="xMidYMid meet" version="1.0"><defs><clipPath id="dbbc328e47"><path d="M 17.652344 14.375 L 42.402344 14.375 L 42.402344 39.125 L 17.652344 39.125 Z M 17.652344 14.375 " clip-rule="nonzero"/></clipPath><clipPath id="e945303ec4"><path d="M 22 6.160156 L 40 6.160156 L 40 12 L 22 12 Z M 22 6.160156 " clip-rule="nonzero"/></clipPath><clipPath id="a176dca598"><path d="M 6 33 L 54 33 L 54 52.660156 L 6 52.660156 Z M 6 33 " clip-rule="nonzero"/></clipPath></defs><rect x="-6" width="72" fill="#ffffff" y="-6" height="72" fill-opacity="1"/><rect x="-6" width="72" fill="#ffffff" y="-6" height="72" fill-opacity="1"/><g clip-path="url(#dbbc328e47)"><path fill="#ffffff" d="M 41.191406 24.609375 C 40.636719 24.253906 40.445312 23.539062 40.75 22.953125 C 41.140625 22.191406 41.121094 21.289062 40.691406 20.546875 C 40.261719 19.804688 39.492188 19.335938 38.636719 19.292969 C 37.976562 19.261719 37.453125 18.742188 37.421875 18.082031 C 37.382812 17.226562 36.914062 16.457031 36.167969 16.027344 C 35.425781 15.597656 34.527344 15.578125 33.765625 15.96875 C 33.179688 16.273438 32.464844 16.082031 32.109375 15.523438 C 31.644531 14.804688 30.859375 14.375 30 14.375 C 29.140625 14.375 28.351562 14.804688 27.890625 15.527344 C 27.53125 16.082031 26.820312 16.273438 26.230469 15.972656 C 25.46875 15.578125 24.570312 15.601562 23.828125 16.03125 C 23.085938 16.457031 22.617188 17.226562 22.574219 18.082031 C 22.542969 18.742188 22.019531 19.265625 21.359375 19.296875 C 20.503906 19.339844 19.734375 19.804688 19.308594 20.550781 C 18.878906 21.292969 18.855469 22.191406 19.25 22.953125 C 19.550781 23.539062 19.359375 24.253906 18.804688 24.609375 C 18.085938 25.074219 17.652344 25.863281 17.652344 26.722656 C 17.652344 27.578125 18.085938 28.367188 18.808594 28.832031 C 19.363281 29.1875 19.554688 29.902344 19.25 30.488281 C 18.859375 31.25 18.878906 32.152344 19.308594 32.894531 C 19.738281 33.636719 20.507812 34.105469 21.363281 34.148438 C 22.023438 34.179688 22.542969 34.699219 22.578125 35.359375 C 22.617188 36.214844 23.085938 36.984375 23.828125 37.414062 C 24.574219 37.84375 25.472656 37.863281 26.234375 37.472656 C 26.824219 37.167969 27.535156 37.359375 27.890625 37.917969 C 28.351562 38.636719 29.140625 39.066406 30 39.066406 C 30.859375 39.066406 31.644531 38.636719 32.109375 37.914062 C 32.46875 37.359375 33.179688 37.167969 33.769531 37.46875 C 34.53125 37.863281 35.429688 37.839844 36.171875 37.410156 C 36.914062 36.980469 37.382812 36.214844 37.425781 35.355469 C 37.457031 34.695312 37.976562 34.175781 38.640625 34.144531 C 39.496094 34.101562 40.265625 33.632812 40.691406 32.890625 C 41.121094 32.148438 41.144531 31.25 40.75 30.484375 C 40.449219 29.898438 40.640625 29.1875 41.195312 28.828125 C 41.914062 28.367188 42.34375 27.578125 42.34375 26.722656 C 42.34375 25.863281 41.914062 25.074219 41.191406 24.609375 Z M 40.527344 27.792969 C 39.433594 28.496094 39.058594 29.898438 39.652344 31.054688 C 39.855469 31.449219 39.84375 31.894531 39.625 32.277344 C 39.402344 32.660156 39.019531 32.890625 38.578125 32.910156 C 37.28125 32.972656 36.257812 34 36.191406 35.300781 C 36.171875 35.742188 35.941406 36.121094 35.558594 36.34375 C 35.175781 36.5625 34.726562 36.574219 34.335938 36.371094 C 33.179688 35.777344 31.777344 36.152344 31.074219 37.246094 C 30.832031 37.617188 30.441406 37.832031 30 37.832031 C 29.558594 37.832031 29.167969 37.617188 28.925781 37.246094 C 28.449219 36.503906 27.648438 36.09375 26.820312 36.09375 C 26.433594 36.09375 26.035156 36.183594 25.667969 36.375 C 25.273438 36.574219 24.828125 36.566406 24.445312 36.34375 C 24.0625 36.125 23.828125 35.742188 23.808594 35.300781 C 23.746094 34.003906 22.71875 32.976562 21.421875 32.914062 C 20.980469 32.890625 20.597656 32.660156 20.378906 32.277344 C 20.15625 31.894531 20.144531 31.449219 20.347656 31.054688 C 20.945312 29.898438 20.566406 28.5 19.476562 27.792969 C 19.101562 27.554688 18.886719 27.164062 18.886719 26.722656 C 18.886719 26.277344 19.101562 25.886719 19.472656 25.648438 C 20.566406 24.945312 20.941406 23.542969 20.347656 22.386719 C 20.144531 21.992188 20.15625 21.546875 20.375 21.164062 C 20.597656 20.78125 20.976562 20.550781 21.417969 20.53125 C 22.71875 20.46875 23.742188 19.441406 23.808594 18.140625 C 23.828125 17.699219 24.058594 17.320312 24.441406 17.097656 C 24.828125 16.878906 25.269531 16.867188 25.664062 17.070312 C 26.820312 17.664062 28.222656 17.289062 28.925781 16.195312 C 29.167969 15.824219 29.558594 15.609375 30 15.609375 C 30.441406 15.609375 30.832031 15.824219 31.074219 16.195312 C 31.777344 17.285156 33.175781 17.660156 34.332031 17.066406 C 34.726562 16.867188 35.171875 16.875 35.554688 17.097656 C 35.9375 17.316406 36.171875 17.699219 36.191406 18.140625 C 36.253906 19.4375 37.277344 20.464844 38.578125 20.527344 C 39.019531 20.550781 39.402344 20.78125 39.621094 21.164062 C 39.84375 21.546875 39.851562 21.992188 39.652344 22.386719 C 39.054688 23.542969 39.433594 24.941406 40.523438 25.648438 C 40.898438 25.886719 41.109375 26.277344 41.109375 26.722656 C 41.109375 27.164062 40.898438 27.554688 40.527344 27.792969 Z M 35.554688 23.378906 L 34.578125 22.398438 C 34.09375 21.917969 33.3125 21.917969 32.832031 22.398438 L 28.765625 26.464844 L 27.167969 24.867188 C 26.6875 24.386719 25.902344 24.386719 25.425781 24.867188 L 24.445312 25.847656 C 23.960938 26.328125 23.960938 27.109375 24.445312 27.59375 L 27.457031 30.605469 C 27.816406 30.964844 28.292969 31.148438 28.765625 31.148438 C 29.238281 31.148438 29.710938 30.964844 30.074219 30.605469 L 35.554688 25.125 C 36.035156 24.644531 36.035156 23.859375 35.554688 23.378906 Z M 29.203125 29.734375 C 28.960938 29.972656 28.570312 29.972656 28.328125 29.734375 L 25.316406 26.722656 L 26.296875 25.742188 L 28.328125 27.773438 C 28.570312 28.015625 28.960938 28.015625 29.203125 27.773438 L 33.703125 23.273438 L 34.683594 24.25 Z M 27.980469 34.515625 C 27.894531 34.769531 27.652344 34.933594 27.398438 34.933594 C 27.332031 34.933594 27.265625 34.921875 27.199219 34.898438 C 23.703125 33.699219 21.359375 30.414062 21.359375 26.722656 C 21.359375 22.464844 24.402344 18.875 28.597656 18.191406 C 28.9375 18.136719 29.253906 18.363281 29.308594 18.699219 C 29.363281 19.035156 29.132812 19.355469 28.796875 19.410156 C 25.203125 19.996094 22.59375 23.070312 22.59375 26.722656 C 22.59375 29.886719 24.605469 32.703125 27.597656 33.730469 C 27.921875 33.839844 28.09375 34.191406 27.980469 34.515625 Z M 30 34.746094 C 30 35.085938 29.722656 35.363281 29.382812 35.363281 C 29.042969 35.363281 28.765625 35.085938 28.765625 34.746094 C 28.765625 34.40625 29.042969 34.128906 29.382812 34.128906 C 29.722656 34.128906 30 34.40625 30 34.746094 Z M 38.640625 26.722656 C 38.640625 30.976562 35.597656 34.566406 31.402344 35.25 C 31.367188 35.257812 31.332031 35.257812 31.300781 35.257812 C 31.003906 35.257812 30.742188 35.042969 30.691406 34.738281 C 30.636719 34.402344 30.867188 34.085938 31.203125 34.03125 C 34.796875 33.445312 37.40625 30.371094 37.40625 26.722656 C 37.40625 23.554688 35.394531 20.738281 32.402344 19.710938 C 32.078125 19.601562 31.90625 19.25 32.015625 18.925781 C 32.125 18.605469 32.476562 18.433594 32.800781 18.542969 C 36.292969 19.742188 38.640625 23.027344 38.640625 26.722656 Z M 30 18.695312 C 30 18.355469 30.277344 18.078125 30.617188 18.078125 C 30.957031 18.078125 31.234375 18.355469 31.234375 18.695312 C 31.234375 19.035156 30.957031 19.3125 30.617188 19.3125 C 30.277344 19.3125 30 19.035156 30 18.695312 Z M 30 18.695312 " fill-opacity="1" fill-rule="nonzero"/></g><path fill="#100f0d" d="M 30.667969 17.628906 C 35.765625 17.628906 39.019531 15.984375 39.019531 14.851562 L 39.019531 11.75 C 37.066406 12.976562 33.855469 13.609375 30.667969 13.609375 C 27.476562 13.609375 24.265625 12.976562 22.316406 11.75 L 22.316406 14.851562 C 22.316406 15.984375 25.570312 17.628906 30.667969 17.628906 " fill-opacity="1" fill-rule="nonzero"/><g clip-path="url(#e945303ec4)"><path fill="#100f0d" d="M 30.667969 11.71875 C 35.765625 11.71875 39.019531 10.074219 39.019531 8.941406 C 39.019531 7.808594 35.765625 6.167969 30.667969 6.167969 C 25.570312 6.167969 22.316406 7.808594 22.316406 8.941406 C 22.316406 10.074219 25.570312 11.71875 30.667969 11.71875 " fill-opacity="1" fill-rule="nonzero"/></g><path fill="#100f0d" d="M 17.359375 23.066406 C 19.308594 23.066406 20.984375 22.824219 22.316406 22.464844 C 22.660156 22.371094 22.972656 22.265625 23.269531 22.160156 C 23.382812 22.121094 23.488281 22.078125 23.59375 22.039062 C 23.871094 21.925781 24.128906 21.8125 24.355469 21.691406 C 24.417969 21.660156 24.46875 21.625 24.527344 21.59375 C 24.714844 21.484375 24.882812 21.375 25.027344 21.265625 C 25.070312 21.234375 25.117188 21.203125 25.15625 21.167969 C 25.316406 21.035156 25.4375 20.90625 25.527344 20.773438 C 25.546875 20.742188 25.5625 20.714844 25.582031 20.683594 C 25.660156 20.550781 25.714844 20.417969 25.714844 20.289062 C 25.714844 20.164062 25.660156 20.03125 25.582031 19.894531 C 25.5625 19.867188 25.546875 19.835938 25.527344 19.804688 C 25.4375 19.675781 25.316406 19.542969 25.15625 19.410156 C 25.117188 19.378906 25.070312 19.347656 25.027344 19.316406 C 24.882812 19.203125 24.714844 19.09375 24.527344 18.988281 C 24.46875 18.953125 24.417969 18.921875 24.359375 18.886719 C 24.132812 18.769531 23.871094 18.652344 23.59375 18.542969 C 23.488281 18.5 23.382812 18.460938 23.269531 18.421875 C 22.972656 18.3125 22.660156 18.210938 22.316406 18.117188 C 20.984375 17.753906 19.308594 17.515625 17.359375 17.515625 C 12.261719 17.515625 9.007812 19.160156 9.007812 20.289062 C 9.007812 21.421875 12.261719 23.066406 17.359375 23.066406 " fill-opacity="1" fill-rule="nonzero"/><g clip-path="url(#a176dca598)"><path fill="#100f0d" d="M 53.71875 33.808594 C 53.433594 33.375 52.851562 33.253906 52.417969 33.542969 L 26.835938 50.632812 L 7.460938 41.804688 C 6.988281 41.59375 6.433594 41.804688 6.21875 42.28125 C 6.003906 42.753906 6.214844 43.316406 6.6875 43.53125 L 26.535156 52.574219 C 26.65625 52.628906 26.789062 52.65625 26.921875 52.65625 C 27.101562 52.65625 27.28125 52.605469 27.4375 52.5 L 53.453125 35.121094 C 53.886719 34.832031 54.003906 34.246094 53.71875 33.808594 " fill-opacity="1" fill-rule="nonzero"/></g><path fill="#100f0d" d="M 12 36.503906 C 12.019531 36.554688 12.035156 36.605469 12.054688 36.65625 C 12.140625 36.882812 12.210938 37.113281 12.265625 37.347656 C 12.285156 37.433594 12.304688 37.515625 12.320312 37.601562 C 12.375 37.90625 12.414062 38.214844 12.414062 38.527344 C 12.414062 38.867188 12.367188 39.210938 12.296875 39.546875 C 12.285156 39.613281 12.273438 39.675781 12.257812 39.742188 C 12.25 39.789062 12.222656 39.832031 12.210938 39.878906 L 9.03125 38.382812 Z M 29.214844 25.613281 C 29.242188 25.644531 29.277344 25.664062 29.304688 25.695312 C 29.546875 25.960938 29.800781 26.203125 30.082031 26.414062 C 30.09375 26.421875 30.101562 26.433594 30.113281 26.441406 C 30.398438 26.65625 30.710938 26.832031 31.03125 26.984375 C 31.089844 27.015625 31.148438 27.042969 31.210938 27.070312 C 31.527344 27.210938 31.855469 27.320312 32.195312 27.398438 C 32.257812 27.414062 32.320312 27.425781 32.386719 27.4375 C 32.742188 27.507812 33.105469 27.554688 33.480469 27.554688 C 33.738281 27.554688 33.992188 27.535156 34.242188 27.5 C 34.324219 27.488281 34.402344 27.46875 34.484375 27.453125 C 34.652344 27.421875 34.820312 27.386719 34.984375 27.339844 C 35.074219 27.316406 35.164062 27.285156 35.253906 27.253906 C 35.402344 27.203125 35.550781 27.148438 35.695312 27.085938 C 35.785156 27.046875 35.875 27.007812 35.960938 26.964844 C 36.101562 26.894531 36.238281 26.816406 36.375 26.738281 C 36.457031 26.6875 36.535156 26.640625 36.613281 26.589844 C 36.757812 26.492188 36.894531 26.386719 37.03125 26.28125 C 37.089844 26.230469 37.152344 26.1875 37.210938 26.132812 C 37.574219 25.816406 37.898438 25.457031 38.175781 25.050781 L 45.410156 28.460938 C 45.363281 28.601562 45.34375 28.742188 45.308594 28.886719 C 45.277344 29.011719 45.242188 29.136719 45.21875 29.261719 C 45.125 29.722656 45.0625 30.183594 45.0625 30.652344 C 45.0625 30.980469 45.089844 31.304688 45.132812 31.628906 C 45.148438 31.726562 45.167969 31.824219 45.183594 31.925781 C 45.226562 32.152344 45.273438 32.375 45.335938 32.597656 C 45.363281 32.699219 45.394531 32.804688 45.425781 32.90625 C 45.503906 33.144531 45.59375 33.371094 45.691406 33.597656 C 45.722656 33.671875 45.75 33.746094 45.785156 33.816406 C 45.796875 33.839844 45.800781 33.863281 45.8125 33.886719 L 30.886719 43.980469 C 30.859375 43.953125 30.828125 43.933594 30.800781 43.902344 C 30.554688 43.640625 30.296875 43.394531 30.011719 43.183594 C 30.007812 43.179688 30.003906 43.175781 30 43.171875 C 29.710938 42.960938 29.402344 42.789062 29.085938 42.636719 C 29.023438 42.609375 28.964844 42.578125 28.902344 42.550781 C 28.589844 42.414062 28.265625 42.304688 27.929688 42.230469 C 27.863281 42.214844 27.800781 42.203125 27.734375 42.191406 C 27.378906 42.121094 27.019531 42.074219 26.652344 42.074219 C 26.226562 42.074219 25.816406 42.136719 25.410156 42.226562 C 25.347656 42.242188 25.28125 42.25 25.21875 42.269531 C 24.835938 42.367188 24.472656 42.507812 24.125 42.683594 C 24.058594 42.714844 23.996094 42.753906 23.929688 42.789062 C 23.585938 42.980469 23.257812 43.199219 22.957031 43.457031 C 22.921875 43.488281 22.894531 43.523438 22.859375 43.550781 C 22.570312 43.816406 22.308594 44.109375 22.074219 44.433594 C 22.054688 44.457031 22.03125 44.472656 22.015625 44.5 L 13.949219 40.699219 C 13.992188 40.558594 14.011719 40.417969 14.046875 40.28125 C 14.078125 40.15625 14.113281 40.03125 14.136719 39.90625 C 14.226562 39.449219 14.289062 38.992188 14.289062 38.527344 C 14.289062 38.058594 14.226562 37.597656 14.136719 37.144531 C 14.117188 37.035156 14.09375 36.929688 14.066406 36.820312 C 13.957031 36.375 13.820312 35.9375 13.625 35.515625 C 13.621094 35.507812 13.621094 35.492188 13.617188 35.484375 Z M 33.546875 22.871094 L 36.421875 24.226562 C 36.40625 24.246094 36.398438 24.273438 36.378906 24.292969 C 36.320312 24.363281 36.25 24.417969 36.1875 24.484375 C 36.019531 24.65625 35.839844 24.816406 35.644531 24.953125 C 35.554688 25.015625 35.460938 25.074219 35.363281 25.128906 C 35.167969 25.246094 34.957031 25.339844 34.742188 25.417969 C 34.648438 25.453125 34.554688 25.492188 34.457031 25.519531 C 34.140625 25.605469 33.816406 25.664062 33.480469 25.664062 C 33.183594 25.664062 32.894531 25.617188 32.609375 25.550781 C 32.527344 25.53125 32.445312 25.503906 32.363281 25.476562 C 32.164062 25.414062 31.96875 25.335938 31.78125 25.242188 C 31.703125 25.203125 31.625 25.164062 31.546875 25.117188 C 31.324219 24.984375 31.113281 24.832031 30.921875 24.652344 C 30.898438 24.632812 30.875 24.621094 30.855469 24.601562 C 30.847656 24.59375 30.847656 24.589844 30.839844 24.585938 Z M 47.054688 29.625 C 47.070312 29.558594 47.078125 29.492188 47.097656 29.425781 C 47.109375 29.375 47.132812 29.328125 47.148438 29.277344 L 50.375 30.800781 L 47.398438 32.8125 C 47.378906 32.765625 47.363281 32.714844 47.339844 32.664062 C 47.242188 32.417969 47.164062 32.167969 47.101562 31.910156 C 47.078125 31.824219 47.058594 31.734375 47.042969 31.644531 C 46.980469 31.320312 46.9375 30.988281 46.9375 30.652344 C 46.9375 30.308594 46.984375 29.964844 47.054688 29.625 Z M 26.796875 46.75 L 23.769531 45.324219 C 23.785156 45.308594 23.792969 45.289062 23.804688 45.273438 C 23.855469 45.21875 23.910156 45.175781 23.960938 45.125 C 24.136719 44.945312 24.328125 44.78125 24.53125 44.640625 C 24.617188 44.582031 24.707031 44.53125 24.796875 44.476562 C 24.992188 44.367188 25.199219 44.273438 25.414062 44.199219 C 25.507812 44.167969 25.597656 44.128906 25.691406 44.105469 C 26 44.023438 26.320312 43.96875 26.652344 43.96875 C 26.949219 43.96875 27.238281 44.011719 27.519531 44.078125 C 27.605469 44.097656 27.6875 44.128906 27.769531 44.152344 C 27.96875 44.214844 28.160156 44.292969 28.34375 44.382812 C 28.425781 44.425781 28.507812 44.464844 28.585938 44.511719 C 28.789062 44.636719 28.980469 44.777344 29.160156 44.9375 C 29.199219 44.972656 29.242188 44.996094 29.28125 45.035156 C 29.289062 45.039062 29.292969 45.050781 29.300781 45.054688 Z M 6.675781 39.363281 L 12.359375 42.039062 L 21.988281 46.574219 L 26.480469 48.691406 C 26.609375 48.75 26.742188 48.78125 26.878906 48.78125 C 27.0625 48.78125 27.246094 48.726562 27.402344 48.621094 L 31.199219 46.050781 C 31.199219 46.046875 31.203125 46.046875 31.203125 46.046875 L 47.589844 34.964844 C 47.589844 34.960938 47.59375 34.964844 47.59375 34.960938 L 52.800781 31.4375 C 53.082031 31.246094 53.242188 30.917969 53.214844 30.578125 C 53.191406 30.238281 52.984375 29.9375 52.675781 29.792969 L 47.007812 27.125 C 47.007812 27.125 47.007812 27.125 47.007812 27.121094 C 47.003906 27.121094 47.003906 27.121094 47.003906 27.121094 L 39.019531 23.359375 L 39.019531 17.625 C 37.046875 18.867188 33.796875 19.519531 30.667969 19.519531 C 29.5625 19.519531 28.445312 19.433594 27.371094 19.273438 C 27.511719 19.59375 27.589844 19.929688 27.589844 20.289062 L 27.589844 24.40625 L 25.714844 25.59375 L 25.714844 23.0625 C 25.480469 23.210938 25.222656 23.347656 24.953125 23.480469 C 24.824219 23.542969 24.683594 23.597656 24.550781 23.65625 C 24.40625 23.71875 24.265625 23.785156 24.113281 23.839844 C 23.921875 23.914062 23.722656 23.976562 23.527344 24.042969 C 23.417969 24.078125 23.3125 24.117188 23.203125 24.148438 C 22.976562 24.21875 22.742188 24.28125 22.507812 24.339844 C 20.917969 24.742188 19.125 24.957031 17.359375 24.957031 C 14.234375 24.957031 10.984375 24.304688 9.007812 23.0625 L 9.007812 26.199219 C 9.007812 27.332031 12.261719 28.976562 17.359375 28.976562 C 18.628906 28.976562 19.78125 28.875 20.800781 28.703125 L 17.382812 30.867188 C 17.375 30.867188 17.367188 30.867188 17.359375 30.867188 C 14.171875 30.867188 10.960938 30.234375 9.007812 29.007812 L 9.007812 32.109375 C 9.007812 32.777344 10.164062 33.609375 12.132812 34.1875 L 11.867188 34.355469 L 6.574219 37.703125 C 6.285156 37.886719 6.117188 38.214844 6.136719 38.5625 C 6.160156 38.90625 6.363281 39.214844 6.675781 39.363281 " fill-opacity="1" fill-rule="nonzero"/><path fill="#100f0d" d="M 26.429688 32.832031 L 29.226562 34.683594 C 29.082031 34.820312 28.9375 34.933594 28.804688 35.015625 C 28.503906 35.203125 28.246094 35.324219 28.023438 35.382812 C 27.859375 35.425781 27.6875 35.445312 27.550781 35.414062 C 27.363281 35.371094 27.199219 35.3125 27.066406 35.242188 C 26.628906 34.988281 26.367188 34.605469 26.265625 34.078125 C 26.199219 33.707031 26.253906 33.289062 26.429688 32.832031 Z M 32.941406 33.773438 C 33.332031 33.710938 33.765625 33.84375 34.292969 34.199219 L 34.332031 34.226562 C 34.347656 34.238281 34.414062 34.292969 34.519531 34.441406 C 34.597656 34.539062 34.667969 34.679688 34.710938 34.820312 C 34.753906 34.992188 34.761719 35.214844 34.730469 35.464844 C 34.722656 35.550781 34.699219 35.640625 34.667969 35.746094 L 32.207031 34.117188 C 32.464844 33.929688 32.707031 33.816406 32.941406 33.773438 Z M 24.941406 31.851562 C 24.769531 32.207031 24.640625 32.5625 24.546875 32.9375 C 24.398438 33.535156 24.367188 34.066406 24.441406 34.554688 C 24.507812 35.054688 24.679688 35.527344 24.960938 35.957031 C 25.242188 36.386719 25.621094 36.722656 26.082031 36.96875 C 26.917969 37.382812 27.796875 37.445312 28.695312 37.152344 C 29.441406 36.894531 30.144531 36.390625 30.75 35.6875 L 33.5625 37.542969 C 33.183594 37.980469 32.804688 38.277344 32.433594 38.425781 C 31.945312 38.621094 31.503906 38.652344 31.132812 38.527344 C 30.71875 38.335938 30.246094 38.484375 29.960938 38.902344 C 29.742188 39.191406 29.71875 39.503906 29.769531 39.703125 C 29.800781 39.828125 29.914062 40.132812 30.28125 40.246094 C 30.707031 40.417969 31.132812 40.503906 31.558594 40.503906 C 32.078125 40.503906 32.59375 40.378906 33.105469 40.125 C 33.8125 39.769531 34.464844 39.230469 35.042969 38.519531 L 35.253906 38.660156 C 35.519531 38.835938 35.816406 38.878906 36.09375 38.777344 C 36.324219 38.695312 36.515625 38.542969 36.648438 38.339844 C 36.773438 38.144531 36.839844 37.910156 36.835938 37.660156 C 36.828125 37.34375 36.675781 37.074219 36.40625 36.894531 L 36.167969 36.738281 C 36.527344 35.917969 36.636719 35.167969 36.492188 34.5 C 36.320312 33.699219 35.953125 33.078125 35.414062 32.660156 C 35.132812 32.425781 34.8125 32.242188 34.449219 32.097656 C 34.066406 31.933594 33.644531 31.875 33.183594 31.871094 L 33.179688 31.871094 C 32.722656 31.894531 32.25 32.027344 31.78125 32.265625 C 31.414062 32.449219 31.039062 32.71875 30.648438 33.089844 L 27.785156 31.195312 C 27.996094 31.101562 28.207031 31.042969 28.421875 31.007812 C 28.613281 30.984375 28.8125 30.988281 29 31.03125 C 29.222656 31.089844 29.414062 31.164062 29.59375 31.257812 C 30.152344 31.535156 30.609375 31.246094 30.816406 30.84375 C 31.03125 30.421875 30.929688 29.976562 30.503906 29.558594 C 29.671875 29.039062 28.816406 28.886719 27.953125 29.113281 C 27.304688 29.28125 26.710938 29.621094 26.179688 30.132812 L 25.835938 29.90625 C 25.585938 29.738281 25.296875 29.710938 24.980469 29.808594 C 24.480469 30 24.207031 30.445312 24.253906 31.007812 C 24.28125 31.203125 24.378906 31.476562 24.683594 31.675781 L 24.941406 31.851562 " fill-opacity="1" fill-rule="nonzero"/></svg>