<svg xmlns="http://www.w3.org/2000/svg" xmlns:xlink="http://www.w3.org/1999/xlink" width="80" zoomAndPan="magnify" viewBox="0 0 60 60" height="80" preserveAspectRatio="xMidYMid meet" version="1.0"><defs><clipPath id="0daa814c2d"><path d="M 17.652344 14.375 L 42.402344 14.375 L 42.402344 39.125 L 17.652344 39.125 Z M 17.652344 14.375 " clip-rule="nonzero"/></clipPath><clipPath id="849278e463"><path d="M 6 6 L 54.75 6 L 54.75 54.75 L 6 54.75 Z M 6 6 " clip-rule="nonzero"/></clipPath><clipPath id="477edff8e6"><path d="M 29 31 L 45.5 31 L 45.5 37.058594 L 29 37.058594 Z M 29 31 " clip-rule="nonzero"/></clipPath><clipPath id="2be16f15aa"><path d="M 27.5 19.058594 L 45.5 19.058594 L 45.5 30 L 27.5 30 Z M 27.5 19.058594 " clip-rule="nonzero"/></clipPath></defs><rect x="-6" width="72" fill="#ffffff" y="-6" height="72" fill-opacity="1"/><rect x="-6" width="72" fill="#ffffff" y="-6" height="72" fill-opacity="1"/><g clip-path="url(#0daa814c2d)"><path fill="#ffffff" d="M 41.191406 24.609375 C 40.636719 24.253906 40.445312 23.539062 40.75 22.953125 C 41.140625 22.191406 41.121094 21.289062 40.691406 20.546875 C 40.261719 19.804688 39.492188 19.335938 38.636719 19.292969 C 37.976562 19.261719 37.453125 18.742188 37.421875 18.082031 C 37.382812 17.226562 36.914062 16.457031 36.167969 16.027344 C 35.425781 15.597656 34.527344 15.578125 33.765625 15.96875 C 33.179688 16.273438 32.464844 16.082031 32.109375 15.523438 C 31.644531 14.804688 30.859375 14.375 30 14.375 C 29.140625 14.375 28.351562 14.804688 27.890625 15.527344 C 27.53125 16.082031 26.820312 16.273438 26.230469 15.972656 C 25.46875 15.578125 24.570312 15.601562 23.828125 16.03125 C 23.085938 16.457031 22.617188 17.226562 22.574219 18.082031 C 22.542969 18.742188 22.019531 19.265625 21.359375 19.296875 C 20.503906 19.339844 19.734375 19.804688 19.308594 20.550781 C 18.878906 21.292969 18.855469 22.191406 19.25 22.953125 C 19.550781 23.539062 19.359375 24.253906 18.804688 24.609375 C 18.085938 25.074219 17.652344 25.863281 17.652344 26.722656 C 17.652344 27.578125 18.085938 28.367188 18.808594 28.832031 C 19.363281 29.1875 19.554688 29.902344 19.25 30.488281 C 18.859375 31.25 18.878906 32.152344 19.308594 32.894531 C 19.738281 33.636719 20.507812 34.105469 21.363281 34.148438 C 22.023438 34.179688 22.542969 34.699219 22.578125 35.359375 C 22.617188 36.214844 23.085938 36.984375 23.828125 37.414062 C 24.574219 37.84375 25.472656 37.863281 26.234375 37.472656 C 26.824219 37.167969 27.535156 37.359375 27.890625 37.917969 C 28.351562 38.636719 29.140625 39.066406 30 39.066406 C 30.859375 39.066406 31.644531 38.636719 32.109375 37.914062 C 32.46875 37.359375 33.179688 37.167969 33.769531 37.46875 C 34.53125 37.863281 35.429688 37.839844 36.171875 37.410156 C 36.914062 36.980469 37.382812 36.214844 37.425781 35.355469 C 37.457031 34.695312 37.976562 34.175781 38.640625 34.144531 C 39.496094 34.101562 40.265625 33.632812 40.691406 32.890625 C 41.121094 32.148438 41.144531 31.25 40.75 30.484375 C 40.449219 29.898438 40.640625 29.1875 41.195312 28.828125 C 41.914062 28.367188 42.34375 27.578125 42.34375 26.722656 C 42.34375 25.863281 41.914062 25.074219 41.191406 24.609375 Z M 40.527344 27.792969 C 39.433594 28.496094 39.058594 29.898438 39.652344 31.054688 C 39.855469 31.449219 39.84375 31.894531 39.625 32.277344 C 39.402344 32.660156 39.019531 32.890625 38.578125 32.910156 C 37.28125 32.972656 36.257812 34 36.191406 35.300781 C 36.171875 35.742188 35.941406 36.121094 35.558594 36.34375 C 35.175781 36.5625 34.726562 36.574219 34.335938 36.371094 C 33.179688 35.777344 31.777344 36.152344 31.074219 37.246094 C 30.832031 37.617188 30.441406 37.832031 30 37.832031 C 29.558594 37.832031 29.167969 37.617188 28.925781 37.246094 C 28.449219 36.503906 27.648438 36.09375 26.820312 36.09375 C 26.433594 36.09375 26.035156 36.183594 25.667969 36.375 C 25.273438 36.574219 24.828125 36.566406 24.445312 36.34375 C 24.0625 36.125 23.828125 35.742188 23.808594 35.300781 C 23.746094 34.003906 22.71875 32.976562 21.421875 32.914062 C 20.980469 32.890625 20.597656 32.660156 20.378906 32.277344 C 20.15625 31.894531 20.144531 31.449219 20.347656 31.054688 C 20.945312 29.898438 20.566406 28.5 19.476562 27.792969 C 19.101562 27.554688 18.886719 27.164062 18.886719 26.722656 C 18.886719 26.277344 19.101562 25.886719 19.472656 25.648438 C 20.566406 24.945312 20.941406 23.542969 20.347656 22.386719 C 20.144531 21.992188 20.15625 21.546875 20.375 21.164062 C 20.597656 20.78125 20.976562 20.550781 21.417969 20.53125 C 22.71875 20.46875 23.742188 19.441406 23.808594 18.140625 C 23.828125 17.699219 24.058594 17.320312 24.441406 17.097656 C 24.828125 16.878906 25.269531 16.867188 25.664062 17.070312 C 26.820312 17.664062 28.222656 17.289062 28.925781 16.195312 C 29.167969 15.824219 29.558594 15.609375 30 15.609375 C 30.441406 15.609375 30.832031 15.824219 31.074219 16.195312 C 31.777344 17.285156 33.175781 17.660156 34.332031 17.066406 C 34.726562 16.867188 35.171875 16.875 35.554688 17.097656 C 35.9375 17.316406 36.171875 17.699219 36.191406 18.140625 C 36.253906 19.4375 37.277344 20.464844 38.578125 20.527344 C 39.019531 20.550781 39.402344 20.78125 39.621094 21.164062 C 39.84375 21.546875 39.851562 21.992188 39.652344 22.386719 C 39.054688 23.542969 39.433594 24.941406 40.523438 25.648438 C 40.898438 25.886719 41.109375 26.277344 41.109375 26.722656 C 41.109375 27.164062 40.898438 27.554688 40.527344 27.792969 Z M 35.554688 23.378906 L 34.578125 22.398438 C 34.09375 21.917969 33.3125 21.917969 32.832031 22.398438 L 28.765625 26.464844 L 27.167969 24.867188 C 26.6875 24.386719 25.902344 24.386719 25.425781 24.867188 L 24.445312 25.847656 C 23.960938 26.328125 23.960938 27.109375 24.445312 27.59375 L 27.457031 30.605469 C 27.816406 30.964844 28.292969 31.148438 28.765625 31.148438 C 29.238281 31.148438 29.710938 30.964844 30.074219 30.605469 L 35.554688 25.125 C 36.035156 24.644531 36.035156 23.859375 35.554688 23.378906 Z M 29.203125 29.734375 C 28.960938 29.972656 28.570312 29.972656 28.328125 29.734375 L 25.316406 26.722656 L 26.296875 25.742188 L 28.328125 27.773438 C 28.570312 28.015625 28.960938 28.015625 29.203125 27.773438 L 33.703125 23.273438 L 34.683594 24.25 Z M 27.980469 34.515625 C 27.894531 34.769531 27.652344 34.933594 27.398438 34.933594 C 27.332031 34.933594 27.265625 34.921875 27.199219 34.898438 C 23.703125 33.699219 21.359375 30.414062 21.359375 26.722656 C 21.359375 22.464844 24.402344 18.875 28.597656 18.191406 C 28.9375 18.136719 29.253906 18.363281 29.308594 18.699219 C 29.363281 19.035156 29.132812 19.355469 28.796875 19.410156 C 25.203125 19.996094 22.59375 23.070312 22.59375 26.722656 C 22.59375 29.886719 24.605469 32.703125 27.597656 33.730469 C 27.921875 33.839844 28.09375 34.191406 27.980469 34.515625 Z M 30 34.746094 C 30 35.085938 29.722656 35.363281 29.382812 35.363281 C 29.042969 35.363281 28.765625 35.085938 28.765625 34.746094 C 28.765625 34.40625 29.042969 34.128906 29.382812 34.128906 C 29.722656 34.128906 30 34.40625 30 34.746094 Z M 38.640625 26.722656 C 38.640625 30.976562 35.597656 34.566406 31.402344 35.25 C 31.367188 35.257812 31.332031 35.257812 31.300781 35.257812 C 31.003906 35.257812 30.742188 35.042969 30.691406 34.738281 C 30.636719 34.402344 30.867188 34.085938 31.203125 34.03125 C 34.796875 33.445312 37.40625 30.371094 37.40625 26.722656 C 37.40625 23.554688 35.394531 20.738281 32.402344 19.710938 C 32.078125 19.601562 31.90625 19.25 32.015625 18.925781 C 32.125 18.605469 32.476562 18.433594 32.800781 18.542969 C 36.292969 19.742188 38.640625 23.027344 38.640625 26.722656 Z M 30 18.695312 C 30 18.355469 30.277344 18.078125 30.617188 18.078125 C 30.957031 18.078125 31.234375 18.355469 31.234375 18.695312 C 31.234375 19.035156 30.957031 19.3125 30.617188 19.3125 C 30.277344 19.3125 30 19.035156 30 18.695312 Z M 30 18.695312 " fill-opacity="1" fill-rule="nonzero"/></g><g clip-path="url(#849278e463)"><path fill="#221f1f" d="M 36.023438 6 C 25.683594 6 17.300781 14.382812 17.300781 24.726562 C 17.300781 28.964844 18.710938 32.878906 21.085938 36.015625 L 20.148438 36.957031 C 19.222656 36.371094 17.988281 36.480469 17.183594 37.285156 L 6.933594 47.539062 C 6 48.46875 6 49.980469 6.933594 50.914062 L 9.835938 53.820312 C 10.769531 54.75 12.28125 54.75 13.214844 53.820312 L 23.464844 43.566406 C 24.269531 42.761719 24.378906 41.527344 23.792969 40.601562 L 24.734375 39.664062 C 27.871094 42.039062 31.785156 43.449219 36.023438 43.449219 C 46.367188 43.449219 54.75 35.066406 54.75 24.726562 C 54.75 14.382812 46.367188 6 36.023438 6 Z M 47.207031 35.90625 C 44.222656 38.894531 40.25 40.539062 36.023438 40.539062 C 31.800781 40.539062 27.828125 38.894531 24.84375 35.90625 C 21.855469 32.921875 20.210938 28.949219 20.210938 24.726562 C 20.210938 20.5 21.855469 16.527344 24.84375 13.542969 C 27.828125 10.554688 31.800781 8.910156 36.023438 8.910156 C 40.25 8.910156 44.222656 10.554688 47.207031 13.542969 C 50.195312 16.527344 51.839844 20.5 51.839844 24.726562 C 51.839844 28.949219 50.195312 32.921875 47.207031 35.90625 Z M 47.207031 35.90625 " fill-opacity="1" fill-rule="nonzero"/></g><path fill="#221f1f" d="M 38.097656 12.570312 C 38.097656 12.777344 38.058594 12.976562 37.980469 13.164062 C 37.902344 13.355469 37.789062 13.523438 37.644531 13.667969 C 37.5 13.8125 37.332031 13.925781 37.140625 14.003906 C 36.953125 14.082031 36.753906 14.121094 36.550781 14.121094 C 36.34375 14.121094 36.144531 14.082031 35.957031 14.003906 C 35.765625 13.925781 35.597656 13.8125 35.453125 13.667969 C 35.308594 13.523438 35.195312 13.355469 35.117188 13.164062 C 35.039062 12.976562 35 12.777344 35 12.570312 C 35 12.367188 35.039062 12.167969 35.117188 11.980469 C 35.195312 11.789062 35.308594 11.621094 35.453125 11.476562 C 35.597656 11.332031 35.765625 11.21875 35.957031 11.140625 C 36.144531 11.0625 36.34375 11.023438 36.550781 11.023438 C 36.753906 11.023438 36.953125 11.0625 37.140625 11.140625 C 37.332031 11.21875 37.5 11.332031 37.644531 11.476562 C 37.789062 11.621094 37.902344 11.789062 37.980469 11.980469 C 38.058594 12.167969 38.097656 12.367188 38.097656 12.570312 Z M 38.097656 12.570312 " fill-opacity="1" fill-rule="nonzero"/><path fill="#221f1f" d="M 32.515625 11.707031 C 32.339844 11.742188 28.167969 12.640625 25.175781 16.433594 C 24.625 17.125 24.742188 18.132812 25.4375 18.679688 C 25.734375 18.914062 26.082031 19.027344 26.429688 19.027344 C 26.902344 19.027344 27.371094 18.816406 27.6875 18.417969 C 29.925781 15.582031 33.105469 14.855469 33.167969 14.839844 C 34.03125 14.660156 34.582031 13.8125 34.40625 12.949219 C 34.226562 12.085938 33.378906 11.527344 32.515625 11.707031 Z M 32.515625 11.707031 " fill-opacity="1" fill-rule="nonzero"/><g clip-path="url(#477edff8e6)"><path fill="#000000" d="M 42.5 32.027344 L 41.734375 31.570312 C 41.5 31.429688 41.242188 31.359375 40.964844 31.359375 L 39.816406 31.359375 C 39.578125 31.355469 39.347656 31.386719 39.117188 31.449219 L 35.652344 32.378906 C 35.25 32.488281 34.976562 32.742188 34.835938 33.132812 L 31.789062 31.484375 C 31.535156 31.339844 31.261719 31.296875 30.972656 31.351562 C 30.867188 31.371094 30.765625 31.402344 30.671875 31.449219 C 30.449219 31.554688 30.277344 31.714844 30.15625 31.929688 C 30.050781 32.113281 29.996094 32.3125 29.996094 32.527344 C 29.992188 32.988281 30.191406 33.335938 30.589844 33.566406 L 36.050781 36.832031 C 36.292969 36.984375 36.558594 37.058594 36.839844 37.058594 L 41.070312 37.058594 C 41.257812 37.058594 41.441406 37.023438 41.621094 36.953125 L 42.5 36.605469 L 42.5 37.058594 L 45.5 37.058594 L 45.5 31.058594 L 42.5 31.058594 Z M 41.398438 36.394531 C 41.292969 36.4375 41.183594 36.457031 41.070312 36.457031 L 36.839844 36.457031 C 36.667969 36.457031 36.507812 36.410156 36.363281 36.320312 L 30.894531 33.046875 C 30.695312 32.933594 30.59375 32.757812 30.597656 32.527344 C 30.597656 32.421875 30.625 32.320312 30.675781 32.226562 C 30.738281 32.121094 30.824219 32.042969 30.933594 31.988281 C 30.980469 31.964844 31.03125 31.949219 31.085938 31.941406 C 31.121094 31.933594 31.160156 31.929688 31.199219 31.929688 C 31.304688 31.929688 31.402344 31.957031 31.492188 32.007812 L 34.796875 33.792969 C 34.800781 33.8125 34.800781 33.832031 34.804688 33.847656 C 34.878906 34.109375 35.019531 34.324219 35.234375 34.488281 C 35.453125 34.652344 35.695312 34.734375 35.964844 34.738281 C 36.132812 34.722656 36.296875 34.691406 36.460938 34.648438 L 39.578125 33.8125 L 39.421875 33.234375 L 36.316406 34.066406 C 36.179688 34.097656 36.003906 34.132812 35.964844 34.136719 C 35.832031 34.136719 35.710938 34.09375 35.601562 34.011719 C 35.492188 33.929688 35.421875 33.824219 35.386719 33.695312 C 35.375 33.65625 35.371094 33.621094 35.367188 33.582031 C 35.367188 33.582031 35.367188 33.511719 35.367188 33.484375 C 35.394531 33.207031 35.542969 33.03125 35.808594 32.957031 L 39.273438 32.027344 C 39.449219 31.980469 39.632812 31.957031 39.816406 31.957031 L 40.964844 31.957031 C 41.132812 31.957031 41.285156 32 41.425781 32.085938 L 42.5 32.726562 L 42.5 35.960938 Z M 43.101562 31.65625 L 44.898438 31.65625 L 44.898438 36.457031 L 43.101562 36.457031 Z M 43.101562 31.65625 " fill-opacity="1" fill-rule="nonzero"/></g><g clip-path="url(#2be16f15aa)"><path fill="#000000" d="M 39.875 21.457031 L 38.265625 19.847656 C 37.738281 19.320312 37.101562 19.054688 36.355469 19.058594 L 32.582031 19.058594 C 32.347656 19.058594 32.125 19.109375 31.914062 19.214844 L 31.238281 19.550781 C 31.101562 19.621094 30.957031 19.652344 30.804688 19.644531 L 30.5 19.636719 L 30.5 19.058594 L 27.5 19.058594 L 27.5 25.65625 L 30.5 25.65625 L 30.5 24.757812 L 31.011719 24.757812 L 31.191406 24.878906 C 31.710938 25.222656 32.277344 25.40625 32.898438 25.425781 L 32.898438 29.257812 L 45.5 29.257812 L 45.5 21.457031 Z M 29.898438 25.058594 L 28.101562 25.058594 L 28.101562 19.65625 L 29.898438 19.65625 Z M 31.523438 24.378906 L 31.191406 24.15625 L 30.5 24.15625 L 30.5 20.234375 L 30.78125 20.246094 C 31.039062 20.253906 31.28125 20.203125 31.507812 20.089844 L 32.179688 19.753906 C 32.308594 19.6875 32.441406 19.65625 32.582031 19.65625 L 36.355469 19.65625 C 36.933594 19.65625 37.429688 19.859375 37.839844 20.273438 L 39.023438 21.457031 L 36.550781 21.457031 L 35.820312 20.730469 L 35.398438 21.152344 L 37.515625 23.273438 C 37.632812 23.390625 37.691406 23.53125 37.695312 23.699219 C 37.695312 23.863281 37.636719 24.007812 37.519531 24.125 C 37.402344 24.242188 37.257812 24.300781 37.09375 24.300781 C 36.925781 24.300781 36.785156 24.242188 36.667969 24.125 L 34.898438 22.355469 L 34.6875 22.535156 C 34.398438 22.78125 34.0625 22.90625 33.679688 22.914062 C 33.300781 22.917969 32.960938 22.804688 32.664062 22.566406 L 32.492188 22.425781 L 32.113281 22.890625 L 32.289062 23.03125 C 32.472656 23.179688 32.675781 23.296875 32.898438 23.378906 L 32.898438 24.828125 C 32.398438 24.804688 31.941406 24.65625 31.523438 24.378906 Z M 35.792969 24.097656 L 36.242188 24.550781 C 36.355469 24.660156 36.488281 24.746094 36.632812 24.808594 C 36.78125 24.867188 36.933594 24.898438 37.089844 24.898438 C 37.25 24.898438 37.402344 24.867188 37.550781 24.808594 C 37.695312 24.75 37.824219 24.664062 37.9375 24.550781 C 37.867188 24.660156 37.8125 24.777344 37.773438 24.898438 C 37.730469 25.023438 37.707031 25.148438 37.699219 25.277344 C 37.691406 25.40625 37.699219 25.535156 37.722656 25.660156 C 37.746094 25.789062 37.789062 25.910156 37.84375 26.027344 C 37.898438 26.144531 37.96875 26.25 38.050781 26.351562 C 38.132812 26.449219 38.226562 26.535156 38.332031 26.613281 C 38.4375 26.6875 38.550781 26.746094 38.671875 26.792969 C 38.792969 26.839844 38.917969 26.871094 39.046875 26.882812 C 39.175781 26.898438 39.304688 26.898438 39.429688 26.878906 C 39.558594 26.859375 39.683594 26.824219 39.800781 26.773438 C 39.921875 26.726562 40.03125 26.660156 40.136719 26.582031 C 40.238281 26.503906 40.328125 26.414062 40.410156 26.3125 C 40.488281 26.210938 40.554688 26.101562 40.605469 25.980469 C 40.65625 25.863281 40.695312 25.738281 40.714844 25.613281 C 40.734375 25.484375 40.738281 25.355469 40.726562 25.226562 C 40.710938 25.097656 40.683594 24.972656 40.640625 24.851562 C 40.59375 24.730469 40.535156 24.617188 40.460938 24.511719 C 40.386719 24.402344 40.300781 24.308594 40.203125 24.222656 C 40.105469 24.140625 40 24.070312 39.882812 24.011719 C 39.765625 23.957031 39.644531 23.914062 39.519531 23.886719 C 39.390625 23.863281 39.265625 23.851562 39.132812 23.859375 C 39.003906 23.867188 38.878906 23.890625 38.757812 23.929688 C 38.632812 23.96875 38.515625 24.019531 38.40625 24.089844 C 38.296875 24.160156 38.199219 24.238281 38.109375 24.335938 C 38.328125 23.992188 38.359375 23.632812 38.207031 23.257812 L 42.226562 23.257812 C 42.289062 23.636719 42.457031 23.960938 42.726562 24.230469 C 43 24.5 43.324219 24.667969 43.699219 24.734375 L 43.699219 25.984375 C 43.324219 26.046875 43 26.214844 42.726562 26.484375 C 42.457031 26.757812 42.289062 27.082031 42.226562 27.457031 L 36.175781 27.457031 C 36.109375 27.082031 35.941406 26.757812 35.671875 26.484375 C 35.402344 26.214844 35.078125 26.046875 34.699219 25.984375 L 34.699219 24.734375 C 35.144531 24.65625 35.507812 24.445312 35.792969 24.097656 Z M 38.300781 25.359375 C 38.300781 25.109375 38.386719 24.898438 38.5625 24.722656 C 38.738281 24.546875 38.953125 24.457031 39.199219 24.457031 C 39.449219 24.457031 39.660156 24.546875 39.835938 24.722656 C 40.011719 24.898438 40.101562 25.109375 40.101562 25.359375 C 40.101562 25.605469 40.011719 25.816406 39.835938 25.992188 C 39.660156 26.167969 39.449219 26.257812 39.199219 26.257812 C 38.953125 26.257812 38.738281 26.167969 38.5625 25.992188 C 38.386719 25.816406 38.300781 25.605469 38.300781 25.359375 Z M 44.898438 28.65625 L 33.5 28.65625 L 33.5 23.503906 C 33.988281 23.539062 34.4375 23.425781 34.851562 23.160156 L 35.363281 23.671875 C 35.125 23.996094 34.800781 24.15625 34.398438 24.15625 L 34.101562 24.15625 L 34.101562 26.558594 L 34.398438 26.558594 C 34.558594 26.558594 34.710938 26.589844 34.859375 26.648438 C 35.007812 26.710938 35.136719 26.796875 35.25 26.910156 C 35.359375 27.023438 35.449219 27.152344 35.507812 27.296875 C 35.570312 27.445312 35.601562 27.597656 35.601562 27.757812 L 35.601562 28.058594 L 42.800781 28.058594 L 42.800781 27.757812 C 42.800781 27.597656 42.832031 27.445312 42.890625 27.296875 C 42.953125 27.152344 43.039062 27.023438 43.152344 26.910156 C 43.265625 26.796875 43.394531 26.710938 43.539062 26.648438 C 43.6875 26.589844 43.839844 26.558594 44 26.558594 L 44.300781 26.558594 L 44.300781 24.15625 L 44 24.15625 C 43.839844 24.15625 43.6875 24.128906 43.539062 24.066406 C 43.394531 24.003906 43.265625 23.917969 43.152344 23.804688 C 43.039062 23.695312 42.953125 23.5625 42.890625 23.417969 C 42.832031 23.269531 42.800781 23.117188 42.800781 22.957031 L 42.800781 22.65625 L 37.75 22.65625 L 37.148438 22.058594 L 44.898438 22.058594 Z M 44.898438 28.65625 " fill-opacity="1" fill-rule="nonzero"/></g></svg>