<svg xmlns="http://www.w3.org/2000/svg" xmlns:xlink="http://www.w3.org/1999/xlink" width="80" zoomAndPan="magnify" viewBox="0 0 60 60" height="80" preserveAspectRatio="xMidYMid meet" version="1.0"><defs><clipPath id="bf426033f3"><path d="M 17.652344 14.375 L 42.402344 14.375 L 42.402344 39.125 L 17.652344 39.125 Z M 17.652344 14.375 " clip-rule="nonzero"/></clipPath><clipPath id="ccec417f94"><path d="M 10.085938 2.324219 L 49.835938 2.324219 L 49.835938 57.824219 L 10.085938 57.824219 Z M 10.085938 2.324219 " clip-rule="nonzero"/></clipPath></defs><rect x="-6" width="72" fill="#ffffff" y="-6" height="72" fill-opacity="1"/><rect x="-6" width="72" fill="#ffffff" y="-6" height="72" fill-opacity="1"/><g clip-path="url(#bf426033f3)"><path fill="#ffffff" d="M 41.191406 24.609375 C 40.636719 24.253906 40.445312 23.539062 40.75 22.953125 C 41.140625 22.191406 41.121094 21.289062 40.691406 20.546875 C 40.261719 19.804688 39.492188 19.335938 38.636719 19.292969 C 37.976562 19.261719 37.453125 18.742188 37.421875 18.082031 C 37.382812 17.226562 36.914062 16.457031 36.167969 16.027344 C 35.425781 15.597656 34.527344 15.578125 33.765625 15.96875 C 33.179688 16.273438 32.464844 16.082031 32.109375 15.523438 C 31.644531 14.804688 30.859375 14.375 30 14.375 C 29.140625 14.375 28.351562 14.804688 27.890625 15.527344 C 27.53125 16.082031 26.820312 16.273438 26.230469 15.972656 C 25.46875 15.578125 24.570312 15.601562 23.828125 16.03125 C 23.085938 16.457031 22.617188 17.226562 22.574219 18.082031 C 22.542969 18.742188 22.019531 19.265625 21.359375 19.296875 C 20.503906 19.339844 19.734375 19.804688 19.308594 20.550781 C 18.878906 21.292969 18.855469 22.191406 19.25 22.953125 C 19.550781 23.539062 19.359375 24.253906 18.804688 24.609375 C 18.085938 25.074219 17.652344 25.863281 17.652344 26.722656 C 17.652344 27.578125 18.085938 28.367188 18.808594 28.832031 C 19.363281 29.1875 19.554688 29.902344 19.25 30.488281 C 18.859375 31.25 18.878906 32.152344 19.308594 32.894531 C 19.738281 33.636719 20.507812 34.105469 21.363281 34.148438 C 22.023438 34.179688 22.542969 34.699219 22.578125 35.359375 C 22.617188 36.214844 23.085938 36.984375 23.828125 37.414062 C 24.574219 37.84375 25.472656 37.863281 26.234375 37.472656 C 26.824219 37.167969 27.535156 37.359375 27.890625 37.917969 C 28.351562 38.636719 29.140625 39.066406 30 39.066406 C 30.859375 39.066406 31.644531 38.636719 32.109375 37.914062 C 32.46875 37.359375 33.179688 37.167969 33.769531 37.46875 C 34.53125 37.863281 35.429688 37.839844 36.171875 37.410156 C 36.914062 36.980469 37.382812 36.214844 37.425781 35.355469 C 37.457031 34.695312 37.976562 34.175781 38.640625 34.144531 C 39.496094 34.101562 40.265625 33.632812 40.691406 32.890625 C 41.121094 32.148438 41.144531 31.25 40.75 30.484375 C 40.449219 29.898438 40.640625 29.1875 41.195312 28.828125 C 41.914062 28.367188 42.34375 27.578125 42.34375 26.722656 C 42.34375 25.863281 41.914062 25.074219 41.191406 24.609375 Z M 40.527344 27.792969 C 39.433594 28.496094 39.058594 29.898438 39.652344 31.054688 C 39.855469 31.449219 39.84375 31.894531 39.625 32.277344 C 39.402344 32.660156 39.019531 32.890625 38.578125 32.910156 C 37.28125 32.972656 36.257812 34 36.191406 35.300781 C 36.171875 35.742188 35.941406 36.121094 35.558594 36.34375 C 35.175781 36.5625 34.726562 36.574219 34.335938 36.371094 C 33.179688 35.777344 31.777344 36.152344 31.074219 37.246094 C 30.832031 37.617188 30.441406 37.832031 30 37.832031 C 29.558594 37.832031 29.167969 37.617188 28.925781 37.246094 C 28.449219 36.503906 27.648438 36.09375 26.820312 36.09375 C 26.433594 36.09375 26.035156 36.183594 25.667969 36.375 C 25.273438 36.574219 24.828125 36.566406 24.445312 36.34375 C 24.0625 36.125 23.828125 35.742188 23.808594 35.300781 C 23.746094 34.003906 22.71875 32.976562 21.421875 32.914062 C 20.980469 32.890625 20.597656 32.660156 20.378906 32.277344 C 20.15625 31.894531 20.144531 31.449219 20.347656 31.054688 C 20.945312 29.898438 20.566406 28.5 19.476562 27.792969 C 19.101562 27.554688 18.886719 27.164062 18.886719 26.722656 C 18.886719 26.277344 19.101562 25.886719 19.472656 25.648438 C 20.566406 24.945312 20.941406 23.542969 20.347656 22.386719 C 20.144531 21.992188 20.15625 21.546875 20.375 21.164062 C 20.597656 20.78125 20.976562 20.550781 21.417969 20.53125 C 22.71875 20.46875 23.742188 19.441406 23.808594 18.140625 C 23.828125 17.699219 24.058594 17.320312 24.441406 17.097656 C 24.828125 16.878906 25.269531 16.867188 25.664062 17.070312 C 26.820312 17.664062 28.222656 17.289062 28.925781 16.195312 C 29.167969 15.824219 29.558594 15.609375 30 15.609375 C 30.441406 15.609375 30.832031 15.824219 31.074219 16.195312 C 31.777344 17.285156 33.175781 17.660156 34.332031 17.066406 C 34.726562 16.867188 35.171875 16.875 35.554688 17.097656 C 35.9375 17.316406 36.171875 17.699219 36.191406 18.140625 C 36.253906 19.4375 37.277344 20.464844 38.578125 20.527344 C 39.019531 20.550781 39.402344 20.78125 39.621094 21.164062 C 39.84375 21.546875 39.851562 21.992188 39.652344 22.386719 C 39.054688 23.542969 39.433594 24.941406 40.523438 25.648438 C 40.898438 25.886719 41.109375 26.277344 41.109375 26.722656 C 41.109375 27.164062 40.898438 27.554688 40.527344 27.792969 Z M 35.554688 23.378906 L 34.578125 22.398438 C 34.09375 21.917969 33.3125 21.917969 32.832031 22.398438 L 28.765625 26.464844 L 27.167969 24.867188 C 26.6875 24.386719 25.902344 24.386719 25.425781 24.867188 L 24.445312 25.847656 C 23.960938 26.328125 23.960938 27.109375 24.445312 27.59375 L 27.457031 30.605469 C 27.816406 30.964844 28.292969 31.148438 28.765625 31.148438 C 29.238281 31.148438 29.710938 30.964844 30.074219 30.605469 L 35.554688 25.125 C 36.035156 24.644531 36.035156 23.859375 35.554688 23.378906 Z M 29.203125 29.734375 C 28.960938 29.972656 28.570312 29.972656 28.328125 29.734375 L 25.316406 26.722656 L 26.296875 25.742188 L 28.328125 27.773438 C 28.570312 28.015625 28.960938 28.015625 29.203125 27.773438 L 33.703125 23.273438 L 34.683594 24.25 Z M 27.980469 34.515625 C 27.894531 34.769531 27.652344 34.933594 27.398438 34.933594 C 27.332031 34.933594 27.265625 34.921875 27.199219 34.898438 C 23.703125 33.699219 21.359375 30.414062 21.359375 26.722656 C 21.359375 22.464844 24.402344 18.875 28.597656 18.191406 C 28.9375 18.136719 29.253906 18.363281 29.308594 18.699219 C 29.363281 19.035156 29.132812 19.355469 28.796875 19.410156 C 25.203125 19.996094 22.59375 23.070312 22.59375 26.722656 C 22.59375 29.886719 24.605469 32.703125 27.597656 33.730469 C 27.921875 33.839844 28.09375 34.191406 27.980469 34.515625 Z M 30 34.746094 C 30 35.085938 29.722656 35.363281 29.382812 35.363281 C 29.042969 35.363281 28.765625 35.085938 28.765625 34.746094 C 28.765625 34.40625 29.042969 34.128906 29.382812 34.128906 C 29.722656 34.128906 30 34.40625 30 34.746094 Z M 38.640625 26.722656 C 38.640625 30.976562 35.597656 34.566406 31.402344 35.25 C 31.367188 35.257812 31.332031 35.257812 31.300781 35.257812 C 31.003906 35.257812 30.742188 35.042969 30.691406 34.738281 C 30.636719 34.402344 30.867188 34.085938 31.203125 34.03125 C 34.796875 33.445312 37.40625 30.371094 37.40625 26.722656 C 37.40625 23.554688 35.394531 20.738281 32.402344 19.710938 C 32.078125 19.601562 31.90625 19.25 32.015625 18.925781 C 32.125 18.605469 32.476562 18.433594 32.800781 18.542969 C 36.292969 19.742188 38.640625 23.027344 38.640625 26.722656 Z M 30 18.695312 C 30 18.355469 30.277344 18.078125 30.617188 18.078125 C 30.957031 18.078125 31.234375 18.355469 31.234375 18.695312 C 31.234375 19.035156 30.957031 19.3125 30.617188 19.3125 C 30.277344 19.3125 30 19.035156 30 18.695312 Z M 30 18.695312 " fill-opacity="1" fill-rule="nonzero"/></g><path fill="#231f20" d="M 24.566406 33.917969 C 26.328125 34.667969 28.199219 35.046875 30.128906 35.046875 C 32.058594 35.046875 33.929688 34.667969 35.691406 33.917969 C 37.390625 33.195312 38.917969 32.164062 40.230469 30.84375 C 41.542969 29.527344 42.574219 27.992188 43.292969 26.28125 C 44.039062 24.511719 44.414062 22.632812 44.414062 20.695312 C 44.414062 18.757812 44.039062 16.878906 43.292969 15.109375 C 42.574219 13.402344 41.542969 11.867188 40.230469 10.546875 C 38.917969 9.230469 37.390625 8.195312 35.691406 7.472656 C 33.929688 6.722656 32.058594 6.34375 30.128906 6.34375 C 28.199219 6.34375 26.328125 6.722656 24.566406 7.472656 C 22.867188 8.195312 21.339844 9.230469 20.027344 10.546875 C 18.714844 11.867188 17.683594 13.402344 16.964844 15.109375 C 16.21875 16.878906 15.839844 18.757812 15.839844 20.695312 C 15.839844 22.632812 16.21875 24.511719 16.964844 26.28125 C 17.683594 27.992188 18.714844 29.527344 20.027344 30.84375 C 21.339844 32.164062 22.867188 33.195312 24.566406 33.917969 Z M 16.992188 20.695312 C 16.992188 18.914062 17.339844 17.1875 18.023438 15.558594 C 18.683594 13.988281 19.632812 12.578125 20.839844 11.363281 C 22.046875 10.152344 23.449219 9.199219 25.015625 8.535156 C 26.632812 7.847656 28.355469 7.5 30.128906 7.5 C 31.902344 7.5 33.621094 7.847656 35.242188 8.535156 C 36.804688 9.199219 38.210938 10.152344 39.417969 11.363281 C 40.625 12.578125 41.570312 13.988281 42.234375 15.558594 C 42.917969 17.1875 43.265625 18.914062 43.265625 20.695312 C 43.265625 22.476562 42.917969 24.207031 42.234375 25.832031 C 41.570312 27.402344 40.625 28.816406 39.417969 30.027344 C 38.210938 31.238281 36.804688 32.191406 35.242188 32.855469 C 33.621094 33.542969 31.902344 33.894531 30.128906 33.894531 C 28.355469 33.894531 26.632812 33.542969 25.015625 32.855469 C 23.449219 32.191406 22.046875 31.238281 20.839844 30.027344 C 19.632812 28.816406 18.683594 27.402344 18.023438 25.832031 C 17.339844 24.207031 16.992188 22.476562 16.992188 20.695312 Z M 16.992188 20.695312 " fill-opacity="1" fill-rule="nonzero"/><path fill="#231f20" d="M 25.769531 27 C 25.871094 27.121094 26.019531 27.199219 26.179688 27.207031 C 26.191406 27.207031 26.199219 27.207031 26.210938 27.207031 C 26.359375 27.207031 26.503906 27.148438 26.609375 27.042969 L 37.367188 16.546875 C 37.59375 16.324219 37.597656 15.960938 37.378906 15.730469 C 37.15625 15.503906 36.792969 15.496094 36.566406 15.71875 L 26.253906 25.78125 L 22.75 21.558594 C 22.542969 21.3125 22.183594 21.28125 21.9375 21.484375 C 21.695312 21.6875 21.660156 22.054688 21.863281 22.296875 Z M 25.769531 27 " fill-opacity="1" fill-rule="nonzero"/><g clip-path="url(#ccec417f94)"><path fill="#231f20" d="M 49.753906 52.128906 L 42.652344 34.125 C 42.867188 33.824219 43.023438 33.484375 43.117188 33.117188 L 43.117188 33.113281 C 43.261719 32.542969 43.671875 32.070312 44.210938 31.84375 C 44.214844 31.84375 44.214844 31.84375 44.214844 31.84375 C 44.785156 31.605469 45.265625 31.207031 45.597656 30.683594 C 45.933594 30.164062 46.097656 29.558594 46.078125 28.941406 L 46.078125 28.933594 C 46.058594 28.347656 46.316406 27.777344 46.769531 27.410156 C 46.773438 27.410156 46.773438 27.410156 46.773438 27.410156 C 47.253906 27.019531 47.601562 26.496094 47.773438 25.902344 C 47.949219 25.304688 47.9375 24.679688 47.742188 24.089844 C 47.742188 24.089844 47.742188 24.089844 47.742188 24.085938 C 47.554688 23.53125 47.644531 22.910156 47.976562 22.425781 L 47.980469 22.421875 C 48.332031 21.914062 48.519531 21.316406 48.519531 20.695312 C 48.519531 20.078125 48.332031 19.480469 47.980469 18.96875 L 47.976562 18.964844 C 47.644531 18.484375 47.558594 17.863281 47.742188 17.304688 C 47.9375 16.714844 47.949219 16.089844 47.773438 15.492188 C 47.601562 14.894531 47.253906 14.375 46.773438 13.984375 C 46.316406 13.617188 46.058594 13.046875 46.078125 12.457031 L 46.078125 12.453125 C 46.097656 11.835938 45.933594 11.230469 45.597656 10.707031 C 45.265625 10.1875 44.785156 9.785156 44.214844 9.546875 C 43.671875 9.324219 43.261719 8.847656 43.117188 8.277344 C 42.964844 7.675781 42.636719 7.144531 42.171875 6.738281 C 41.703125 6.328125 41.132812 6.078125 40.519531 6.011719 L 40.515625 6.011719 C 39.933594 5.949219 39.410156 5.609375 39.113281 5.105469 C 39.109375 5.105469 39.109375 5.105469 39.109375 5.101562 C 38.796875 4.570312 38.332031 4.148438 37.769531 3.890625 C 37.207031 3.632812 36.585938 3.554688 35.980469 3.664062 L 35.976562 3.664062 C 35.402344 3.769531 34.804688 3.59375 34.375 3.195312 L 34.371094 3.191406 C 33.917969 2.769531 33.355469 2.5 32.746094 2.410156 C 32.132812 2.324219 31.519531 2.425781 30.964844 2.703125 C 30.441406 2.964844 29.816406 2.964844 29.292969 2.703125 C 28.738281 2.425781 28.125 2.324219 27.511719 2.410156 C 26.902344 2.5 26.335938 2.769531 25.886719 3.191406 L 25.882812 3.195312 C 25.453125 3.59375 24.855469 3.769531 24.28125 3.664062 L 24.277344 3.664062 C 23.667969 3.554688 23.050781 3.632812 22.488281 3.890625 C 21.925781 4.148438 21.460938 4.570312 21.148438 5.101562 C 21.148438 5.101562 21.148438 5.101562 21.148438 5.105469 C 20.847656 5.609375 20.324219 5.949219 19.742188 6.011719 L 19.738281 6.011719 C 19.125 6.078125 18.554688 6.332031 18.085938 6.738281 C 17.621094 7.144531 17.292969 7.675781 17.140625 8.277344 C 16.996094 8.847656 16.585938 9.324219 16.042969 9.546875 C 16.042969 9.546875 16.039062 9.546875 16.039062 9.550781 C 15.46875 9.785156 14.992188 10.1875 14.660156 10.707031 C 14.324219 11.230469 14.160156 11.835938 14.179688 12.453125 L 14.179688 12.457031 C 14.199219 13.042969 13.941406 13.613281 13.484375 13.984375 C 13.003906 14.375 12.65625 14.894531 12.480469 15.492188 C 12.308594 16.089844 12.320312 16.714844 12.515625 17.304688 C 12.699219 17.863281 12.613281 18.484375 12.277344 18.964844 L 12.277344 18.96875 C 11.925781 19.480469 11.738281 20.078125 11.738281 20.695312 C 11.738281 21.316406 11.925781 21.914062 12.277344 22.421875 L 12.277344 22.425781 C 12.613281 22.910156 12.699219 23.53125 12.515625 24.089844 C 12.320312 24.679688 12.308594 25.304688 12.480469 25.902344 C 12.65625 26.496094 13.003906 27.019531 13.484375 27.40625 C 13.484375 27.40625 13.484375 27.410156 13.484375 27.410156 C 13.941406 27.777344 14.199219 28.347656 14.179688 28.933594 L 14.179688 28.9375 C 14.160156 29.558594 14.324219 30.164062 14.660156 30.683594 C 14.992188 31.207031 15.472656 31.605469 16.042969 31.84375 C 16.539062 32.050781 16.921875 32.464844 17.09375 32.96875 L 10.164062 51.988281 C 10.089844 52.1875 10.128906 52.40625 10.265625 52.5625 C 10.402344 52.722656 10.609375 52.796875 10.816406 52.753906 L 18.726562 51.167969 L 23.808594 57.320312 C 23.921875 57.453125 24.082031 57.53125 24.253906 57.53125 C 24.285156 57.53125 24.316406 57.527344 24.351562 57.523438 C 24.550781 57.488281 24.722656 57.34375 24.792969 57.152344 L 30.023438 42.800781 L 35.804688 57.457031 C 35.882812 57.652344 36.054688 57.789062 36.261719 57.816406 C 36.285156 57.820312 36.3125 57.824219 36.339844 57.824219 C 36.515625 57.824219 36.6875 57.742188 36.796875 57.597656 L 41.460938 51.472656 L 49.117188 52.910156 C 49.320312 52.949219 49.53125 52.871094 49.664062 52.710938 C 49.796875 52.546875 49.832031 52.324219 49.753906 52.128906 Z M 16.480469 30.777344 C 16.128906 30.628906 15.832031 30.382812 15.625 30.058594 C 15.417969 29.734375 15.316406 29.363281 15.328125 28.976562 C 15.34375 28.507812 15.25 28.035156 15.058594 27.609375 C 14.863281 27.183594 14.570312 26.804688 14.207031 26.511719 C 14.207031 26.511719 14.207031 26.507812 14.207031 26.507812 C 13.90625 26.269531 13.691406 25.945312 13.585938 25.578125 C 13.476562 25.207031 13.484375 24.820312 13.605469 24.453125 C 13.753906 24.011719 13.796875 23.53125 13.730469 23.066406 C 13.664062 22.601562 13.488281 22.152344 13.222656 21.769531 L 13.222656 21.765625 C 13.003906 21.449219 12.890625 21.082031 12.890625 20.695312 C 12.890625 20.3125 13.003906 19.941406 13.222656 19.628906 L 13.222656 19.625 C 13.488281 19.238281 13.664062 18.789062 13.730469 18.328125 C 13.796875 17.863281 13.753906 17.382812 13.605469 16.9375 C 13.484375 16.574219 13.476562 16.183594 13.585938 15.816406 C 13.691406 15.449219 13.90625 15.125 14.207031 14.882812 C 14.570312 14.589844 14.863281 14.207031 15.058594 13.785156 C 15.25 13.359375 15.34375 12.886719 15.328125 12.417969 L 15.328125 12.414062 C 15.316406 12.03125 15.417969 11.65625 15.625 11.332031 C 15.832031 11.011719 16.128906 10.761719 16.480469 10.617188 C 16.480469 10.613281 16.484375 10.613281 16.484375 10.613281 C 16.914062 10.433594 17.304688 10.152344 17.609375 9.800781 C 17.914062 9.445312 18.136719 9.019531 18.253906 8.5625 C 18.347656 8.191406 18.550781 7.859375 18.839844 7.609375 C 19.128906 7.355469 19.480469 7.203125 19.859375 7.160156 L 19.863281 7.160156 C 20.328125 7.109375 20.78125 6.949219 21.171875 6.695312 C 21.566406 6.441406 21.898438 6.09375 22.136719 5.691406 C 22.332031 5.359375 22.617188 5.101562 22.964844 4.941406 C 23.3125 4.78125 23.699219 4.734375 24.074219 4.800781 L 24.078125 4.800781 C 24.535156 4.882812 25.011719 4.859375 25.460938 4.726562 C 25.90625 4.597656 26.324219 4.359375 26.664062 4.039062 L 26.667969 4.035156 C 26.949219 3.777344 27.296875 3.609375 27.675781 3.554688 C 28.054688 3.5 28.433594 3.5625 28.777344 3.734375 C 29.195312 3.945312 29.660156 4.054688 30.128906 4.054688 C 30.597656 4.054688 31.0625 3.945312 31.480469 3.734375 C 31.824219 3.5625 32.203125 3.5 32.582031 3.554688 C 32.960938 3.609375 33.308594 3.777344 33.589844 4.035156 L 33.59375 4.039062 C 33.933594 4.359375 34.351562 4.597656 34.796875 4.726562 C 35.242188 4.859375 35.722656 4.882812 36.179688 4.800781 L 36.183594 4.800781 C 36.558594 4.734375 36.941406 4.78125 37.289062 4.941406 C 37.636719 5.101562 37.925781 5.359375 38.121094 5.691406 C 38.359375 6.09375 38.691406 6.441406 39.085938 6.695312 C 39.476562 6.949219 39.929688 7.109375 40.390625 7.160156 L 40.394531 7.160156 C 40.773438 7.203125 41.128906 7.355469 41.417969 7.609375 C 41.707031 7.859375 41.910156 8.191406 42.003906 8.5625 C 42.121094 9.019531 42.34375 9.445312 42.648438 9.800781 C 42.953125 10.152344 43.34375 10.4375 43.777344 10.617188 C 44.128906 10.761719 44.425781 11.011719 44.632812 11.335938 C 44.839844 11.65625 44.941406 12.03125 44.929688 12.417969 C 44.914062 12.886719 45.007812 13.359375 45.199219 13.785156 C 45.394531 14.210938 45.6875 14.589844 46.050781 14.882812 C 46.347656 15.125 46.5625 15.449219 46.671875 15.816406 C 46.777344 16.183594 46.773438 16.570312 46.652344 16.9375 C 46.503906 17.382812 46.460938 17.863281 46.527344 18.328125 C 46.59375 18.789062 46.769531 19.238281 47.035156 19.625 L 47.035156 19.628906 C 47.253906 19.945312 47.367188 20.3125 47.367188 20.695312 C 47.367188 21.082031 47.253906 21.449219 47.035156 21.765625 L 47.035156 21.769531 C 46.769531 22.152344 46.59375 22.601562 46.527344 23.066406 C 46.460938 23.53125 46.503906 24.011719 46.652344 24.453125 C 46.652344 24.453125 46.652344 24.457031 46.652344 24.457031 C 46.773438 24.820312 46.78125 25.207031 46.671875 25.578125 C 46.5625 25.945312 46.351562 26.265625 46.054688 26.507812 C 46.050781 26.507812 46.050781 26.507812 46.050781 26.511719 C 45.6875 26.804688 45.394531 27.183594 45.199219 27.609375 C 45.007812 28.035156 44.914062 28.507812 44.929688 28.972656 L 44.929688 28.976562 C 44.941406 29.363281 44.839844 29.734375 44.632812 30.058594 C 44.425781 30.382812 44.128906 30.628906 43.777344 30.777344 C 43.777344 30.777344 43.773438 30.777344 43.773438 30.777344 C 43.34375 30.957031 42.953125 31.238281 42.648438 31.59375 C 42.34375 31.949219 42.121094 32.375 42.003906 32.828125 L 42.003906 32.832031 C 41.925781 33.132812 41.78125 33.402344 41.574219 33.628906 C 41.574219 33.632812 41.570312 33.636719 41.566406 33.640625 C 41.519531 33.691406 41.46875 33.738281 41.417969 33.785156 C 41.128906 34.035156 40.773438 34.191406 40.394531 34.230469 L 40.390625 34.230469 C 39.929688 34.28125 39.476562 34.441406 39.085938 34.695312 C 38.691406 34.949219 38.359375 35.296875 38.121094 35.699219 C 38.121094 35.703125 38.121094 35.703125 38.121094 35.703125 C 37.925781 36.03125 37.636719 36.292969 37.289062 36.449219 C 36.941406 36.609375 36.558594 36.660156 36.183594 36.589844 C 36.183594 36.589844 36.179688 36.589844 36.179688 36.589844 C 35.722656 36.507812 35.242188 36.535156 34.796875 36.664062 C 34.351562 36.796875 33.933594 37.035156 33.589844 37.355469 C 33.308594 37.617188 32.960938 37.785156 32.582031 37.839844 C 32.203125 37.894531 31.824219 37.832031 31.480469 37.660156 C 31.445312 37.640625 31.40625 37.621094 31.367188 37.605469 C 31.359375 37.601562 31.347656 37.59375 31.335938 37.589844 C 30.957031 37.425781 30.542969 37.335938 30.128906 37.335938 C 29.660156 37.335938 29.195312 37.449219 28.777344 37.660156 C 28.433594 37.832031 28.054688 37.894531 27.675781 37.839844 C 27.296875 37.785156 26.949219 37.617188 26.667969 37.355469 L 26.664062 37.355469 C 26.324219 37.035156 25.90625 36.796875 25.460938 36.664062 C 25.015625 36.535156 24.535156 36.507812 24.078125 36.589844 C 24.074219 36.589844 24.074219 36.589844 24.074219 36.589844 C 23.699219 36.660156 23.316406 36.609375 22.964844 36.453125 C 22.617188 36.292969 22.332031 36.03125 22.136719 35.699219 C 21.898438 35.296875 21.566406 34.949219 21.171875 34.695312 C 20.78125 34.445312 20.328125 34.28125 19.863281 34.230469 C 19.480469 34.191406 19.128906 34.035156 18.839844 33.785156 C 18.550781 33.53125 18.347656 33.203125 18.253906 32.832031 L 18.253906 32.828125 C 18.136719 32.375 17.914062 31.949219 17.609375 31.59375 C 17.304688 31.238281 16.914062 30.957031 16.480469 30.777344 Z M 29.460938 40.980469 L 24.054688 55.8125 L 19.390625 50.164062 C 19.257812 50 19.042969 49.925781 18.835938 49.964844 L 11.59375 51.421875 L 17.804688 34.378906 C 17.894531 34.476562 17.988281 34.570312 18.085938 34.65625 C 18.554688 35.0625 19.125 35.3125 19.738281 35.378906 L 19.742188 35.378906 C 20.324219 35.441406 20.847656 35.785156 21.148438 36.289062 C 21.460938 36.824219 21.925781 37.242188 22.488281 37.5 C 23.050781 37.757812 23.667969 37.835938 24.277344 37.726562 C 24.277344 37.726562 24.28125 37.726562 24.28125 37.726562 C 24.855469 37.625 25.453125 37.800781 25.882812 38.199219 L 25.886719 38.203125 C 26.335938 38.625 26.902344 38.894531 27.511719 38.980469 C 28.125 39.070312 28.738281 38.96875 29.292969 38.691406 C 29.625 38.523438 30 38.460938 30.363281 38.507812 Z M 41.324219 50.273438 C 41.113281 50.230469 40.894531 50.316406 40.761719 50.488281 L 36.5 56.085938 L 30.617188 41.171875 L 31.449219 38.882812 C 31.730469 38.96875 32.019531 39.011719 32.316406 39.011719 C 32.457031 39.011719 32.601562 39.003906 32.746094 38.980469 C 33.355469 38.894531 33.917969 38.625 34.371094 38.199219 L 34.375 38.199219 C 34.800781 37.800781 35.402344 37.625 35.976562 37.726562 C 35.976562 37.726562 35.976562 37.726562 35.980469 37.726562 C 36.585938 37.835938 37.207031 37.757812 37.769531 37.5 C 38.332031 37.242188 38.792969 36.824219 39.109375 36.289062 C 39.410156 35.78125 39.933594 35.441406 40.515625 35.378906 L 40.519531 35.378906 C 40.957031 35.332031 41.375 35.191406 41.746094 34.964844 L 48.300781 51.582031 Z M 41.324219 50.273438 " fill-opacity="1" fill-rule="nonzero"/></g></svg>